<?xml version="1.0" encoding="utf-8"?>
<!-- Generator: Adobe Illustrator 24.3.0, SVG Export Plug-In . SVG Version: 6.00 Build 0)  -->
<svg version="1.1" id="Layer_1" xmlns="http://www.w3.org/2000/svg" xmlns:xlink="http://www.w3.org/1999/xlink" x="0px" y="0px"
	 viewBox="0 0 425 425" style="enable-background:new 0 0 425 425;" xml:space="preserve">
<style type="text/css">
	.st0{fill:#542857;}
</style>
<g>
	<path class="st0" d="M412.3,212.7c0.2,109.7-89.2,199.2-199.4,199.6C102.9,412.7,12.8,323.1,12.7,213
		C12.5,103,102.4,13.3,212.6,13.4C322.7,13.5,412.1,102.7,412.3,212.7z M28.3,212.7c-0.1,101.4,82.3,183.8,183.8,183.9
		c102,0.1,184.3-81.9,184.5-183.7C396.8,111.6,314.5,29.2,212.9,29C111,28.9,28.4,111.1,28.3,212.7z"/>
	<path class="st0" d="M265.7,213.5c-5.5-5.3-9.6-9.1-13.6-13.1c-24.6-24.3-49.2-48.7-73.8-73.1c-1.1-1.1-2.2-2.1-3.1-3.3
		c-2.5-3.4-2.4-6.9,0.6-10c2.9-3,6.5-3.1,10-0.9c1.2,0.8,2.3,2,3.3,3c29.8,29.5,59.6,59,89.5,88.5c6.7,6.7,6.7,9.5,0.1,16.2
		c-29.6,29.5-59.1,59-88.7,88.5c-1.1,1.1-2.1,2.2-3.3,3c-3.5,2.2-7.1,2.2-10-0.8c-2.9-3-3-6.6-0.6-10c0.9-1.4,2.2-2.5,3.4-3.6
		c27-26.9,53.9-53.9,80.9-80.8C261.7,215.9,263.4,215.1,265.7,213.5z"/>
</g>
</svg>
