<?xml version="1.0" encoding="utf-8"?>
<!-- Generator: Adobe Illustrator 24.3.0, SVG Export Plug-In . SVG Version: 6.00 Build 0)  -->
<svg version="1.1" id="Layer_1" xmlns="http://www.w3.org/2000/svg" xmlns:xlink="http://www.w3.org/1999/xlink" x="0px" y="0px"
	 viewBox="0 0 425 425" style="enable-background:new 0 0 425 425;" xml:space="preserve">
<style type="text/css">
	.st0{fill:#542857;}
</style>
<g>
	<path class="st0" d="M12.7,213C12.5,103.3,101.9,13.8,212.1,13.4c110.1-0.4,200.1,89.2,200.2,199.3c0.2,110-89.7,199.7-199.9,199.6
		C102.3,412.2,12.9,323,12.7,213z M396.7,213C396.7,111.5,314.4,29.1,212.9,29c-102-0.1-184.3,81.9-184.5,183.7
		c-0.2,101.4,82.2,183.8,183.8,183.9C314,396.8,396.6,314.6,396.7,213z"/>
	<path class="st0" d="M159.3,212.2c5.5,5.3,9.6,9.1,13.6,13.1c24.6,24.3,49.2,48.7,73.8,73.1c1.1,1.1,2.2,2.1,3.1,3.3
		c2.5,3.4,2.4,6.9-0.6,10c-2.9,3-6.5,3.1-10,0.9c-1.2-0.8-2.3-2-3.3-3c-29.8-29.5-59.6-59-89.5-88.5c-6.7-6.7-6.7-9.5-0.1-16.2
		c29.6-29.5,59.1-59,88.7-88.5c1.1-1.1,2.1-2.2,3.3-3c3.5-2.2,7.1-2.2,10,0.8c2.9,3,3,6.6,0.6,10c-0.9,1.4-2.2,2.5-3.4,3.6
		c-27,26.9-53.9,53.9-80.9,80.8C163.3,209.7,161.6,210.6,159.3,212.2z"/>
</g>
</svg>
