<?xml version="1.0" encoding="utf-8"?>
<!-- Generator: Adobe Illustrator 24.3.0, SVG Export Plug-In . SVG Version: 6.00 Build 0)  -->
<svg version="1.1" xmlns="http://www.w3.org/2000/svg" xmlns:xlink="http://www.w3.org/1999/xlink" x="0px" y="0px"
	 viewBox="0 0 750 500" style="enable-background:new 0 0 750 500;" xml:space="preserve">
<style type="text/css">
	.st0{display:none;clip-path:url(#SVGID_2_);fill:url(#SVGID_3_);}
	.st1{clip-path:url(#SVGID_2_);}
	.st2{enable-background:new    ;}
	.st3{fill:url(#SVGID_4_);}
	.st4{fill:url(#SVGID_5_);}
	.st5{fill:url(#SVGID_6_);}
	.st6{fill:url(#SVGID_7_);}
	.st7{opacity:0.5608;fill:url(#SVGID_8_);}
	.st8{fill:#F9FCFF;}
	.st9{fill:#FCF6EB;}
	.st10{fill:url(#SVGID_9_);}
	.st11{fill:url(#SVGID_10_);}
	.st12{fill:url(#SVGID_11_);}
	.st13{fill:url(#SVGID_12_);}
	.st14{opacity:0.5608;fill:url(#SVGID_13_);}
	.st15{fill:url(#SVGID_14_);}
	.st16{fill:url(#SVGID_15_);}
	.st17{fill:url(#SVGID_16_);}
	.st18{fill:url(#SVGID_17_);}
	.st19{fill:url(#SVGID_18_);}
	.st20{fill:url(#SVGID_19_);}
	.st21{fill:url(#SVGID_20_);}
	.st22{fill:url(#SVGID_21_);}
	.st23{fill:url(#SVGID_22_);}
	.st24{fill:url(#SVGID_23_);}
	.st25{fill:url(#SVGID_24_);}
	.st26{opacity:0.5608;fill:url(#SVGID_25_);}
	.st27{fill:url(#SVGID_26_);}
	.st28{fill:url(#SVGID_27_);}
	.st29{fill:url(#SVGID_28_);}
	.st30{fill:url(#SVGID_29_);}
	.st31{opacity:0.5608;fill:url(#SVGID_30_);}
	.st32{fill:url(#SVGID_31_);}
	.st33{fill:url(#SVGID_32_);}
	.st34{fill:url(#SVGID_33_);}
	.st35{fill:url(#SVGID_34_);}
	.st36{opacity:0.5608;fill:url(#SVGID_35_);}
	.st37{opacity:0.27;}
	.st38{fill:url(#SVGID_36_);}
	.st39{fill:url(#SVGID_37_);}
	.st40{fill:url(#SVGID_38_);}
	.st41{fill:url(#SVGID_39_);}
	.st42{fill:url(#SVGID_40_);}
	.st43{fill:url(#SVGID_41_);}
	.st44{fill:url(#SVGID_42_);}
	.st45{fill:url(#SVGID_43_);}
	.st46{fill:url(#SVGID_44_);}
	.st47{fill:url(#SVGID_45_);}
	.st48{fill:url(#SVGID_46_);}
	.st49{opacity:0.35;}
	.st50{opacity:0.5608;fill:url(#SVGID_47_);}
	.st51{opacity:0.5608;fill:url(#SVGID_48_);}
	.st52{opacity:0.5608;fill:url(#SVGID_49_);}
	.st53{opacity:0.5608;fill:url(#SVGID_50_);}
	.st54{opacity:0.5608;fill:url(#SVGID_51_);}
	.st55{opacity:0.5608;fill:url(#SVGID_52_);}
	.st56{opacity:0.5608;fill:url(#SVGID_53_);}
	.st57{opacity:0.5608;fill:url(#SVGID_54_);}
	.st58{opacity:0.5608;fill:url(#SVGID_55_);}
	.st59{opacity:0.5608;fill:url(#SVGID_56_);}
	.st60{opacity:0.5608;fill:url(#SVGID_57_);}
	.st61{opacity:0.5608;fill:url(#SVGID_58_);}
	.st62{opacity:0.5608;fill:url(#SVGID_59_);}
	.st63{opacity:0.5608;fill:url(#SVGID_60_);}
	.st64{opacity:0.5608;fill:url(#SVGID_61_);}
	.st65{fill:url(#SVGID_62_);}
	.st66{fill:url(#SVGID_63_);}
	.st67{fill:#AAE0F1;}
	.st68{fill:url(#SVGID_64_);}
	.st69{fill:#155698;}
	.st70{fill:#145494;}
	.st71{fill:#145290;}
	.st72{fill:#13508D;}
	.st73{fill:#134E89;}
	.st74{fill:#124C85;}
	.st75{fill:#124981;}
	.st76{fill:#11477D;}
	.st77{fill:#11457A;}
	.st78{fill:#104376;}
	.st79{fill:#393B42;}
	.st80{fill:#DAD5D8;}
	.st81{fill:#8E8E8E;}
	.st82{fill:#C1D0EB;}
	.st83{fill:url(#SVGID_65_);}
	.st84{fill:#FFC15B;}
	.st85{fill:#DCE6F6;}
	.st86{fill:#B5C7E8;}
	.st87{fill:url(#SVGID_66_);}
	.st88{fill:url(#SVGID_67_);}
	.st89{clip-path:url(#SVGID_69_);}
	.st90{fill:url(#SVGID_70_);}
	.st91{fill:url(#SVGID_71_);}
	.st92{opacity:0.5608;fill:url(#SVGID_72_);}
	.st93{opacity:0.5608;fill:url(#SVGID_73_);}
	.st94{opacity:0.5608;fill:url(#SVGID_74_);}
	.st95{opacity:0.5608;fill:url(#SVGID_75_);}
	.st96{opacity:0.5608;fill:url(#SVGID_76_);}
	.st97{opacity:0.5608;fill:url(#SVGID_77_);}
	.st98{opacity:0.5608;fill:url(#SVGID_78_);}
	.st99{opacity:0.5608;fill:url(#SVGID_79_);}
	.st100{opacity:0.5608;fill:url(#SVGID_80_);}
	.st101{fill:url(#SVGID_81_);}
	.st102{fill:url(#SVGID_82_);}
	.st103{fill:url(#SVGID_83_);}
	.st104{clip-path:url(#SVGID_86_);}
	.st105{fill:url(#SVGID_87_);}
	.st106{fill:url(#SVGID_88_);}
	.st107{fill:#FFFFFF;}
	.st108{fill:url(#SVGID_89_);}
	.st109{opacity:0.3;}
	.st110{fill:#004299;}
	.st111{fill:url(#SVGID_90_);}
	.st112{fill:url(#SVGID_91_);}
	.st113{fill:#92DBFB;}
	.st114{fill:#F95F5F;}
	.st115{fill:#FFC6A0;}
	.st116{fill:url(#SVGID_92_);}
	.st117{fill:#563C19;}
	.st118{fill:url(#SVGID_93_);}
	.st119{fill:url(#SVGID_94_);}
	.st120{fill:url(#SVGID_95_);}
	.st121{fill:url(#SVGID_96_);}
	.st122{fill:url(#SVGID_97_);}
	.st123{fill:url(#SVGID_98_);}
	.st124{fill:url(#SVGID_99_);}
	.st125{fill:#FDF7FB;}
	.st126{fill:url(#SVGID_100_);}
	.st127{opacity:0.5608;fill:#FCF6EB;}
	.st128{opacity:0.27;fill:url(#SVGID_101_);}
	.st129{opacity:0.5608;fill:url(#SVGID_102_);}
	.st130{opacity:0.27;fill:url(#SVGID_103_);}
	.st131{opacity:0.5608;fill:#F9FCFF;}
	.st132{clip-path:url(#SVGID_105_);}
	.st133{fill:url(#SVGID_106_);}
	.st134{fill:url(#SVGID_107_);}
	.st135{fill:url(#SVGID_108_);}
	.st136{fill:url(#SVGID_109_);}
	.st137{opacity:0.27;fill:url(#SVGID_110_);}
	.st138{fill:url(#SVGID_111_);}
	.st139{fill:url(#SVGID_112_);}
	.st140{fill:url(#SVGID_113_);}
	.st141{fill:#A8BEE3;}
	.st142{fill:url(#SVGID_114_);}
	.st143{fill:url(#SVGID_115_);}
	.st144{fill:url(#SVGID_116_);}
	.st145{fill:url(#SVGID_117_);}
	.st146{opacity:0.5;clip-path:url(#SVGID_2_);}
	.st147{fill:#A5FFFF;}
</style>
<g id="BACKGROUND">
</g>
<g id="OBJECTS">
	<g>
		<defs>
			<polygon id="SVGID_1_" points="874.1,503.8 1.9,499.6 1.9,-0.4 874.1,3.8 			"/>
		</defs>
		<clipPath id="SVGID_2_">
			<use xlink:href="#SVGID_1_"  style="overflow:visible;"/>
		</clipPath>
		<radialGradient id="SVGID_3_" cx="547.157" cy="21.9966" r="730.2594" gradientUnits="userSpaceOnUse">
			<stop  offset="0" style="stop-color:#00B3F4"/>
			<stop  offset="0.1536" style="stop-color:#00ABEF"/>
			<stop  offset="0.3934" style="stop-color:#0095E1"/>
			<stop  offset="0.6894" style="stop-color:#0071CA"/>
			<stop  offset="0.9937" style="stop-color:#0044AE"/>
		</radialGradient>
		<rect x="1.9" y="-0.4" class="st0" width="750" height="500"/>
		<g class="st1">
			<g>
				<g>
					<g class="st2">
						<g>
							<linearGradient id="SVGID_4_" gradientUnits="userSpaceOnUse" x1="676.9291" y1="194.4433" x2="666.3236" y2="220.2773">
								<stop  offset="0" style="stop-color:#FFB115"/>
								<stop  offset="1" style="stop-color:#FF6A3F"/>
							</linearGradient>
							<polygon class="st3" points="705.6,210.5 670.4,231 635,210.5 670.4,190.1 							"/>
						</g>
						<linearGradient id="SVGID_5_" gradientUnits="userSpaceOnUse" x1="670.3996" y1="355.0612" x2="705.6482" y2="355.0612">
							<stop  offset="0" style="stop-color:#FFCA3F"/>
							<stop  offset="1" style="stop-color:#AA5E00"/>
						</linearGradient>
						<polygon class="st4" points="705.6,499.6 705.6,210.5 670.4,231 670.4,499.6 						"/>
						<linearGradient id="SVGID_6_" gradientUnits="userSpaceOnUse" x1="634.9975" y1="355.0614" x2="670.3996" y2="355.0614">
							<stop  offset="0" style="stop-color:#AA3800"/>
							<stop  offset="1" style="stop-color:#AA5E00"/>
						</linearGradient>
						<polygon class="st5" points="670.4,499.6 670.4,231 635,210.5 635,499.6 						"/>
					</g>
				</g>
				<linearGradient id="SVGID_7_" gradientUnits="userSpaceOnUse" x1="673.8019" y1="264.9211" x2="661.9071" y2="622.2435">
					<stop  offset="0" style="stop-color:#FFBE15;stop-opacity:0"/>
					<stop  offset="0.1703" style="stop-color:#FFB515;stop-opacity:0.4119"/>
					<stop  offset="0.2894" style="stop-color:#FFAB15;stop-opacity:0.7"/>
					<stop  offset="0.4726" style="stop-color:#E29010;stop-opacity:0.7786"/>
					<stop  offset="0.8689" style="stop-color:#974B04;stop-opacity:0.9486"/>
					<stop  offset="0.9888" style="stop-color:#7F3500"/>
				</linearGradient>
				<rect x="635.5" y="210.8" class="st6" width="70.7" height="289.1"/>
				<g>
					<linearGradient id="SVGID_8_" gradientUnits="userSpaceOnUse" x1="669.6062" y1="110.3294" x2="668.7104" y2="206.1694">
						<stop  offset="0" style="stop-color:#F9FCFF;stop-opacity:0"/>
						<stop  offset="1" style="stop-color:#F9FCFF"/>
					</linearGradient>
					<polygon class="st7" points="637.1,94.1 653.4,210.5 670.8,220.5 688.1,210.5 702.5,94.1 					"/>
					<polygon class="st8" points="653.4,210.5 670.7,200.4 688.1,210.5 670.8,220.5 					"/>
				</g>
				<path class="st9" d="M684.9,150.8h-1.3v-10.4c0-6.5-5.3-11.9-11.9-11.9c-6.5,0-11.9,5.3-11.9,11.9v4h5.9v-4c0-3.3,2.7-6,6-6
					c3.3,0,6,2.7,6,6v10.4h-19.2c-1.1,0-2,0.9-2,2v22.4c0,1.1,0.9,2,2,2h26.3c1.1,0,2-0.9,2-2v-22.4
					C686.9,151.7,686,150.8,684.9,150.8z M673.7,164.5v3.2c0,1.1-0.9,2-2,2c-1.1,0-2-0.9-2-2v-3.2c-0.9-0.6-1.5-1.7-1.5-2.8
					c0-1.9,1.5-3.4,3.4-3.4c1.9,0,3.4,1.5,3.4,3.4C675.2,162.9,674.6,163.9,673.7,164.5z"/>
			</g>
			<g>
				<g>
					<g class="st2">
						<g>
							<linearGradient id="SVGID_9_" gradientUnits="userSpaceOnUse" x1="733.646" y1="229.7901" x2="727.6533" y2="244.3877">
								<stop  offset="0" style="stop-color:#FFB115"/>
								<stop  offset="1" style="stop-color:#FF6A3F"/>
							</linearGradient>
							<polygon class="st10" points="749.9,238.9 730,250.4 710,238.9 730,227.3 							"/>
						</g>
						<linearGradient id="SVGID_10_" gradientUnits="userSpaceOnUse" x1="729.9566" y1="369.235" x2="749.874" y2="369.235">
							<stop  offset="0" style="stop-color:#FFCA3F"/>
							<stop  offset="1" style="stop-color:#AA5E00"/>
						</linearGradient>
						<polygon class="st11" points="749.9,499.6 749.9,238.9 730,250.4 730,499.6 						"/>
						<linearGradient id="SVGID_11_" gradientUnits="userSpaceOnUse" x1="709.9525" y1="369.2351" x2="729.9566" y2="369.2351">
							<stop  offset="0" style="stop-color:#AA3800"/>
							<stop  offset="1" style="stop-color:#AA5E00"/>
						</linearGradient>
						<polygon class="st12" points="730,499.6 730,250.4 710,238.9 710,499.6 						"/>
					</g>
				</g>
				<linearGradient id="SVGID_12_" gradientUnits="userSpaceOnUse" x1="728.5108" y1="256.7396" x2="732.7195" y2="567.7149">
					<stop  offset="0" style="stop-color:#FFBE15;stop-opacity:0"/>
					<stop  offset="0.1703" style="stop-color:#FFB515;stop-opacity:0.4119"/>
					<stop  offset="0.2894" style="stop-color:#FFAB15;stop-opacity:0.7"/>
					<stop  offset="0.4726" style="stop-color:#E29010;stop-opacity:0.7786"/>
					<stop  offset="0.8689" style="stop-color:#974B04;stop-opacity:0.9486"/>
					<stop  offset="0.9888" style="stop-color:#7F3500"/>
				</linearGradient>
				<rect x="710.1" y="238.7" class="st13" width="39.9" height="260.7"/>
				<g>
					<linearGradient id="SVGID_13_" gradientUnits="userSpaceOnUse" x1="728.6472" y1="162.1002" x2="727.9594" y2="235.6958">
						<stop  offset="0" style="stop-color:#F9FCFF;stop-opacity:0"/>
						<stop  offset="1" style="stop-color:#F9FCFF"/>
					</linearGradient>
					<polygon class="st14" points="703.6,149.6 716.2,239 729.6,246.7 742.9,239 753.9,149.6 					"/>
					<polygon class="st8" points="716.2,239 729.5,231.3 742.9,239 729.6,246.7 					"/>
				</g>
				<path class="st9" d="M729.9,183.2c-6.4,0-11.6,5.2-11.6,11.6c0,6.4,5.2,11.6,11.6,11.6c6.4,0,11.6-5.2,11.6-11.6
					C741.5,188.4,736.3,183.2,729.9,183.2z M732.6,199.1c-0.6,0.6-1.3,1-2.2,1.1v0.7c0,0.4-0.3,0.7-0.7,0.7c-0.4,0-0.7-0.3-0.7-0.7
					v-0.7c-0.7-0.1-1.4-0.3-1.9-0.7c-0.5-0.4-0.9-0.8-1.2-1.4c-0.1-0.2-0.1-0.3-0.1-0.5c0-0.1,0-0.2,0-0.3c0.1-0.2,0.2-0.3,0.4-0.5
					c0.1-0.1,0.3-0.1,0.4-0.1c0.3,0,0.5,0.2,0.8,0.5c0.5,0.8,1.3,1.2,2.3,1.2c0.5,0,1-0.1,1.4-0.4c0.4-0.3,0.7-0.7,0.7-1.2
					c0-0.5-0.2-0.8-0.7-1.1c-0.3-0.2-0.6-0.3-1.2-0.4l-0.2-0.1c-1.2-0.2-2-0.6-2.6-1.1c-0.7-0.6-1.1-1.3-1.1-2.2
					c0-0.8,0.3-1.5,0.9-2.1c0.5-0.5,1.3-0.9,2.1-1.1v-0.7c0-0.2,0.1-0.4,0.2-0.5c0.1-0.1,0.3-0.2,0.5-0.2c0.2,0,0.4,0.1,0.5,0.2
					c0.1,0.1,0.2,0.3,0.2,0.5v0.7c1.1,0.2,2,0.7,2.6,1.6c0.1,0.1,0.1,0.2,0.1,0.3c0,0,0,0.1,0,0.2c0,0.2-0.1,0.3-0.2,0.4
					c-0.1,0.1-0.3,0.2-0.6,0.2c-0.2,0-0.4-0.1-0.5-0.2c-0.4-0.3-0.7-0.5-0.9-0.6c-0.3-0.1-0.7-0.2-1.1-0.2c-0.5,0-1,0.1-1.4,0.4
					c-0.4,0.3-0.6,0.6-0.6,1.1c0,0.5,0.3,0.8,0.8,1.1c0.4,0.2,0.9,0.3,1.8,0.5c0.9,0.2,1.7,0.5,2.2,1c0.7,0.5,1,1.3,1,2.1
					C733.5,197.7,733.2,198.5,732.6,199.1z"/>
			</g>
			<g>
				<g class="st2">
					<g>
						<linearGradient id="SVGID_14_" gradientUnits="userSpaceOnUse" x1="716.0618" y1="289.0602" x2="711.1385" y2="301.0526">
							<stop  offset="0" style="stop-color:#FFB115"/>
							<stop  offset="1" style="stop-color:#FF6A3F"/>
						</linearGradient>
						<polygon class="st15" points="729.4,296.5 713,306 696.6,296.5 713,287 						"/>
					</g>
					<linearGradient id="SVGID_15_" gradientUnits="userSpaceOnUse" x1="713.0308" y1="398.0587" x2="729.3935" y2="398.0587">
						<stop  offset="0" style="stop-color:#FFCA3F"/>
						<stop  offset="1" style="stop-color:#AA5E00"/>
					</linearGradient>
					<polygon class="st16" points="729.4,499.6 729.4,296.5 713,306 713,499.6 					"/>
					<linearGradient id="SVGID_16_" gradientUnits="userSpaceOnUse" x1="696.5966" y1="398.0587" x2="713.0308" y2="398.0587">
						<stop  offset="0" style="stop-color:#AA3800"/>
						<stop  offset="1" style="stop-color:#AA5E00"/>
					</linearGradient>
					<polygon class="st17" points="713,499.6 713,306 696.6,296.5 696.6,499.6 					"/>
				</g>
			</g>
			<linearGradient id="SVGID_17_" gradientUnits="userSpaceOnUse" x1="714.4891" y1="331.3666" x2="708.7798" y2="634.9225">
				<stop  offset="0" style="stop-color:#FFBE15;stop-opacity:0"/>
				<stop  offset="0.1703" style="stop-color:#FFB515;stop-opacity:0.4119"/>
				<stop  offset="0.2894" style="stop-color:#FFAB15;stop-opacity:0.7"/>
				<stop  offset="0.4726" style="stop-color:#E29010;stop-opacity:0.7786"/>
				<stop  offset="0.8689" style="stop-color:#974B04;stop-opacity:0.9486"/>
				<stop  offset="0.9888" style="stop-color:#7F3500"/>
			</linearGradient>
			<rect x="696.8" y="296.8" class="st18" width="32.8" height="203.1"/>
		</g>
		<g class="st1">
			<g class="st2">
				<g>
					<linearGradient id="SVGID_18_" gradientUnits="userSpaceOnUse" x1="43.8108" y1="346.4981" x2="33.2053" y2="372.3321">
						<stop  offset="0" style="stop-color:#FFB115"/>
						<stop  offset="1" style="stop-color:#FF6A3F"/>
					</linearGradient>
					<polygon class="st19" points="72.5,362.6 37.3,383.1 1.9,362.6 37.3,342.1 					"/>
				</g>
				<linearGradient id="SVGID_19_" gradientUnits="userSpaceOnUse" x1="37.2814" y1="431.0886" x2="72.53" y2="431.0886">
					<stop  offset="0" style="stop-color:#FFCA3F"/>
					<stop  offset="1" style="stop-color:#AA5E00"/>
				</linearGradient>
				<polygon class="st20" points="72.5,499.6 72.5,362.6 37.3,383.1 37.3,499.6 				"/>
				<linearGradient id="SVGID_20_" gradientUnits="userSpaceOnUse" x1="1.8792" y1="431.0887" x2="37.2814" y2="431.0887">
					<stop  offset="0" style="stop-color:#AA3800"/>
					<stop  offset="1" style="stop-color:#AA5E00"/>
				</linearGradient>
				<polygon class="st21" points="37.3,499.6 37.3,383.1 1.9,362.6 1.9,499.6 				"/>
			</g>
		</g>
		<g class="st1">
			<g>
				<g>
					<g class="st2">
						<g>
							<linearGradient id="SVGID_21_" gradientUnits="userSpaceOnUse" x1="159.5041" y1="203.5348" x2="154.8918" y2="214.77">
								<stop  offset="0" style="stop-color:#FFB115"/>
								<stop  offset="1" style="stop-color:#FF6A3F"/>
							</linearGradient>
							<polygon class="st22" points="172,210.5 156.7,219.4 141.3,210.5 156.7,201.6 							"/>
						</g>
						<linearGradient id="SVGID_22_" gradientUnits="userSpaceOnUse" x1="156.6645" y1="355.0602" x2="171.9941" y2="355.0602">
							<stop  offset="0" style="stop-color:#FFCA3F"/>
							<stop  offset="1" style="stop-color:#AA5E00"/>
						</linearGradient>
						<polygon class="st23" points="172,499.6 172,210.5 156.7,219.4 156.7,499.6 						"/>
						<linearGradient id="SVGID_23_" gradientUnits="userSpaceOnUse" x1="141.268" y1="355.0602" x2="156.6645" y2="355.0602">
							<stop  offset="0" style="stop-color:#AA3800"/>
							<stop  offset="1" style="stop-color:#AA5E00"/>
						</linearGradient>
						<polygon class="st24" points="156.7,499.6 156.7,219.4 141.3,210.5 141.3,499.6 						"/>
					</g>
				</g>
				<linearGradient id="SVGID_24_" gradientUnits="userSpaceOnUse" x1="158.6355" y1="244.889" x2="156.6602" y2="347.6068">
					<stop  offset="0" style="stop-color:#FFBE15;stop-opacity:0"/>
					<stop  offset="0.1703" style="stop-color:#FFB515;stop-opacity:0.4119"/>
					<stop  offset="0.2894" style="stop-color:#FFAB15;stop-opacity:0.7"/>
					<stop  offset="0.4726" style="stop-color:#E29010;stop-opacity:0.7786"/>
					<stop  offset="0.8689" style="stop-color:#974B04;stop-opacity:0.9486"/>
					<stop  offset="0.9888" style="stop-color:#7F3500"/>
				</linearGradient>
				<rect x="141.1" y="213.8" class="st25" width="30.7" height="289.1"/>
				<g>
					<g>
						<linearGradient id="SVGID_25_" gradientUnits="userSpaceOnUse" x1="155.9491" y1="155.6973" x2="155.4601" y2="208.0166">
							<stop  offset="0" style="stop-color:#F9FCFF;stop-opacity:0"/>
							<stop  offset="1" style="stop-color:#F9FCFF"/>
						</linearGradient>
						<polygon class="st26" points="138.2,146.8 147.1,210.4 156.6,215.8 166.1,210.4 173.9,146.8 						"/>
						<polygon class="st8" points="147.1,210.4 156.5,204.9 166.1,210.4 156.6,215.8 						"/>
					</g>
					<path class="st9" d="M165.5,170h-17.7c-0.7,0-1.2,0.6-1.2,1.2v9.8c0,0.7,0.6,1.2,1.2,1.2h17.7c0.7,0,1.2-0.6,1.2-1.2v-9.8
						C166.8,170.6,166.2,170,165.5,170z M163.6,180.7c-0.5,0-1-0.3-1.3-0.6c-0.3,0.4-0.8,0.6-1.3,0.6c-0.9,0-1.7-0.8-1.7-1.7
						c0-0.9,0.8-1.7,1.7-1.7c0.5,0,1,0.3,1.3,0.6c0.3-0.4,0.8-0.6,1.3-0.6c0.9,0,1.7,0.8,1.7,1.7C165.3,180,164.5,180.7,163.6,180.7
						z M165.3,175.7h-17.2v-3h17.2V175.7z"/>
				</g>
			</g>
			<g>
				<g>
					<g class="st2">
						<g>
							<linearGradient id="SVGID_26_" gradientUnits="userSpaceOnUse" x1="109.9009" y1="179.8392" x2="101.7383" y2="199.7227">
								<stop  offset="0" style="stop-color:#FFB115"/>
								<stop  offset="1" style="stop-color:#FF6A3F"/>
							</linearGradient>
							<polygon class="st27" points="132,192.2 104.9,208 77.6,192.2 104.9,176.5 							"/>
						</g>
						<linearGradient id="SVGID_27_" gradientUnits="userSpaceOnUse" x1="104.8755" y1="345.9059" x2="132.0051" y2="345.9059">
							<stop  offset="0" style="stop-color:#FFCA3F"/>
							<stop  offset="1" style="stop-color:#AA5E00"/>
						</linearGradient>
						<polygon class="st28" points="132,499.6 132,192.2 104.9,208 104.9,499.6 						"/>
						<linearGradient id="SVGID_28_" gradientUnits="userSpaceOnUse" x1="77.6277" y1="345.9059" x2="104.8755" y2="345.9059">
							<stop  offset="0" style="stop-color:#AA3800"/>
							<stop  offset="1" style="stop-color:#AA5E00"/>
						</linearGradient>
						<polygon class="st29" points="104.9,499.6 104.9,208 77.6,192.2 77.6,499.6 						"/>
					</g>
				</g>
				<linearGradient id="SVGID_29_" gradientUnits="userSpaceOnUse" x1="106.8414" y1="273.5599" x2="102.3468" y2="520.0145">
					<stop  offset="0" style="stop-color:#FFBE15;stop-opacity:0"/>
					<stop  offset="0.1703" style="stop-color:#FFB515;stop-opacity:0.4119"/>
					<stop  offset="0.2894" style="stop-color:#FFAB15;stop-opacity:0.7"/>
					<stop  offset="0.4726" style="stop-color:#E29010;stop-opacity:0.7786"/>
					<stop  offset="0.8689" style="stop-color:#974B04;stop-opacity:0.9486"/>
					<stop  offset="0.9888" style="stop-color:#7F3500"/>
				</linearGradient>
				<rect x="78.1" y="204.2" class="st30" width="54.4" height="307.4"/>
				<g>
					<g>
						<linearGradient id="SVGID_30_" gradientUnits="userSpaceOnUse" x1="103.612" y1="101.4896" x2="102.8034" y2="188.0007">
							<stop  offset="0" style="stop-color:#F9FCFF;stop-opacity:0"/>
							<stop  offset="1" style="stop-color:#F9FCFF"/>
						</linearGradient>
						<polygon class="st31" points="74.2,86.8 89,191.9 104.7,200.9 120.3,191.9 133.3,86.8 						"/>
						<polygon class="st8" points="89,191.9 104.6,182.8 120.3,191.9 104.7,200.9 						"/>
					</g>
					<path class="st9" d="M114.7,157.1l-3.1-3.1c-0.7-0.7-1.6-0.9-2.4-0.6l-1.6-1.6c0.9-1.3,1.4-2.8,1.4-4.4c0-2-0.8-3.9-2.2-5.3
						c-1.4-1.4-3.3-2.2-5.3-2.2c-2,0-3.9,0.8-5.3,2.2c-2.9,2.9-2.9,7.7,0,10.7c1.4,1.4,3.3,2.2,5.3,2.2c1.6,0,3.1-0.5,4.4-1.4
						l1.6,1.6c-0.2,0.8,0,1.8,0.6,2.4l3.1,3.1c0.5,0.5,1.1,0.7,1.8,0.7c0.6,0,1.3-0.2,1.8-0.7C115.7,159.7,115.7,158.1,114.7,157.1z
						 M97.9,151c-2-2-2-5.2,0-7.1c1-1,2.2-1.5,3.6-1.5c1.3,0,2.6,0.5,3.6,1.5c1,1,1.5,2.2,1.5,3.6c0,1.3-0.5,2.6-1.5,3.6
						c-1,1-2.2,1.5-3.6,1.5C100.1,152.5,98.8,152,97.9,151z"/>
				</g>
			</g>
			<g>
				<g>
					<g class="st2">
						<g>
							<linearGradient id="SVGID_31_" gradientUnits="userSpaceOnUse" x1="140.0199" y1="252.6624" x2="136.2307" y2="261.8925">
								<stop  offset="0" style="stop-color:#FFB115"/>
								<stop  offset="1" style="stop-color:#FF6A3F"/>
							</linearGradient>
							<polygon class="st32" points="150.3,258.4 137.7,265.7 125,258.4 137.7,251.1 							"/>
						</g>
						<linearGradient id="SVGID_32_" gradientUnits="userSpaceOnUse" x1="137.6871" y1="378.9994" x2="150.2809" y2="378.9994">
							<stop  offset="0" style="stop-color:#FFB115"/>
							<stop  offset="1" style="stop-color:#FF6A3F"/>
						</linearGradient>
						<polygon class="st33" points="150.3,499.6 150.3,258.4 137.7,265.7 137.7,499.6 						"/>
						<linearGradient id="SVGID_33_" gradientUnits="userSpaceOnUse" x1="125.0383" y1="378.9995" x2="137.6871" y2="378.9995">
							<stop  offset="0" style="stop-color:#AA3800"/>
							<stop  offset="1" style="stop-color:#AA5E00"/>
						</linearGradient>
						<polygon class="st34" points="137.7,499.6 137.7,265.7 125,258.4 125,499.6 						"/>
					</g>
				</g>
				<linearGradient id="SVGID_34_" gradientUnits="userSpaceOnUse" x1="138.636" y1="291.7602" x2="135.3859" y2="488.6358">
					<stop  offset="0" style="stop-color:#FFBE15;stop-opacity:0"/>
					<stop  offset="0.1703" style="stop-color:#FFB515;stop-opacity:0.4119"/>
					<stop  offset="0.2894" style="stop-color:#FFAB15;stop-opacity:0.7"/>
					<stop  offset="0.4726" style="stop-color:#E29010;stop-opacity:0.7786"/>
					<stop  offset="0.8689" style="stop-color:#974B04;stop-opacity:0.9486"/>
					<stop  offset="0.9888" style="stop-color:#7F3500"/>
				</linearGradient>
				<rect x="124.6" y="258.8" class="st35" width="25.2" height="241.2"/>
				<g>
					<g>
						<linearGradient id="SVGID_35_" gradientUnits="userSpaceOnUse" x1="137.158" y1="211.4364" x2="136.7387" y2="256.2957">
							<stop  offset="0" style="stop-color:#F9FCFF;stop-opacity:0"/>
							<stop  offset="1" style="stop-color:#F9FCFF"/>
						</linearGradient>
						<polygon class="st36" points="121.9,203.8 129.6,258.3 137.7,263 145.8,258.3 152.5,203.8 						"/>
						<polygon class="st8" points="129.6,258.3 137.7,253.6 145.8,258.3 137.7,263 						"/>
					</g>
					<path class="st8" d="M142.5,244v-2.9c0-0.6,0-0.8,0.3-0.9c0.3,0,0.5,0.4,0.8,0.5c0.3,0.1,0.6,0.1,0.9,0c0.4-0.2,0.4-0.7,0.4-1
						c0-0.4-0.1-0.8-0.4-1c-0.3-0.1-0.6-0.1-0.9,0c-0.3,0.1-0.5,0.5-0.8,0.5c-0.3,0-0.3-0.3-0.3-0.9v-2.9h-2.9c-0.6,0-0.8,0-0.9-0.3
						c0-0.3,0.4-0.5,0.5-0.8c0.1-0.3,0.1-0.6,0-0.9c-0.2-0.4-0.7-0.4-1-0.4c-0.4,0-0.8,0.1-1,0.4c-0.1,0.3-0.1,0.6,0,0.9
						c0.1,0.3,0.5,0.5,0.5,0.8c0,0.3-0.3,0.3-0.9,0.3h-2.9v2.9c0,0.5,0,0.8,0.3,0.8c0.3,0,0.5-0.4,0.8-0.5c0.3-0.1,0.6-0.1,0.9,0
						c0.4,0.2,0.4,0.7,0.4,1c0,0.4-0.1,0.8-0.4,1c-0.3,0.1-0.6,0.1-0.9,0c-0.3-0.1-0.5-0.5-0.8-0.5c-0.3,0-0.3,0.3-0.3,0.8v2.9
						H142.5z"/>
				</g>
			</g>
		</g>
		<g class="st1">
			<g class="st37">
				<polyline class="st9" points="616.4,298.8 589.8,283.4 589.8,299.2 616.4,314.5 616.4,298.8 				"/>
				<polygon class="st9" points="589.6,264.9 589.6,279.1 606.1,288.7 606.1,282.8 606.1,274.4 				"/>
				<polyline class="st9" points="615.1,287.2 610,284.3 610,290.1 615.1,293 615.1,287.2 				"/>
				<polygon class="st9" points="587.2,275.4 562.5,261.1 562.4,278.1 587.2,292.4 				"/>
				<polygon class="st9" points="567.2,294.7 567.2,302.5 567.2,302.5 567.2,303.9 579.9,311.3 579.9,308 579.9,302 				"/>
			</g>
			<g>
				<g class="st2">
					<linearGradient id="SVGID_36_" gradientUnits="userSpaceOnUse" x1="512.8567" y1="332.6596" x2="472.1779" y2="414.4641">
						<stop  offset="0" style="stop-color:#FFCA3F"/>
						<stop  offset="1" style="stop-color:#6A0800"/>
					</linearGradient>
					<polygon class="st38" points="521.9,499.6 669.8,413.7 473,299.5 275.3,413.7 423.8,499.6 					"/>
					<linearGradient id="SVGID_37_" gradientUnits="userSpaceOnUse" x1="275.3102" y1="456.6685" x2="472.9621" y2="456.6685">
						<stop  offset="0" style="stop-color:#144188"/>
						<stop  offset="0.998" style="stop-color:#102465"/>
					</linearGradient>
					<polygon class="st39" points="423.8,499.6 275.3,413.7 275.3,499.6 					"/>
				</g>
			</g>
			<g>
				<g class="st2">
					<linearGradient id="SVGID_38_" gradientUnits="userSpaceOnUse" x1="410.6075" y1="221.3288" x2="356.4605" y2="353.2255">
						<stop  offset="0" style="stop-color:#FFCA3F"/>
						<stop  offset="1" style="stop-color:#6A0800"/>
					</linearGradient>
					<polygon class="st40" points="557.2,303.5 377.3,408 196.5,303.5 377.3,199 					"/>
					<linearGradient id="SVGID_39_" gradientUnits="userSpaceOnUse" x1="377.2712" y1="401.537" x2="557.235" y2="401.537">
						<stop  offset="0" style="stop-color:#FFCA3F"/>
						<stop  offset="1" style="stop-color:#AA5E00"/>
					</linearGradient>
					<polygon class="st41" points="557.2,499.6 557.2,303.5 377.3,408 377.3,499.6 					"/>
				</g>
			</g>
			<g>
				<g class="st2">
					<g>
						<linearGradient id="SVGID_40_" gradientUnits="userSpaceOnUse" x1="534.8965" y1="394.2005" x2="509.2508" y2="456.6711">
							<stop  offset="0" style="stop-color:#FFCA3F"/>
							<stop  offset="1" style="stop-color:#AA5E00"/>
						</linearGradient>
						<polygon class="st42" points="604.3,433.1 519.1,482.6 433.5,433.1 519.1,383.6 						"/>
					</g>
					<linearGradient id="SVGID_41_" gradientUnits="userSpaceOnUse" x1="433.4991" y1="466.3506" x2="519.1074" y2="466.3506">
						<stop  offset="0" style="stop-color:#144188"/>
						<stop  offset="0.998" style="stop-color:#102465"/>
					</linearGradient>
					<polygon class="st43" points="519.1,499.6 519.1,482.6 433.5,433.1 433.5,499.6 					"/>
				</g>
			</g>
			<g>
				<g class="st2">
					<g>
						<linearGradient id="SVGID_42_" gradientUnits="userSpaceOnUse" x1="506.4971" y1="389.4672" x2="480.8513" y2="451.9379">
							<stop  offset="0" style="stop-color:#AA3800"/>
							<stop  offset="1" style="stop-color:#AA5E00"/>
						</linearGradient>
						<polygon class="st44" points="575.9,428.4 490.7,477.9 405.1,428.4 490.7,378.9 						"/>
					</g>
					<linearGradient id="SVGID_43_" gradientUnits="userSpaceOnUse" x1="405.0996" y1="463.9839" x2="490.7079" y2="463.9839">
						<stop  offset="0" style="stop-color:#144188"/>
						<stop  offset="0.998" style="stop-color:#102465"/>
					</linearGradient>
					<polygon class="st45" points="490.7,499.6 490.7,477.9 405.1,428.4 405.1,499.6 					"/>
				</g>
			</g>
			<g>
				<g class="st2">
					<linearGradient id="SVGID_44_" gradientUnits="userSpaceOnUse" x1="477.9926" y1="384.734" x2="452.3469" y2="447.2047">
						<stop  offset="0" style="stop-color:#FFCA3F"/>
						<stop  offset="1" style="stop-color:#6A0800"/>
					</linearGradient>
					<polygon class="st46" points="547.4,423.6 462.2,473.1 376.6,423.6 462.2,374.2 					"/>
					<linearGradient id="SVGID_45_" gradientUnits="userSpaceOnUse" x1="196.5234" y1="401.5378" x2="462.2035" y2="401.5378">
						<stop  offset="0" style="stop-color:#AA3800"/>
						<stop  offset="1" style="stop-color:#AA5E00"/>
					</linearGradient>
					<polygon class="st47" points="462.2,499.6 462.2,473.1 377.3,424 377.3,408 196.5,303.5 196.5,499.6 					"/>
				</g>
			</g>
			<linearGradient id="SVGID_46_" gradientUnits="userSpaceOnUse" x1="462.2035" y1="456.6677" x2="669.7567" y2="456.6677">
				<stop  offset="0" style="stop-color:#FFCA3F"/>
				<stop  offset="1" style="stop-color:#AA5E00"/>
			</linearGradient>
			<polygon class="st48" points="669.8,499.6 669.8,413.7 604.3,451.7 604.3,433.1 575.9,449.6 575.9,428.4 547.4,444.9 
				547.4,423.6 462.2,473.1 462.2,499.6 			"/>
			<g class="st49">
				<path class="st9" d="M263.4,118.6L209.2,150c-1.4,0.8-2.6,2.8-2.6,4.5l0.2,83.2c0,1.6,1.2,2.3,2.6,1.5l54.3-31.3
					c1.4-0.8,2.6-2.8,2.6-4.5l-0.2-83.2C266,118.5,264.9,117.8,263.4,118.6"/>
				<g class="st2">
					<g>
						<linearGradient id="SVGID_47_" gradientUnits="userSpaceOnUse" x1="213.5246" y1="157.1509" x2="218.8111" y2="157.1509">
							<stop  offset="0" style="stop-color:#FFB115"/>
							<stop  offset="1" style="stop-color:#FF6A3F"/>
						</linearGradient>
						<path class="st50" d="M216.2,154.1c-1.5,0.8-2.6,2.9-2.6,4.6c0,1.7,1.2,2.4,2.7,1.5c1.5-0.8,2.6-2.9,2.6-4.6
							C218.8,153.9,217.6,153.3,216.2,154.1"/>
						<linearGradient id="SVGID_48_" gradientUnits="userSpaceOnUse" x1="223.9699" y1="142.4966" x2="259.1302" y2="142.4966">
							<stop  offset="0" style="stop-color:#FFB115"/>
							<stop  offset="1" style="stop-color:#FF6A3F"/>
						</linearGradient>
						<path class="st51" d="M257.7,131.5l-32.3,18.6c-0.8,0.5-1.5,1.6-1.5,2.5c0,0.9,0.7,1.3,1.5,0.8l32.3-18.6
							c0.8-0.5,1.4-1.6,1.4-2.5C259.1,131.4,258.5,131.1,257.7,131.5"/>
						<linearGradient id="SVGID_49_" gradientUnits="userSpaceOnUse" x1="223.9911" y1="149.998" x2="259.1514" y2="149.998">
							<stop  offset="0" style="stop-color:#FFB115"/>
							<stop  offset="1" style="stop-color:#FF6A3F"/>
						</linearGradient>
						<path class="st52" d="M257.7,139l-32.3,18.6c-0.8,0.5-1.5,1.6-1.5,2.5c0,0.9,0.7,1.3,1.5,0.8l32.3-18.6
							c0.8-0.5,1.4-1.6,1.4-2.5C259.1,138.9,258.5,138.6,257.7,139"/>
						<linearGradient id="SVGID_50_" gradientUnits="userSpaceOnUse" x1="224.0124" y1="164.9409" x2="233.3978" y2="164.9409">
							<stop  offset="0" style="stop-color:#FFB115"/>
							<stop  offset="1" style="stop-color:#FF6A3F"/>
						</linearGradient>
						<path class="st53" d="M231.9,161.4l-6.5,3.7c-0.8,0.5-1.5,1.6-1.5,2.5c0,0.9,0.7,1.3,1.5,0.8l6.5-3.7c0.8-0.5,1.5-1.6,1.5-2.5
							C233.4,161.3,232.7,160.9,231.9,161.4"/>
						<linearGradient id="SVGID_51_" gradientUnits="userSpaceOnUse" x1="235.3835" y1="160.0759" x2="238.8823" y2="160.0759">
							<stop  offset="0" style="stop-color:#FFB115"/>
							<stop  offset="1" style="stop-color:#FF6A3F"/>
						</linearGradient>
						<path class="st54" d="M237.4,158.2l-0.6,0.3c-0.8,0.5-1.4,1.6-1.4,2.5c0,0.9,0.6,1.3,1.5,0.8l0.6-0.3c0.8-0.5,1.4-1.6,1.4-2.5
							C238.9,158.1,238.2,157.8,237.4,158.2"/>
						<linearGradient id="SVGID_52_" gradientUnits="userSpaceOnUse" x1="213.5998" y1="183.7051" x2="218.8863" y2="183.7051">
							<stop  offset="0" style="stop-color:#FFB115"/>
							<stop  offset="1" style="stop-color:#FF6A3F"/>
						</linearGradient>
						<path class="st55" d="M216.2,180.7c-1.5,0.8-2.6,2.9-2.6,4.6c0,1.7,1.2,2.4,2.7,1.5c1.5-0.8,2.6-2.9,2.6-4.6
							C218.9,180.5,217.7,179.8,216.2,180.7"/>
						<linearGradient id="SVGID_53_" gradientUnits="userSpaceOnUse" x1="224.0451" y1="169.0508" x2="259.2055" y2="169.0508">
							<stop  offset="0" style="stop-color:#FFB115"/>
							<stop  offset="1" style="stop-color:#FF6A3F"/>
						</linearGradient>
						<path class="st56" d="M257.8,158.1l-32.3,18.6c-0.8,0.5-1.5,1.6-1.5,2.5c0,0.9,0.7,1.3,1.5,0.8l32.3-18.6
							c0.8-0.5,1.4-1.6,1.4-2.5C259.2,158,258.5,157.6,257.8,158.1"/>
						<linearGradient id="SVGID_54_" gradientUnits="userSpaceOnUse" x1="224.0664" y1="176.5524" x2="259.2267" y2="176.5524">
							<stop  offset="0" style="stop-color:#FFB115"/>
							<stop  offset="1" style="stop-color:#FF6A3F"/>
						</linearGradient>
						<path class="st57" d="M257.8,165.6l-32.3,18.6c-0.8,0.5-1.5,1.6-1.5,2.5c0,0.9,0.7,1.3,1.5,0.8l32.3-18.6
							c0.8-0.5,1.4-1.6,1.4-2.5C259.2,165.5,258.6,165.1,257.8,165.6"/>
						<linearGradient id="SVGID_55_" gradientUnits="userSpaceOnUse" x1="224.0877" y1="191.4951" x2="233.4731" y2="191.4951">
							<stop  offset="0" style="stop-color:#FFB115"/>
							<stop  offset="1" style="stop-color:#FF6A3F"/>
						</linearGradient>
						<path class="st58" d="M232,188l-6.5,3.7c-0.8,0.5-1.5,1.6-1.5,2.5c0,0.9,0.7,1.3,1.5,0.8l6.5-3.7c0.8-0.5,1.5-1.6,1.5-2.5
							C233.5,187.9,232.8,187.5,232,188"/>
						<linearGradient id="SVGID_56_" gradientUnits="userSpaceOnUse" x1="235.4588" y1="186.6301" x2="238.9575" y2="186.6301">
							<stop  offset="0" style="stop-color:#FFB115"/>
							<stop  offset="1" style="stop-color:#FF6A3F"/>
						</linearGradient>
						<path class="st59" d="M237.5,184.8l-0.6,0.3c-0.8,0.5-1.4,1.6-1.4,2.5c0,0.9,0.6,1.3,1.5,0.8l0.6-0.3c0.8-0.5,1.4-1.6,1.4-2.5
							C239,184.7,238.3,184.3,237.5,184.8"/>
						<linearGradient id="SVGID_57_" gradientUnits="userSpaceOnUse" x1="213.6751" y1="210.2624" x2="218.9616" y2="210.2624">
							<stop  offset="0" style="stop-color:#FFB115"/>
							<stop  offset="1" style="stop-color:#FF6A3F"/>
						</linearGradient>
						<path class="st60" d="M216.3,207.2c-1.5,0.8-2.6,2.9-2.6,4.6c0,1.7,1.2,2.4,2.7,1.5c1.5-0.8,2.6-2.9,2.6-4.6
							C219,207.1,217.8,206.4,216.3,207.2"/>
						<linearGradient id="SVGID_58_" gradientUnits="userSpaceOnUse" x1="224.1204" y1="195.6052" x2="259.2807" y2="195.6052">
							<stop  offset="0" style="stop-color:#FFB115"/>
							<stop  offset="1" style="stop-color:#FF6A3F"/>
						</linearGradient>
						<path class="st61" d="M257.8,184.6l-32.3,18.6c-0.8,0.5-1.5,1.6-1.5,2.5c0,0.9,0.7,1.3,1.5,0.8l32.3-18.6
							c0.8-0.5,1.4-1.6,1.4-2.5C259.3,184.5,258.6,184.2,257.8,184.6"/>
						<linearGradient id="SVGID_59_" gradientUnits="userSpaceOnUse" x1="224.1417" y1="203.1066" x2="259.302" y2="203.1066">
							<stop  offset="0" style="stop-color:#FFB115"/>
							<stop  offset="1" style="stop-color:#FF6A3F"/>
						</linearGradient>
						<path class="st62" d="M257.8,192.1l-32.3,18.6c-0.8,0.5-1.5,1.6-1.5,2.5c0,0.9,0.7,1.3,1.5,0.8l32.3-18.6
							c0.8-0.5,1.4-1.6,1.4-2.5C259.3,192,258.6,191.7,257.8,192.1"/>
						<linearGradient id="SVGID_60_" gradientUnits="userSpaceOnUse" x1="224.163" y1="218.0502" x2="233.5484" y2="218.0502">
							<stop  offset="0" style="stop-color:#FFB115"/>
							<stop  offset="1" style="stop-color:#FF6A3F"/>
						</linearGradient>
						<path class="st63" d="M232.1,214.5l-6.5,3.7c-0.8,0.5-1.5,1.6-1.5,2.5c0,0.9,0.7,1.3,1.5,0.8l6.5-3.7c0.8-0.5,1.5-1.6,1.5-2.5
							C233.5,214.4,232.9,214,232.1,214.5"/>
						<linearGradient id="SVGID_61_" gradientUnits="userSpaceOnUse" x1="235.534" y1="213.1852" x2="239.0328" y2="213.1852">
							<stop  offset="0" style="stop-color:#FFB115"/>
							<stop  offset="1" style="stop-color:#FF6A3F"/>
						</linearGradient>
						<path class="st64" d="M237.6,211.3l-0.6,0.3c-0.8,0.5-1.4,1.6-1.4,2.5c0,0.9,0.6,1.3,1.5,0.8l0.6-0.3c0.8-0.5,1.4-1.6,1.4-2.5
							C239,211.3,238.4,210.9,237.6,211.3"/>
					</g>
				</g>
			</g>
			<g>
				<g>
					<g class="st2">
						<g>
							<linearGradient id="SVGID_62_" gradientUnits="userSpaceOnUse" x1="324.9044" y1="288.4255" x2="354.2899" y2="288.4255">
								<stop  offset="0" style="stop-color:#FFB115"/>
								<stop  offset="1" style="stop-color:#FF6A3F"/>
							</linearGradient>
							<polygon class="st65" points="324.9,295.3 354.3,278.2 354.3,281.6 324.9,298.7 							"/>
						</g>
						<g>
							<linearGradient id="SVGID_63_" gradientUnits="userSpaceOnUse" x1="292.6803" y1="269.8888" x2="324.9141" y2="269.8888">
								<stop  offset="0" style="stop-color:#FFB115"/>
								<stop  offset="1" style="stop-color:#FF6A3F"/>
							</linearGradient>
							<path class="st66" d="M303,241.1l2.7,2.8l-9.5,21.5c-1.1,2.4-0.8,5.9,0.8,9.5c1.6,3.6,4.1,6.6,6.9,8.2l20.9,12.1l0,3.4
								L304,286.6c-3.8-2.2-7.3-6.3-9.4-11.1c-2.1-4.8-2.5-9.6-1.1-12.8L303,241.1z"/>
						</g>
						<g>
							<polygon class="st67" points="303,241.1 332.3,224 335.1,226.9 305.7,244 							"/>
						</g>
						<linearGradient id="SVGID_64_" gradientUnits="userSpaceOnUse" x1="295.6248" y1="261.0779" x2="354.2899" y2="261.0779">
							<stop  offset="0" style="stop-color:#FFB115"/>
							<stop  offset="1" style="stop-color:#FF6A3F"/>
						</linearGradient>
						<path class="st68" d="M333.4,266.1c-0.3-0.2-0.7-0.4-1-0.7c0,0,0,0-0.1,0c-0.3-0.2-0.6-0.5-1-0.8c0,0,0,0-0.1-0.1
							c-0.3-0.3-0.6-0.6-0.9-0.9c0,0,0,0,0,0c-0.3-0.3-0.6-0.6-0.9-1c0,0,0,0,0,0c-0.3-0.3-0.5-0.7-0.8-1c0-0.1-0.1-0.1-0.1-0.2
							c-0.2-0.2-0.3-0.5-0.5-0.8c-0.1-0.2-0.2-0.3-0.3-0.5c-0.2-0.3-0.4-0.7-0.6-1c0,0,0,0,0-0.1c-0.2-0.4-0.4-0.8-0.6-1.3
							c-0.2-0.4-0.4-0.9-0.5-1.3c0,0,0,0,0-0.1c-0.1-0.4-0.3-0.8-0.4-1.3c0,0,0,0,0-0.1c-0.1-0.4-0.2-0.8-0.3-1.2c0,0,0,0,0-0.1
							c-0.1-0.4-0.1-0.8-0.2-1.2c0,0,0,0,0-0.1c0-0.4,0-0.8,0-1.1c0,0,0,0,0-0.1c0-0.4,0-0.7,0.1-1.1c0,0,0,0,0,0
							c0-0.3,0.1-0.7,0.2-1c0,0,0-0.1,0-0.1c0.1-0.3,0.2-0.6,0.3-0.9l9.5-21.5L305.7,244l-9.5,21.5c0,0.1-0.1,0.2-0.1,0.3
							c-0.1,0.2-0.1,0.3-0.2,0.5c0,0,0,0.1,0,0.1c0,0,0,0.1,0,0.1c0,0.1,0,0.2-0.1,0.2c0,0.1-0.1,0.3-0.1,0.4c0,0.1,0,0.2,0,0.3
							c0,0,0,0,0,0c0,0,0,0,0,0.1c0,0.1,0,0.3,0,0.4c0,0.1,0,0.3,0,0.4c0,0.1,0,0.2,0,0.2c0,0,0,0,0,0.1c0,0,0,0.1,0,0.1
							c0,0.1,0,0.3,0,0.4c0,0.1,0,0.3,0,0.4c0,0.1,0,0.2,0,0.2c0,0,0,0,0,0.1c0,0,0,0.1,0,0.1c0,0.1,0,0.3,0,0.4
							c0,0.1,0,0.3,0.1,0.4c0,0.1,0,0.2,0,0.3c0,0,0,0,0,0.1c0,0,0,0.1,0,0.1c0,0.1,0.1,0.3,0.1,0.4c0,0.1,0.1,0.3,0.1,0.4
							c0,0.1,0,0.2,0.1,0.3c0,0,0,0,0,0.1c0,0,0,0.1,0,0.1c0,0.1,0.1,0.3,0.1,0.4c0,0.1,0.1,0.3,0.1,0.4c0,0.1,0.1,0.2,0.1,0.3
							c0,0,0,0,0,0.1c0,0,0,0.1,0,0.1c0.1,0.1,0.1,0.3,0.2,0.4c0.1,0.1,0.1,0.3,0.2,0.4c0,0.1,0.1,0.2,0.1,0.4c0,0,0,0,0,0.1
							c0.1,0.1,0.1,0.3,0.2,0.4c0.1,0.2,0.1,0.3,0.2,0.4c0.1,0.1,0.1,0.2,0.2,0.3c0,0,0,0,0,0.1c0,0,0,0.1,0,0.1
							c0.1,0.2,0.3,0.5,0.4,0.7c0,0.1,0.1,0.2,0.1,0.2c0.1,0.2,0.2,0.3,0.3,0.5c0.1,0.1,0.2,0.3,0.2,0.4c0.1,0.1,0.2,0.3,0.3,0.4
							c0,0.1,0.1,0.1,0.1,0.2c0,0,0.1,0.1,0.1,0.1c0.1,0.2,0.2,0.3,0.3,0.4c0.1,0.1,0.2,0.3,0.3,0.4c0,0,0,0,0,0.1c0,0,0,0,0,0
							c0.1,0.1,0.2,0.2,0.2,0.3c0.1,0.1,0.2,0.2,0.3,0.4c0.1,0.1,0.2,0.2,0.3,0.4c0,0,0,0,0,0c0,0,0,0,0,0c0.1,0.1,0.2,0.2,0.3,0.3
							c0.1,0.1,0.2,0.2,0.4,0.3c0.1,0.1,0.1,0.1,0.2,0.2c0,0,0,0,0.1,0.1c0,0,0.1,0.1,0.1,0.1c0.1,0.1,0.2,0.2,0.4,0.3
							c0.1,0.1,0.2,0.2,0.4,0.3c0,0,0.1,0.1,0.1,0.1c0,0,0,0,0.1,0c0.1,0,0.1,0.1,0.2,0.1c0.1,0.1,0.2,0.2,0.4,0.2
							c0.1,0.1,0.2,0.2,0.4,0.2c0,0,0.1,0,0.1,0l20.9,12.1l29.4-17.1L333.4,266.1z"/>
					</g>
					<g class="st2">
						<g class="st2">
							<path class="st69" d="M399.4,78.5l-2.9-1.7c0.2-0.1,0.5-0.2,0.7-0.3l2.9,1.7C399.9,78.3,399.6,78.4,399.4,78.5"/>
							<path class="st70" d="M400.1,78.2l-2.9-1.7c0.2-0.1,0.4-0.1,0.6-0.2l2.9,1.7C400.5,78,400.3,78.1,400.1,78.2"/>
							<path class="st71" d="M400.7,78l-2.9-1.7c0.1,0,0.3-0.1,0.4-0.1l2.9,1.7C401,77.9,400.8,77.9,400.7,78"/>
							<path class="st72" d="M401.1,77.9l-2.9-1.7c0.1,0,0.2,0,0.4,0l2.9,1.7C401.3,77.8,401.2,77.8,401.1,77.9"/>
							<path class="st73" d="M401.5,77.8l-2.9-1.7c0.1,0,0.2,0,0.3,0l2.9,1.7C401.7,77.8,401.6,77.8,401.5,77.8"/>
							<path class="st74" d="M401.8,77.8l-2.9-1.7c0.1,0,0.2,0,0.3,0l2.9,1.7C402,77.9,401.9,77.8,401.8,77.8"/>
							<path class="st75" d="M402.1,77.9l-2.9-1.7c0.1,0,0.2,0,0.3,0.1l2.9,1.7C402.3,77.9,402.2,77.9,402.1,77.9"/>
							<path class="st76" d="M402.4,77.9l-2.9-1.7c0.1,0,0.2,0.1,0.3,0.1l2.9,1.7C402.5,78,402.5,78,402.4,77.9"/>
							<path class="st77" d="M402.6,78l-2.9-1.7c0.1,0,0.2,0.1,0.2,0.1l2.9,1.7C402.8,78.1,402.7,78.1,402.6,78"/>
							<path class="st78" d="M402.9,78.1l-2.9-1.7c0,0,0,0,0,0L402.9,78.1C402.9,78.2,402.9,78.1,402.9,78.1"/>
						</g>
						<g>
							<path class="st79" d="M257.3,268.9l147.3-85.1l0,12.5c0,3.1-2.2,6.9-4.9,8.5l-137.5,79.4c-2.7,1.6-4.9,0.3-4.9-2.8
								L257.3,268.9z"/>
						</g>
						<g>
							<polygon class="st80" points="257.3,268.9 254.3,267.2 401.7,182.1 404.6,183.8 							"/>
						</g>
						<path class="st81" d="M257.3,281.3l0-12.5l-2.9-1.7l0,12.5c0,0.6,0.1,1.1,0.2,1.5c0.2,0.7,0.7,1.3,1.2,1.6l2.9,1.7
							C257.9,284,257.3,282.9,257.3,281.3z"/>
						<g>
							<path class="st79" d="M399.4,78.5c2.7-1.6,4.9-0.3,4.9,2.8l0.3,102.5l-147.3,85.1L257,166.4c0-3.1,2.2-6.9,4.9-8.5
								L399.4,78.5z"/>
						</g>
						<path class="st81" d="M400,76.5c-0.9-0.5-2.1-0.4-3.5,0.3L259,156.2c-0.3,0.2-0.5,0.3-0.8,0.5c0,0-0.1,0.1-0.1,0.1
							c-0.2,0.2-0.5,0.4-0.7,0.6c0,0,0,0-0.1,0.1c0,0-0.1,0.1-0.1,0.1c-0.1,0.1-0.2,0.2-0.3,0.3c0,0-0.1,0.1-0.1,0.1
							c0,0-0.1,0.1-0.1,0.1c-0.1,0.1-0.1,0.2-0.2,0.2c0,0.1-0.1,0.1-0.1,0.2c0,0-0.1,0.1-0.1,0.1c0,0.1-0.1,0.1-0.1,0.2
							c0,0-0.1,0.1-0.1,0.1c-0.1,0.1-0.1,0.1-0.2,0.2c0,0-0.1,0.1-0.1,0.1c0,0,0,0,0,0.1c-0.1,0.1-0.2,0.3-0.3,0.4c0,0,0,0,0,0
							c0,0,0,0.1,0,0.1c-0.1,0.1-0.1,0.2-0.2,0.3c0,0,0,0.1-0.1,0.1c0,0,0,0.1-0.1,0.1c0,0,0,0.1-0.1,0.1c-0.1,0.1-0.1,0.2-0.2,0.4
							c0,0,0,0,0,0.1c0,0,0,0,0,0c-0.1,0.1-0.1,0.3-0.2,0.4c0,0,0,0.1,0,0.1c0,0.1,0,0.1-0.1,0.2c0,0.1-0.1,0.1-0.1,0.2
							c0,0.1,0,0.1-0.1,0.2c0,0.1,0,0.1-0.1,0.2c0,0,0,0.1,0,0.1c0,0.1,0,0.2-0.1,0.2c0,0.1,0,0.2-0.1,0.3c0,0,0,0.1,0,0.1
							c0,0.1,0,0.1,0,0.2c0,0.1,0,0.3-0.1,0.4c0,0,0,0.1,0,0.1c0,0,0,0.1,0,0.1c0,0.3-0.1,0.6-0.1,0.9l0.3,102.5l2.9,1.7L257,166.4
							c0-0.3,0-0.6,0.1-0.9c0-0.1,0-0.1,0-0.2c0-0.1,0-0.3,0.1-0.4c0-0.1,0-0.2,0.1-0.3c0-0.1,0-0.2,0.1-0.3c0-0.1,0.1-0.2,0.1-0.4
							c0-0.1,0-0.1,0.1-0.2c0-0.1,0.1-0.3,0.1-0.4c0-0.1,0-0.1,0.1-0.2c0.1-0.2,0.1-0.4,0.2-0.5c0,0,0,0,0-0.1
							c0.1-0.2,0.1-0.3,0.2-0.5c0,0,0-0.1,0.1-0.1c0.1-0.1,0.2-0.3,0.2-0.4c0,0,0-0.1,0-0.1c0.1-0.2,0.2-0.3,0.3-0.5
							c0,0,0.1-0.1,0.1-0.1c0.1-0.1,0.2-0.2,0.2-0.4c0-0.1,0.1-0.1,0.1-0.2c0.1-0.1,0.1-0.2,0.2-0.3c0.1-0.1,0.1-0.2,0.2-0.2
							c0.1-0.1,0.1-0.1,0.2-0.2c0.1-0.1,0.2-0.2,0.3-0.3c0.1-0.1,0.1-0.1,0.2-0.2c0.2-0.2,0.5-0.4,0.7-0.6c0,0,0.1-0.1,0.1-0.1
							c0.3-0.2,0.5-0.4,0.8-0.5l137.5-79.4c1.4-0.8,2.6-0.9,3.5-0.3L400,76.5z"/>
						<g>
							<path class="st82" d="M330.7,231.6c1.9-1.1,3.5-0.2,3.5,2c0,2.2-1.5,4.9-3.4,6c-1.9,1.1-3.5,0.2-3.5-2
								C327.3,235.4,328.8,232.7,330.7,231.6z"/>
						</g>
						<g>
							<linearGradient id="SVGID_65_" gradientUnits="userSpaceOnUse" x1="263.4055" y1="171.1399" x2="398.2011" y2="171.1399">
								<stop  offset="0" style="stop-color:#FFB115"/>
								<stop  offset="1" style="stop-color:#FF6A3F"/>
							</linearGradient>
							<polygon class="st83" points="397.9,86.7 398.2,177.9 263.7,255.6 263.4,164.4 							"/>
						</g>
					</g>
				</g>
				<g>
					<g class="st2">
						<g>
							<path class="st8" d="M355.5,185.3l0.5-3.5l-2.1-1.1l2.8-2.1l1.3-3.7l1.3,2.2l2.8-1.2l-2.1,3.5l0.5,3l-2.5-0.1L355.5,185.3
								 M366.2,179.1l0.5-3.5l-2.1-1.1l2.8-2.1l1.3-3.7l1.3,2.2l2.8-1.2l-2,3.5l0.5,3l-2.6-0.1L366.2,179.1 M376.9,172.9l0.5-3.5
								l-2.1-1.1l2.8-2.1l1.3-3.7l1.3,2.2l2.8-1.2l-2,3.5l0.5,3l-2.6-0.1L376.9,172.9 M387.6,166.7l0.5-3.5l-2.1-1.1l2.8-2.1
								l1.3-3.7l1.3,2.2l2.8-1.2l-2.1,3.5l0.5,3l-2.5-0.1L387.6,166.7 M398.3,160.5l0.5-3.5l-2.1-1.1l2.8-2.1l1.3-3.7l1.3,2.2
								l2.8-1.2l-2,3.5l0.5,3l-2.6-0.1L398.3,160.5 M408,139.7l-57.2,33c-1.4,0.8-2.5,2.7-2.5,4.3l0,16.6c0,1.6,1.1,2.2,2.5,1.4
								l57.2-33c1.4-0.8,2.5-2.7,2.5-4.3l0-16.6C410.6,139.5,409.4,138.9,408,139.7"/>
							<polyline class="st84" points="358.1,174.8 356.8,178.5 354,180.6 356,181.7 355.5,185.3 358.1,182.3 360.6,182.3 
								360.1,179.3 362.2,175.9 359.3,177 358.1,174.8 							"/>
							<polyline class="st84" points="368.8,168.6 367.5,172.3 364.7,174.4 366.7,175.5 366.2,179.1 368.8,176.1 371.3,176.1 
								370.8,173.2 372.9,169.7 370,170.8 368.8,168.6 							"/>
							<polyline class="st84" points="379.5,162.4 378.2,166.1 375.4,168.3 377.4,169.4 376.9,172.9 379.5,169.9 382,170 381.5,167 
								383.6,163.5 380.7,164.7 379.5,162.4 							"/>
							<polyline class="st84" points="390.2,156.3 388.9,160 386.1,162.1 388.1,163.2 387.6,166.7 390.2,163.7 392.7,163.8 
								392.2,160.8 394.3,157.3 391.4,158.5 390.2,156.3 							"/>
							<polyline class="st85" points="400.9,150.1 399.6,153.8 396.8,155.9 398.8,157 398.3,160.5 400.9,157.5 403.4,157.6 
								402.9,154.6 405,151.1 402.1,152.3 400.9,150.1 							"/>
						</g>
					</g>
				</g>
				<g>
					<path class="st8" d="M328.3,141.6l-49.7,28.7c-1.3,0.7-2.3,2.6-2.3,4l0.2,58.8c0,1.5,1.1,2.1,2.3,1.3l49.7-28.7
						c1.3-0.7,2.3-2.6,2.3-4.1l-0.2-58.8C330.7,141.4,329.6,140.9,328.3,141.6"/>
					<g>
						<path class="st86" d="M284.2,223.8c-0.5,0.3-0.9,0.1-0.9-0.5c0-0.6,0.4-1.3,0.9-1.6l4-2.3c0.5-0.3,0.9-0.1,0.9,0.5
							c0,0.6-0.4,1.3-0.9,1.6L284.2,223.8"/>
						<path class="st86" d="M291.3,219.8c-0.5,0.3-0.9,0.1-0.9-0.5c0-0.6,0.4-1.3,0.9-1.6l0.4-0.2c0.5-0.3,0.9-0.1,0.9,0.5
							c0,0.6-0.4,1.3-0.9,1.6L291.3,219.8"/>
						<path class="st86" d="M284.2,219.2c-0.5,0.3-0.9,0.1-0.9-0.5c0-0.6,0.4-1.3,0.9-1.6l11.1-6.4c0.5-0.3,0.9-0.1,0.9,0.5
							c0,0.6-0.4,1.3-0.9,1.6L284.2,219.2"/>
						<path class="st86" d="M298.5,211c-0.5,0.3-0.9,0.1-0.9-0.5c0-0.6,0.4-1.3,0.9-1.6l8.1-4.7c0.5-0.3,0.9-0.1,0.9,0.5
							c0,0.6-0.4,1.3-0.9,1.6L298.5,211"/>
						<path class="st86" d="M309.8,204.4c-0.5,0.3-0.9,0.1-0.9-0.5c0-0.6,0.4-1.3,0.9-1.6l13.3-7.7c0.5-0.3,0.9-0.1,0.9,0.5
							c0,0.6-0.4,1.3-0.9,1.6L309.8,204.4"/>
						<path class="st86" d="M284.2,214.5c-0.5,0.3-0.9,0.1-0.9-0.5c0-0.6,0.4-1.3,0.9-1.6l28.1-16.2c0.5-0.3,0.9-0.1,0.9,0.5
							c0,0.6-0.4,1.3-0.9,1.6L284.2,214.5"/>
						<path class="st86" d="M284.2,205.3c-0.5,0.3-0.9,0.1-0.9-0.5c0-0.6,0.4-1.3,0.9-1.6l4-2.3c0.5-0.3,0.9-0.1,0.9,0.5
							c0,0.6-0.4,1.3-0.9,1.6L284.2,205.3"/>
						<path class="st86" d="M291.2,201.2c-0.5,0.3-0.9,0.1-0.9-0.5c0-0.6,0.4-1.3,0.9-1.6l0.4-0.2c0.5-0.3,0.9-0.1,0.9,0.5
							c0,0.6-0.4,1.3-0.9,1.6L291.2,201.2"/>
						<path class="st86" d="M284.2,200.6c-0.5,0.3-0.9,0.1-0.9-0.5c0-0.6,0.4-1.3,0.9-1.6l38.8-22.4c0.5-0.3,0.9-0.1,0.9,0.5
							c0,0.6-0.4,1.3-0.9,1.6L284.2,200.6"/>
						<path class="st86" d="M284.1,196c-0.5,0.3-0.9,0.1-0.9-0.5c0-0.6,0.4-1.3,0.9-1.6l13-7.5c0.5-0.3,0.9-0.1,0.9,0.5
							c0,0.6-0.4,1.3-0.9,1.6L284.1,196"/>
						<path class="st86" d="M300.7,186.4c-0.5,0.3-0.9,0.1-0.9-0.5c0-0.6,0.4-1.3,0.9-1.6l22.3-12.9c0.5-0.3,0.9-0.1,0.9,0.5
							c0,0.6-0.4,1.3-0.9,1.6L300.7,186.4"/>
						<path class="st86" d="M284.1,186.7c-0.5,0.3-0.9,0.1-0.9-0.5c0-0.6,0.4-1.3,0.9-1.6l4-2.3c0.5-0.3,0.9-0.1,0.9,0.5
							c0,0.6-0.4,1.3-0.9,1.6L284.1,186.7"/>
						<path class="st86" d="M291.1,182.6c-0.5,0.3-0.9,0.1-0.9-0.5c0-0.6,0.4-1.3,0.9-1.6l0.4-0.2c0.5-0.3,0.9-0.1,0.9,0.5
							c0,0.6-0.4,1.3-0.9,1.6L291.1,182.6"/>
						<path class="st86" d="M284.1,182.1c-0.5,0.3-0.9,0.1-0.9-0.5c0-0.6,0.4-1.3,0.9-1.6l22.1-12.8c0.5-0.3,0.9-0.1,0.9,0.5
							c0,0.6-0.4,1.3-0.9,1.6L284.1,182.1"/>
						<path class="st86" d="M309.5,167.4c-0.5,0.3-0.9,0.1-0.9-0.5c0-0.6,0.4-1.3,0.9-1.6l13.4-7.7c0.5-0.3,0.9-0.1,0.9,0.5
							c0,0.6-0.4,1.3-0.9,1.6L309.5,167.4"/>
						<path class="st86" d="M284.1,177.4c-0.5,0.3-0.9,0.1-0.9-0.5c0-0.6,0.4-1.3,0.9-1.6l38.8-22.4c0.5-0.3,0.9-0.1,0.9,0.5
							c0,0.6-0.4,1.3-0.9,1.6L284.1,177.4"/>
					</g>
				</g>
			</g>
			<g>
				<g>
					<g class="st2">
						<g>
							<linearGradient id="SVGID_66_" gradientUnits="userSpaceOnUse" x1="398.1436" y1="253.6724" x2="447.5344" y2="253.6724">
								<stop  offset="0" style="stop-color:#FFB115"/>
								<stop  offset="1" style="stop-color:#FF6A3F"/>
							</linearGradient>
							<polygon class="st87" points="447.5,277.7 398.2,249.1 398.1,229.6 447.5,258.3 							"/>
						</g>
						<g>
							<linearGradient id="SVGID_67_" gradientUnits="userSpaceOnUse" x1="447.4793" y1="256.9986" x2="471.5535" y2="256.9986">
								<stop  offset="0" style="stop-color:#FFB115"/>
								<stop  offset="1" style="stop-color:#FF6A3F"/>
							</linearGradient>
							<path class="st88" d="M471.5,236.3l0.1,27.6l-24,13.9l-0.1-19.4c2.8-4.8,4.3-7.5,7.1-12.2L471.5,236.3z"/>
						</g>
						<g class="st2">
							<defs>
								<path id="SVGID_68_" class="st2" d="M447.5,258.3l-49.3-28.7c2.8-4.8,4.3-7.5,7.1-12.2l49.3,28.7
									C451.8,250.8,450.2,253.5,447.5,258.3z"/>
							</defs>
							<clipPath id="SVGID_69_">
								<use xlink:href="#SVGID_68_"  style="overflow:visible;"/>
							</clipPath>
							<g class="st89">
								<linearGradient id="SVGID_70_" gradientUnits="userSpaceOnUse" x1="398.1436" y1="237.8248" x2="454.5495" y2="237.8248">
									<stop  offset="0" style="stop-color:#FFCA3F"/>
									<stop  offset="1" style="stop-color:#6A0800"/>
								</linearGradient>
								<path class="st90" d="M447.5,258.3l-49.3-28.7c2.8-4.8,4.3-7.5,7.1-12.2l49.3,28.7C451.8,250.8,450.2,253.5,447.5,258.3"/>
							</g>
						</g>
						<g>
							<linearGradient id="SVGID_71_" gradientUnits="userSpaceOnUse" x1="445.8264" y1="215.2774" x2="421.1978" y2="253.2588">
								<stop  offset="0" style="stop-color:#FFB115"/>
								<stop  offset="1" style="stop-color:#FF6A3F"/>
							</linearGradient>
							<polygon class="st91" points="454.5,246 405.2,217.4 422.1,207.6 471.5,236.3 							"/>
						</g>
					</g>
				</g>
				<g class="st37">
					<g class="st2">
						<g>
							<linearGradient id="SVGID_72_" gradientUnits="userSpaceOnUse" x1="419.6177" y1="215.0245" x2="425.2561" y2="215.0245">
								<stop  offset="0" style="stop-color:#FFB115"/>
								<stop  offset="1" style="stop-color:#FF6A3F"/>
							</linearGradient>
							<polyline class="st92" points="425.3,215 422.4,213.4 419.6,215 422.4,216.7 425.3,215 							"/>
							<linearGradient id="SVGID_73_" gradientUnits="userSpaceOnUse" x1="424.2849" y1="217.7173" x2="429.9169" y2="217.7173">
								<stop  offset="0" style="stop-color:#FFB115"/>
								<stop  offset="1" style="stop-color:#FF6A3F"/>
							</linearGradient>
							<polyline class="st93" points="429.9,217.7 427.1,216.1 424.3,217.7 427.1,219.3 429.9,217.7 							"/>
							<linearGradient id="SVGID_74_" gradientUnits="userSpaceOnUse" x1="428.9457" y1="220.41" x2="434.5841" y2="220.41">
								<stop  offset="0" style="stop-color:#FFB115"/>
								<stop  offset="1" style="stop-color:#FF6A3F"/>
							</linearGradient>
							<polyline class="st94" points="434.6,220.4 431.8,218.8 428.9,220.4 431.8,222 434.6,220.4 							"/>
							<linearGradient id="SVGID_75_" gradientUnits="userSpaceOnUse" x1="433.6065" y1="223.1009" x2="439.2449" y2="223.1009">
								<stop  offset="0" style="stop-color:#FFB115"/>
								<stop  offset="1" style="stop-color:#FF6A3F"/>
							</linearGradient>
							<polyline class="st95" points="439.2,223.1 436.4,221.5 433.6,223.1 436.4,224.7 439.2,223.1 							"/>
							<linearGradient id="SVGID_76_" gradientUnits="userSpaceOnUse" x1="438.2737" y1="225.7937" x2="443.9057" y2="225.7937">
								<stop  offset="0" style="stop-color:#FFB115"/>
								<stop  offset="1" style="stop-color:#FF6A3F"/>
							</linearGradient>
							<polyline class="st96" points="443.9,225.8 441.1,224.2 438.3,225.8 441.1,227.4 443.9,225.8 							"/>
							<linearGradient id="SVGID_77_" gradientUnits="userSpaceOnUse" x1="442.9345" y1="228.4865" x2="448.5729" y2="228.4865">
								<stop  offset="0" style="stop-color:#FFB115"/>
								<stop  offset="1" style="stop-color:#FF6A3F"/>
							</linearGradient>
							<polyline class="st97" points="448.6,228.5 445.7,226.9 442.9,228.5 445.8,230.1 448.6,228.5 							"/>
							<linearGradient id="SVGID_78_" gradientUnits="userSpaceOnUse" x1="414.9935" y1="221.7906" x2="434.4812" y2="221.7906">
								<stop  offset="0" style="stop-color:#FFB115"/>
								<stop  offset="1" style="stop-color:#FF6A3F"/>
							</linearGradient>
							<polyline class="st98" points="434.5,225.9 417.7,216.2 415,217.7 431.8,227.4 434.5,225.9 							"/>
							<linearGradient id="SVGID_79_" gradientUnits="userSpaceOnUse" x1="434.411" y1="228.5176" x2="438.394" y2="228.5176">
								<stop  offset="0" style="stop-color:#FFB115"/>
								<stop  offset="1" style="stop-color:#FF6A3F"/>
							</linearGradient>
							<path class="st99" d="M437.8,227.7c-0.8-0.4-2-0.4-2.8,0c-0.8,0.5-0.8,1.2,0,1.6c0.8,0.4,2,0.4,2.8,0
								C438.6,228.9,438.6,228.2,437.8,227.7"/>
							<linearGradient id="SVGID_80_" gradientUnits="userSpaceOnUse" x1="439.0718" y1="231.2094" x2="443.058" y2="231.2094">
								<stop  offset="0" style="stop-color:#FFB115"/>
								<stop  offset="1" style="stop-color:#FF6A3F"/>
							</linearGradient>
							<path class="st100" d="M442.5,230.4c-0.8-0.4-2-0.4-2.8,0c-0.8,0.5-0.8,1.2,0,1.6c0.8,0.4,2,0.5,2.8,0
								C443.3,231.6,443.2,230.8,442.5,230.4"/>
						</g>
					</g>
				</g>
				<linearGradient id="SVGID_81_" gradientUnits="userSpaceOnUse" x1="401.6882" y1="256.8501" x2="442.7055" y2="256.8501">
					<stop  offset="0" style="stop-color:#AA3800"/>
					<stop  offset="1" style="stop-color:#AA5E00"/>
				</linearGradient>
				<path class="st101" d="M403.4,243.6c-0.9-0.5-1.7-0.1-1.7,0.9l0,0.9c0,1,0.7,2.3,1.6,2.8l37.7,21.8c0.9,0.5,1.7,0.1,1.7-0.9
					l0-0.9c0-1-0.7-2.3-1.6-2.9L403.4,243.6"/>
			</g>
			<g>
				<g>
					<g class="st2">
						<g>
							<linearGradient id="SVGID_82_" gradientUnits="userSpaceOnUse" x1="452.8536" y1="285.5672" x2="502.2444" y2="285.5672">
								<stop  offset="0" style="stop-color:#FFB115"/>
								<stop  offset="1" style="stop-color:#FF6A3F"/>
							</linearGradient>
							<polygon class="st102" points="502.2,309.6 452.9,281 452.9,261.5 502.2,290.2 							"/>
						</g>
						<g>
							<linearGradient id="SVGID_83_" gradientUnits="userSpaceOnUse" x1="502.1893" y1="288.8934" x2="526.2635" y2="288.8934">
								<stop  offset="0" style="stop-color:#FFB115"/>
								<stop  offset="1" style="stop-color:#FF6A3F"/>
							</linearGradient>
							<path class="st103" d="M526.2,268.2l0.1,27.6l-24,13.9l-0.1-19.4c2.8-4.8,4.3-7.5,7.1-12.2L526.2,268.2z"/>
						</g>
						<g class="st2">
							<defs>
								<path id="SVGID_84_" class="st2" d="M502.2,290.2l-49.3-28.7c2.8-4.8,4.3-7.5,7.1-12.2l49.3,28.7
									C506.5,282.7,504.9,285.4,502.2,290.2z"/>
							</defs>
							<linearGradient id="SVGID_85_" gradientUnits="userSpaceOnUse" x1="452.8536" y1="269.7196" x2="509.2595" y2="269.7196">
								<stop  offset="0" style="stop-color:#FFCA3F"/>
								<stop  offset="1" style="stop-color:#AA5E00"/>
							</linearGradient>
							<use xlink:href="#SVGID_84_"  style="overflow:visible;fill:url(#SVGID_85_);"/>
							<clipPath id="SVGID_86_">
								<use xlink:href="#SVGID_84_"  style="overflow:visible;"/>
							</clipPath>
							<g class="st104">
								<linearGradient id="SVGID_87_" gradientUnits="userSpaceOnUse" x1="452.8536" y1="269.7196" x2="509.2596" y2="269.7196">
									<stop  offset="0" style="stop-color:#FFCA3F"/>
									<stop  offset="1" style="stop-color:#6A0800"/>
								</linearGradient>
								<path class="st105" d="M502.2,290.2l-49.3-28.7c2.8-4.8,4.3-7.5,7.1-12.2l49.3,28.7C506.5,282.7,504.9,285.4,502.2,290.2"/>
							</g>
						</g>
						<g>
							<linearGradient id="SVGID_88_" gradientUnits="userSpaceOnUse" x1="498.9016" y1="249.6934" x2="474.273" y2="287.6748">
								<stop  offset="0" style="stop-color:#FFB115"/>
								<stop  offset="1" style="stop-color:#FF6A3F"/>
							</linearGradient>
							<polygon class="st106" points="509.3,277.9 459.9,249.3 476.8,239.5 526.2,268.2 							"/>
						</g>
					</g>
				</g>
				<g>
					<g class="st2">
						<g>
							<polyline class="st107" points="480,246.9 477.1,245.3 474.3,246.9 477.2,248.6 480,246.9 							"/>
							<polyline class="st107" points="484.6,249.6 481.8,248 479,249.6 481.8,251.2 484.6,249.6 							"/>
							<polyline class="st107" points="489.3,252.3 486.5,250.7 483.7,252.3 486.5,253.9 489.3,252.3 							"/>
							<polyline class="st107" points="494,255 491.1,253.4 488.3,255 491.1,256.6 494,255 							"/>
							<polyline class="st107" points="498.6,257.7 495.8,256.1 493,257.7 495.8,259.3 498.6,257.7 							"/>
							<polyline class="st107" points="503.3,260.4 500.5,258.7 497.6,260.4 500.5,262 503.3,260.4 							"/>
							<polyline class="st107" points="489.2,257.8 472.4,248.1 469.7,249.6 486.5,259.3 489.2,257.8 							"/>
							<path class="st107" d="M492.5,259.6c-0.8-0.4-2-0.4-2.8,0c-0.8,0.5-0.8,1.2,0,1.6c0.8,0.4,2,0.4,2.8,0
								C493.3,260.8,493.3,260,492.5,259.6"/>
							<path class="st107" d="M497.2,262.3c-0.8-0.4-2-0.4-2.8,0c-0.8,0.5-0.8,1.2,0,1.6s2,0.5,2.8,0
								C498,263.5,498,262.7,497.2,262.3"/>
						</g>
					</g>
				</g>
				<linearGradient id="SVGID_89_" gradientUnits="userSpaceOnUse" x1="456.3982" y1="288.7449" x2="497.4155" y2="288.7449">
					<stop  offset="0" style="stop-color:#AA3800"/>
					<stop  offset="1" style="stop-color:#AA5E00"/>
				</linearGradient>
				<path class="st108" d="M458.1,275.5c-0.9-0.5-1.7-0.1-1.7,0.9l0,0.9c0,1,0.7,2.3,1.6,2.8l37.7,21.8c0.9,0.5,1.7,0.1,1.7-0.9
					l0-0.9c0-1-0.7-2.3-1.6-2.9L458.1,275.5"/>
			</g>
			<g>
				<g>
					<g class="st109">
						<path class="st110" d="M405,271.9c-6,3.5-6,9.1-0.1,12.6c6,3.5,15.7,3.5,21.7,0c6-3.5,6.1-9.1,0.1-12.6
							C420.7,268.4,411,268.4,405,271.9z"/>
					</g>
					<g>
						<g>
							<linearGradient id="SVGID_90_" gradientUnits="userSpaceOnUse" x1="418.3476" y1="279.1668" x2="426.9609" y2="279.1668">
								<stop  offset="0" style="stop-color:#FFCA3F"/>
								<stop  offset="1" style="stop-color:#6A0800"/>
							</linearGradient>
							<path class="st111" d="M421.4,282.2c0,0,5.4-3.5,5.6-4.4c0.1-0.9-1.2-1.8-2.1-1.8c-0.9,0-4.8,0.4-4.8,0.4l-1.2,1.4
								C418.9,277.8,416.7,283.1,421.4,282.2z"/>
							<linearGradient id="SVGID_91_" gradientUnits="userSpaceOnUse" x1="406.4468" y1="274.7189" x2="415.0601" y2="274.7189">
								<stop  offset="0" style="stop-color:#FFCA3F"/>
								<stop  offset="1" style="stop-color:#6A0800"/>
							</linearGradient>
							<path class="st112" d="M409.5,277.7c0,0,5.4-3.5,5.6-4.4c0.1-0.9-1.2-1.8-2.1-1.8c-0.9,0-4.8,0.4-4.8,0.4l-1.2,1.4
								C407,273.4,404.8,278.6,409.5,277.7z"/>
							<path class="st113" d="M423.1,232.7l0.2,44.8c0,0-2.5,1.5-5.3-0.1c0,0-4.1-38.7-4.2-39.6c-0.1-0.8-1.7,35.3-1.7,35.3
								s-3.1,1.8-5.5-0.6l-1.8-42.8L423.1,232.7z"/>
							<path class="st114" d="M404.7,217.8c0.3-0.1,0.4-0.2,0.6-0.3c0.2-4.1,1.2-19.7,1.2-19.7c-1.5,0.5-2.6,1.1-3.5,5.2
								c-0.4,1.9-0.9,5.1-1.2,8.2C401.5,213.8,402.5,216.3,404.7,217.8C404.6,217.8,404.6,217.8,404.7,217.8z"/>
							<polygon class="st8" points="421.3,205.4 431.8,209 426.5,222.4 416.3,218.8 							"/>
							<path class="st114" d="M418.7,199.3c0,0,2.3,0.5,5.3,2.9l-0.8,30.5c0,0-3.9,2.8-11.7,0.8c-6.4-1.7-8.1-4.4-8.1-4.4
								s-0.6-14.6,0-20.8c0.6-6.2,3.1-10.4,3.1-10.4c1.4-0.4,4.5-0.2,4.5-0.2L418.7,199.3z"/>
							<path class="st115" d="M411.6,197.4l-0.2-6c0,0-1.5-0.1-1.2-1.8c0.3-1.6,1.8-0.6,2.1-0.1c0,0,0.3-5.7,3.3-6.2
								c3-0.5,4.2-0.1,4.3,1.3c0.1,1.5,0.2,6.6,0,8.5s0,2.9-2.7,2.8l-0.2,2c0,0-1.2,1.2-5.1,0.2L411.6,197.4z"/>
						</g>
					</g>
				</g>
				<path class="st107" d="M418.7,199.3c0-1.2-0.2-1.8-2.9-2.1c-2.7-0.3-4.9-1-5.2,0c-0.3,1,0.3,1.7,3,1.9
					C416.3,199.3,418.7,199.3,418.7,199.3z"/>
				<path class="st114" d="M423.9,202.2c1.2,0.5,1.8,15.1,1.8,15.1l3.5-3.2l2.7,1.7c0,0-3.9,12.5-8,9.6
					C419.8,222.5,418.1,199.9,423.9,202.2z"/>
				<path class="st115" d="M429.6,212.2c0.3-1.1-0.4-2.5,0.3-2.7c0.7-0.2,1.3,0.8,1.3,0.8s0.3-2.8,0.8-2.9c0.6,0,1,1.2,1,1.2
					s0.8,0.3,1.1,0.9c0.3,0.5,0.5,1.9,0.2,3.5c-0.4,1.6-2.2,2.8-2.2,2.8l-2.7-1.7C429.3,214.1,429.3,213.4,429.6,212.2z"/>
				<path class="st8" d="M416.7,189.1c-0.3-0.3-0.6-0.5-1-0.4c-0.5,0.1-0.7,0.7-0.5,1.2c0.1,0.2,1.1,1.4,1.2,1.3
					c-0.7,1.4-1.7,2.7-2.9,3.8c-0.2,0.2-0.5,0.4-0.8,0.5c-0.3,0.1-0.7,0.1-0.9-0.2c-2.3-2.6-3.5-6-2.7-9.4c0.1-0.6,0.3-1.2,0.7-1.7
					c0.4-0.5,1.1-0.7,1.7-0.5c1-2.8,7.2-1.9,8.3,0.3c1.4,2.6-1.4,3.3-1.9,5.3c-0.1,0.5-0.2,1.1-0.2,1.6
					C417.5,190.5,417.2,189.7,416.7,189.1z"/>
			</g>
			<g>
				<linearGradient id="SVGID_92_" gradientUnits="userSpaceOnUse" x1="578.7977" y1="324.6729" x2="600.0111" y2="324.6729">
					<stop  offset="0" style="stop-color:#FFCA3F"/>
					<stop  offset="1" style="stop-color:#6A0800"/>
				</linearGradient>
				<path class="st116" d="M594.4,305.5c-2.7-0.6-5.7,0.1-7.9,1.9c-2.2,1.8-3.4,4.6-3.3,7.4c0,1.2,0.3,2.5-0.3,3.5
					c-0.8,1.6-3.2,2.1-3.8,3.8c-0.6,1.8,1,3.5,1.4,5.4c0.4,1.9-0.5,3.8-1.2,5.7c-0.7,1.9-0.9,4.2,0.4,5.6c1.4,1.4,3.8,1.1,5.3,2.5
					c0.7,0.6,1,1.5,1.7,2c1.4,1.2,3.8,0.8,5.1-0.5c1.4-1.3,2-3.1,2.6-4.9c0.6-1.8,1.1-3.7,2.3-5.1c1-1.2,2.5-2.1,3-3.6
					c0.7-2.2-0.8-4.4-1.3-6.6c-0.5-2.4,0.3-4.8,0.8-7.2c0.5-2.2,0.5-4.7-0.4-6.8C598.3,306.8,596.1,305.9,594.4,305.5z"/>
				<g>
					<path class="st117" d="M600.8,398.1c5.9,3.4,5.9,8.9,0.1,12.2c-5.8,3.4-15.3,3.4-21.2,0c-5.9-3.4-5.9-8.9-0.1-12.3
						C585.4,394.7,594.9,394.7,600.8,398.1z"/>
				</g>
				<g>
					<path class="st115" d="M603.7,352.9c0,0,1.1,2.7,1.2,3.7c0.1,1-0.7,0.8-0.7,0.8s-0.7,0.5-1.3,1.2c-0.5,0.7-2.3-0.4-2.3-0.4
						l0.1-4.7L603.7,352.9z"/>
					<path class="st115" d="M596.7,323.1c2.6,0.6,2.9,1.9,3.7,4.4c0.8,2.5,1.8,14.3,1.8,14.3l1.5,11.1l-2.9,0.7l-3.3-10.6
						L596.7,323.1z"/>
					<g>
						<linearGradient id="SVGID_93_" gradientUnits="userSpaceOnUse" x1="582.3427" y1="403.5333" x2="589.0102" y2="403.5333">
							<stop  offset="0" style="stop-color:#FFCA3F"/>
							<stop  offset="1" style="stop-color:#6A0800"/>
						</linearGradient>
						<path class="st118" d="M583.4,399.8c-0.8,1.2-1.7,2.5-0.4,4.5c1.3,2,3.2,4,5.6,3.5c1.2-0.3-0.8-4.7-2.6-7.2
							C584.2,398,583.4,399.8,583.4,399.8z"/>
						<path class="st115" d="M582.2,374.4c0,0,0.6,23.4,0.7,26.2c0.1,2.1,2.9,4.5,4.1,4.3c1.6-0.3-1.1-4.3-1.1-4.3
							s1.9-18.2,2.3-21.4c0.4-3.2,0.6-5.5,0.6-5.5L582.2,374.4z"/>
						<linearGradient id="SVGID_94_" gradientUnits="userSpaceOnUse" x1="591.8936" y1="400.4032" x2="598.5611" y2="400.4032">
							<stop  offset="0" style="stop-color:#FFCA3F"/>
							<stop  offset="1" style="stop-color:#6A0800"/>
						</linearGradient>
						<path class="st119" d="M592.9,396.7c-0.8,1.2-1.7,2.5-0.4,4.5c1.3,2,3.2,4,5.6,3.5c1.2-0.3-0.8-4.7-2.6-7.2
							C593.7,394.9,592.9,396.7,592.9,396.7z"/>
						<path class="st115" d="M592.4,371.2c0,0,0,23.4,0.1,26.2c0.1,2.1,2.9,4.5,4.1,4.3c1.6-0.3-1.1-4.3-1.1-4.3s3.2-21.6,3.6-24.8
							c0.4-3.2-0.1-2.2-0.1-2.2L592.4,371.2z"/>
						<g>
							<path class="st113" d="M584.7,344.7c-4,6.1-4.8,12.3-3.9,18.9c0.9,6.6,1.4,10.8,1.4,10.8s8.6,3.5,16.9-1.8
								c0,0,1.9-10.3,2.1-17.3c0.2-7-2.7-10.7-2.7-10.7L584.7,344.7z"/>
						</g>
						<path class="st113" d="M586.5,323.2c0,0-3.7,0.9-4.3,1.5c0,0-0.3,8,1.1,12.6c1.5,4.6,1.3,7.4,1.3,7.4s3.2,5.1,13.9,0
							c0,0,1-6,1.6-8.9c0.6-2.9,1.7-3,0.2-6.4c-1.5-3.4-3.6-6.3-3.6-6.3c-1-0.4-3.1-0.4-3.1-0.4L586.5,323.2z"/>
						<path class="st115" d="M587.8,321.8l-0.1-6.2c0,0-1.5-0.1-1.2-1.7c0.3-1.6,1.8-0.5,2-0.1c0,0,0.4-5.5,3.3-6
							c2.9-0.5,5.7,0.1,5.8,1.6c0.1,1.4,0,5.8-0.8,8.3c-0.6,1.8-0.9,2.5-3.5,2.4l0.2,3.4c0,0-1.3,1-5.1,0L587.8,321.8z"/>
						<path class="st107" d="M593.2,321.1c0,0,0.5,0,0.7,0.1c0.2,0.1,1.3,1.2,1.3,2.4c0,1.2-0.5,2.5-0.5,2.5l-2.4-2.2l-1.5,2.9
							c0,0-0.9-0.2-2.2-1.2c-1.3-1-2.1-2.5-2.1-2.5c0.4-1.1,0.7-1.7,0.7-1.7c0.1-0.2,0.6-0.4,0.6-0.4s2.6,2.4,4.6,2.5
							C592.3,323.6,593.1,323.3,593.2,321.1z"/>
					</g>
					<path class="st115" d="M582.2,324.7c-1.8,1.3-5.1,17.6-5.1,19.9c0,2.3,4.6,12.8,4.6,12.8l3-1.6l-2.5-12.1c0,0,2.2-9.5,2.9-12.6
						C585.8,328,582.2,324.7,582.2,324.7z"/>
					<path class="st115" d="M584.8,355.8c0,0,1.8,2.4,2,2.9c0.2,0.5-1.1,0-1.1,0s1.1,3.2,0.8,3.5c-0.4,0.3-1.9-0.3-1.9-0.3
						s-1-0.3-1.4-0.8c-0.4-0.5-1.4-3.6-1.4-3.6L584.8,355.8z"/>
				</g>
				<linearGradient id="SVGID_95_" gradientUnits="userSpaceOnUse" x1="584.7336" y1="313.6266" x2="598.6987" y2="313.6266">
					<stop  offset="0" style="stop-color:#FFCA3F"/>
					<stop  offset="1" style="stop-color:#6A0800"/>
				</linearGradient>
				<path class="st120" d="M587.4,320.3c1-0.3,1.7-1.2,1.9-2.2c0.2-0.8,0-1.8,0.5-2.4c0.7-0.9,2.3-0.6,3.2-1.4
					c0.9-0.9,0.4-2.5,1.3-3.4c0.5-0.5,1.4-0.6,2.1-0.6c-0.2,1.5,0,3,0.4,4.5c0.1,0.4,0.4,0.9,0.9,0.9c0.5,0,0.7-0.7,0.7-1.2
					c0.1-1,0.2-1.9,0.2-2.9c0.1-1.3,0.2-2.7-0.7-3.6c-0.7-0.7-1.7-1-2.6-1.1c-2.6-0.3-5.3,0.1-7.5,1.6c-2.1,1.5-3.5,4.2-2.9,6.8
					c0.2,0.8,0.6,1.6,0.6,2.4c0,0.4-0.1,0.8-0.3,1.2c-0.2,0.3-0.7,0.6-0.6,0.9C584.9,320.6,586.8,320.5,587.4,320.3z"/>
			</g>
			<g>
				<path class="st8" d="M270,245.5c-0.7,1.2-1,2.6-1.2,4.1c-0.4,3.1-0.8,6.2-0.3,9.2c0.6,3,2.3,6,5.1,7.3c2.1,1,4.6,0.9,6.9,0.7
					c1.8-0.1,3.7-0.3,5.1-1.5c3.8-3.1,2-10.4,0.6-14.3c-0.9-2.5-2.3-4.8-4.3-6.5c-2-1.7-4.7-2.7-7.3-2.3
					C272.3,242.7,270.9,243.9,270,245.5z"/>
				<g class="st109">
					<path class="st110" d="M267.5,334.8c-5.9,3.4-5.9,8.9-0.1,12.2c5.8,3.4,15.3,3.4,21.2,0c5.9-3.4,5.9-8.9,0.1-12.3
						C282.9,331.4,273.4,331.5,267.5,334.8z"/>
				</g>
				<g>
					<path class="st115" d="M264.6,289.6c0,0-1.1,2.7-1.2,3.7c-0.1,1,0.7,0.8,0.7,0.8s0.7,0.5,1.3,1.2c0.5,0.7,2.3-0.4,2.3-0.4
						l-0.1-4.7L264.6,289.6z"/>
					<path class="st115" d="M272.6,259.8c-2.6,0.6-2.9,1.9-3.7,4.4c-0.8,2.5-2.8,14.3-2.8,14.3l-1.5,11.1l2.9,0.7l3.3-10.6
						L272.6,259.8z"/>
					<path class="st114" d="M271.1,272.8l0.5-13c-2.6,0.6-2.9,1.9-3.7,4.4c-0.3,1.1-1.6,4.2-1.9,7.1
						C266.8,271.8,270.6,272.6,271.1,272.8z"/>
					<g>
						<linearGradient id="SVGID_96_" gradientUnits="userSpaceOnUse" x1="279.2873" y1="340.237" x2="285.9548" y2="340.237">
							<stop  offset="0" style="stop-color:#FFCA3F"/>
							<stop  offset="1" style="stop-color:#6A0800"/>
						</linearGradient>
						<path class="st121" d="M284.9,336.5c0.8,1.2,1.7,2.5,0.4,4.5c-1.3,2-3.2,4-5.6,3.5c-1.2-0.3,0.8-4.7,2.6-7.2
							C284.1,334.7,284.9,336.5,284.9,336.5z"/>
						<path class="st115" d="M286.1,311.1c0,0-0.6,23.4-0.7,26.2c-0.1,2.1-2.9,4.5-4.1,4.3c-1.6-0.3,1.1-4.3,1.1-4.3
							s-1.9-18.2-2.3-21.4c-0.4-3.2-0.6-5.5-0.6-5.5L286.1,311.1z"/>
						<linearGradient id="SVGID_97_" gradientUnits="userSpaceOnUse" x1="269.7364" y1="337.1069" x2="276.4039" y2="337.1069">
							<stop  offset="0" style="stop-color:#FFCA3F"/>
							<stop  offset="1" style="stop-color:#6A0800"/>
						</linearGradient>
						<path class="st122" d="M275.4,333.4c0.8,1.2,1.7,2.5,0.4,4.5c-1.3,2-3.2,4-5.6,3.5c-1.2-0.3,0.8-4.7,2.6-7.2
							C274.6,331.6,275.4,333.4,275.4,333.4z"/>
						<path class="st115" d="M275.9,307.9c0,0,0,23.4-0.1,26.2c-0.1,2.1-2.9,4.5-4.1,4.3c-1.6-0.3,1.1-4.3,1.1-4.3
							s-3.2-21.6-3.6-24.8c-0.4-3.2,0.1-2.2,0.1-2.2L275.9,307.9z"/>
						<g>
							<path class="st114" d="M283.6,281.4c4,6.1,4.8,12.3,3.9,18.9c-0.9,6.6-1.4,10.8-1.4,10.8s-8.6,3.5-16.9-1.8
								c0,0-1.9-10.3-2.1-17.3c-0.2-7,2.7-10.7,2.7-10.7L283.6,281.4z"/>
						</g>
						<path class="st114" d="M281.8,259.9c0,0,3.7,0.9,4.3,1.5c0,0,0.3,8-1.1,12.6c-1.5,4.6-1.3,7.4-1.3,7.4s-3.2,5.1-13.9,0
							c0,0-1-6-1.6-8.9c-0.6-2.9-1.7-3-0.2-6.4c1.5-3.4,3.6-6.3,3.6-6.3c1-0.4,3.1-0.4,3.1-0.4L281.8,259.9z"/>
						<path class="st115" d="M278,251.4c-1.3-0.8-2.2-2.2-2.9-3.7c-1.2,1.3-2.6,2.4-4.1,3.4c0.1,1.2,0.3,2.4,0.6,3.3
							c0.6,1.8,0.9,2.5,3.5,2.4l-0.2,3.4c0,0,1.3,1,5.1,0l0.5-1.7l0.1-6.2c0,0,1.4-0.1,1.2-1.6C280.8,251.7,279.4,252.2,278,251.4z"
							/>
						<path class="st107" d="M275.1,257.8c0,0-0.5,0-0.7,0.1c-0.2,0.1-1.3,1.2-1.3,2.4c0,1.2,0.5,2.5,0.5,2.5l2.4-2.2l1.5,2.9
							c0,0,0.9-0.2,2.2-1.2c1.3-1,2.1-2.5,2.1-2.5c-0.4-1.1-0.7-1.7-0.7-1.7c-0.1-0.2-0.6-0.4-0.6-0.4s-2.6,2.4-4.6,2.5
							C276,260.3,275.2,260,275.1,257.8z"/>
					</g>
					<path class="st115" d="M283.8,270.9c0.9,4,2.2,9.6,2.2,9.6l-2.5,12.1l3,1.6c0,0,4.6-10.5,4.6-12.8c0-1.3-1-6.9-2.2-11.9
						C287.2,270,285.5,270.5,283.8,270.9z"/>
					<path class="st114" d="M283.8,275c1.7-0.5,5.4-0.9,7.1-1.3c-1.1-5.4-3.8-11.6-4.8-12.4c0,0-3.6,3.3-2.9,6.4
						C283.5,269.3,283.2,272.4,283.8,275z"/>
					<path class="st115" d="M283.5,292.5c0,0-1.8,2.4-2,2.9c-0.2,0.5,1.1,0,1.1,0s-1.1,3.2-0.8,3.5c0.4,0.3,1.9-0.3,1.9-0.3
						s1-0.3,1.4-0.8c0.4-0.5,1.4-3.6,1.4-3.6L283.5,292.5z"/>
				</g>
			</g>
			<g>
				<g>
					<path class="st117" d="M629.1,411.1c5.9,3.4,5.9,8.9,0.1,12.2c-5.8,3.4-15.3,3.4-21.2,0c-5.9-3.4-5.9-8.9-0.1-12.3
						C613.8,407.7,623.3,407.8,629.1,411.1z"/>
				</g>
				<g>
					<g>
						<g>
							<linearGradient id="SVGID_98_" gradientUnits="userSpaceOnUse" x1="608.3275" y1="418.5837" x2="616.9068" y2="418.5837">
								<stop  offset="0" style="stop-color:#FFCA3F"/>
								<stop  offset="1" style="stop-color:#6A0800"/>
							</linearGradient>
							<path class="st123" d="M613.9,421.6c0,0-5.4-3.5-5.6-4.4c-0.1-0.9,1.2-1.8,2.1-1.7c0.9,0,4.7,0.4,4.7,0.4l1.2,1.4
								C616.4,417.2,618.6,422.5,613.9,421.6z"/>
							<linearGradient id="SVGID_99_" gradientUnits="userSpaceOnUse" x1="620.1813" y1="414.1533" x2="628.7607" y2="414.1533">
								<stop  offset="0" style="stop-color:#FFCA3F"/>
								<stop  offset="1" style="stop-color:#6A0800"/>
							</linearGradient>
							<path class="st124" d="M625.8,417.2c0,0-5.4-3.5-5.6-4.4c-0.1-0.9,1.2-1.8,2.1-1.7c0.9,0,4.7,0.4,4.7,0.4l1.2,1.4
								C628.2,412.8,630.4,418,625.8,417.2z"/>
							<path class="st114" d="M612.1,372.3l-0.2,44.6c0,0,2.5,1.5,5.3-0.1c0,0,5-38.5,5.1-39.4c0.1-0.8,0.7,35.2,0.7,35.2
								s3.1,1.8,5.5-0.6l2.8-42.7L612.1,372.3z"/>
							<path class="st125" d="M616.6,339c0,0-2.3,0.5-5.2,2.9l0.8,30.4c0,0,3.8,2.8,11.7,0.8c6.4-1.7,8.1-4.4,8.1-4.4
								s0.6-14.6,0-20.7c-0.2-2.5-0.8-4.8-1.4-6.5c-0.9-2.6-3.4-4.3-6.1-4.2l0,0L616.6,339z"/>
							<path class="st115" d="M623.6,337.2l0.2-5.9c0,0,1.5-0.1,1.2-1.7c-0.3-1.6-1.8-0.6-2.1-0.1c0,0-0.3-5.6-3.3-6.2
								c-3-0.5-4.2-0.1-4.3,1.3c-0.1,1.5-0.2,6.5,0,8.4c0.2,1.9,0,2.9,2.7,2.8l0.2,2c0,0,1.2,1.2,5.1,0.2L623.6,337.2z"/>
						</g>
					</g>
				</g>
				<path class="st125" d="M616.6,339c0-1.2,0.2-1.8,2.9-2.1c2.7-0.3,4.9-1,5.2,0c0.3,1-0.3,1.7-3,1.9
					C619,339.1,616.6,339,616.6,339z"/>
				<path class="st115" d="M611.3,342c-1.2,0.5-3.4,17.6-3.4,17.6l-6.9-4.5l-1.6,2.8c0,0,7.7,10.1,11.8,7.2
					C615.4,362.2,617.1,339.6,611.3,342z"/>
				<path class="st125" d="M614.9,354c0.6-6.6-0.2-13.3-3.6-12c-0.6,0.2-2.4,5.2-3.1,9.7C610.1,352.6,612.9,353.2,614.9,354z"/>
				<path class="st115" d="M599.9,353.5c-0.8-0.9-0.8-2.4-1.5-2.2c-0.7,0.1-0.7,1.3-0.7,1.3s-1.6-2.4-2.1-2.1
					c-0.5,0.2-0.3,1.5-0.3,1.5s-0.6,0.7-0.5,1.3c0,0.6,0.4,2,1.5,3.2c1.1,1.2,3.2,1.4,3.2,1.4l1.6-2.8
					C601,355.1,600.7,354.4,599.9,353.5z"/>
				<linearGradient id="SVGID_100_" gradientUnits="userSpaceOnUse" x1="612.5801" y1="328.0862" x2="626.3382" y2="328.0862">
					<stop  offset="0" style="stop-color:#FFCA3F"/>
					<stop  offset="1" style="stop-color:#6A0800"/>
				</linearGradient>
				<path class="st126" d="M618.6,328.9c0.3-0.3,0.6-0.5,1-0.4c0.5,0.1,0.7,0.7,0.5,1.2c-0.1,0.2-1.1,1.4-1.2,1.2
					c0.7,1.4,1.7,2.7,2.9,3.7c0.2,0.2,0.5,0.4,0.8,0.5c0.3,0.1,0.7,0.1,0.9-0.2c2.3-2.7,3.9-7,1.9-10.3c-0.7-1.2-1.9-2-3.2-2.4
					c-1.2-0.3-2.5-0.2-3.6-0.6c-0.8-0.3-1.4-0.7-2.2-0.8s-1.7,0.7-1.4,1.4c-0.7-0.6-1.8-0.2-2.2,0.6c-0.4,0.8-0.1,1.8,0.5,2.5
					c1.3,1.5,3.6,1.6,4.2,3.7c0.1,0.5,0.2,1.1,0.2,1.6C617.8,330.3,618.1,329.4,618.6,328.9z"/>
			</g>
			<g>
				<g>
					<path class="st127" d="M479.6,142.6l-49.4-28.5c-1.3-0.7-2.4-0.2-2.4,1.3l-0.2,75.8c0,1.5,1.1,3.3,2.3,4.1l49.4,28.5
						c1.3,0.7,2.4,0.1,2.4-1.3l0.2-75.8C481.9,145.2,480.9,143.4,479.6,142.6"/>
				</g>
				<linearGradient id="SVGID_101_" gradientUnits="userSpaceOnUse" x1="433.0389" y1="165.8462" x2="476.6323" y2="165.8462">
					<stop  offset="0" style="stop-color:#FFB115"/>
					<stop  offset="1" style="stop-color:#FF6A3F"/>
				</linearGradient>
				<path class="st128" d="M438.9,131.8l0,6.4l-5.9-3.4l0-6.4L438.9,131.8 M446.5,136.1l-5.9-3.4l0,6.4l5.9,3.4L446.5,136.1
					 M461.4,194.5l-5.9-3.4l0,6.4l5.9,3.4L461.4,194.5 M468.9,198.8l-5.9-3.4l0,6.4l5.9,3.4L468.9,198.8 M476.5,203.2l-5.9-3.4
					l0,6.4l5.9,3.4L476.5,203.2 M454,134.2l-21-12.1l0,2l21,12.1L454,134.2 M476.6,147.3l-9.5-5.5l0,2l9.5,5.5L476.6,147.3"/>
				<linearGradient id="SVGID_102_" gradientUnits="userSpaceOnUse" x1="432.8981" y1="173.1805" x2="476.6147" y2="173.1805">
					<stop  offset="0" style="stop-color:#FFB115"/>
					<stop  offset="1" style="stop-color:#FF6A3F"/>
				</linearGradient>
				<path class="st129" d="M461.5,144.8l0,6.4l-5.9-3.4l0-6.4L461.5,144.8 M438.9,140l-5.9-3.4l0,6.4l5.9,3.4L438.9,140 M454,157
					l-5.9-3.4l0,6.4l5.9,3.4L454,157 M453.9,165.3l-5.9-3.4l0,6.4l5.9,3.4L453.9,165.3 M446.4,152.7l-5.9-3.4l0,6.4l5.9,3.4
					L446.4,152.7 M446.4,160.9l-5.9-3.4l0,6.4l5.9,3.4L446.4,160.9 M446.4,169.2l-5.9-3.4l0,6.4l5.9,3.4L446.4,169.2 M453.9,173.6
					l-5.9-3.4l0,6.4l5.9,3.4L453.9,173.6 M461.4,177.9l-5.9-3.4l0,6.4l5.9,3.4L461.4,177.9 M461.5,169.6l-5.9-3.4l0,6.4l5.9,3.4
					L461.5,169.6 M461.5,161.4l-5.9-3.4l0,6.4l5.9,3.4L461.5,161.4 M461.5,153.1l-5.9-3.4l0,6.4l5.9,3.4L461.5,153.1 M454,148.7
					l-5.9-3.4l0,6.4l5.9,3.4L454,148.7 M446.4,144.4l-5.9-3.4l0,6.4l5.9,3.4L446.4,144.4 M438.9,148.3l-5.9-3.4l0,6.4l5.9,3.4
					L438.9,148.3 M438.9,156.6l-5.9-3.4l0,6.4l5.9,3.4L438.9,156.6 M438.8,164.9l-5.9-3.4l0,6.4l5.9,3.4L438.8,164.9 M438.8,173.1
					l-5.9-3.4l0,6.4l5.9,3.4L438.8,173.1 M446.4,177.5l-5.9-3.4l0,6.4l5.9,3.4L446.4,177.5 M453.9,181.9l-5.9-3.4l0,6.4l5.9,3.4
					L453.9,181.9 M461.4,186.2l-5.9-3.4l0,6.4l5.9,3.4L461.4,186.2 M454,140.5l-5.9-3.4l0,6.4l5.9,3.4L454,140.5 M438.8,181.4
					l-5.9-3.4l0,6.4l5.9,3.4L438.8,181.4 M446.3,185.8l-5.9-3.4l0,6.4l5.9,3.4L446.3,185.8 M453.9,190.1l-5.9-3.4l0,6.4l5.9,3.4
					L453.9,190.1 M469.1,149.2l-5.9-3.4l0,6.4l5.9,3.4L469.1,149.2 M469,182.3l-5.9-3.4l0,6.4l5.9,3.4L469,182.3 M469,174l-5.9-3.4
					l0,6.4l5.9,3.4L469,174 M469,165.7l-5.9-3.4l0,6.4l5.9,3.4L469,165.7 M469,157.4l-5.9-3.4l0,6.4l5.9,3.4L469,157.4 M469,190.6
					l-5.9-3.4l0,6.4l5.9,3.4L469,190.6 M476.6,153.5l-5.9-3.4l0,6.4l5.9,3.4L476.6,153.5 M476.5,186.6l-5.9-3.4l0,6.4l5.9,3.4
					L476.5,186.6 M476.5,178.4l-5.9-3.4l0,6.4l5.9,3.4L476.5,178.4 M476.6,170.1l-5.9-3.4l0,6.4l5.9,3.4L476.6,170.1 M476.6,161.8
					l-5.9-3.4l0,6.4l5.9,3.4L476.6,161.8 M476.5,194.9l-5.9-3.4l0,6.4l5.9,3.4L476.5,194.9 M466,208l-22.6-13l0,1.7l22.6,13L466,208
					"/>
			</g>
			<g>
				<g>
					<g class="st2">
						<g>
							<path class="st127" d="M508.8,120l-38.9-22.5c-2-1.2-3.7-0.2-3.7,2.1l-0.1,23.9c0,2.3,1.6,5.2,3.7,6.4l38.9,22.5
								c2,1.2,3.7,0.2,3.7-2.1l0-0.9l0-5.4l0-17.6C512.5,124,510.9,121.1,508.8,120z"/>
						</g>
					</g>
				</g>
				<linearGradient id="SVGID_103_" gradientUnits="userSpaceOnUse" x1="466.1307" y1="133.2305" x2="512.4414" y2="133.2305">
					<stop  offset="0" style="stop-color:#FFB115"/>
					<stop  offset="1" style="stop-color:#FF6A3F"/>
				</linearGradient>
				<polyline class="st130" points="512.4,143.9 466.1,117.2 466.1,122.6 512.4,149.3 512.4,143.9 				"/>
				<path class="st131" d="M498.9,122.4c-0.9-2.3-2.5-4.4-4.5-5.5c-2.9-1.7-5.2-0.3-5.2,3c0,3.3,2.3,7.3,5.2,9
					c1.9,1.1,3.6,0.9,4.5-0.4c0.5-0.6,0.8-1.5,0.8-2.6C499.7,124.7,499.4,123.5,498.9,122.4z"/>
				<path class="st131" d="M503.4,122c-1.9-1.1-3.6-0.9-4.5,0.4c-0.5,0.6-0.8,1.5-0.8,2.6c0,1.1,0.3,2.3,0.7,3.5
					c0.9,2.3,2.5,4.4,4.5,5.5c2.9,1.7,5.2,0.3,5.2-3C508.6,127.7,506.3,123.7,503.4,122z"/>
			</g>
			<g>
				<g>
					<g class="st2">
						<defs>
							<polygon id="SVGID_104_" class="st2" points="490.7,188.5 490.8,157.5 536.9,184.1 536.8,215.1 							"/>
						</defs>
						<clipPath id="SVGID_105_">
							<use xlink:href="#SVGID_104_"  style="overflow:visible;"/>
						</clipPath>
						<g class="st132">
							<path class="st127" d="M535.6,183.3l-43.5-25.1c-0.7-0.4-1.3-0.1-1.3,0.8l-0.1,28c0,0.8,0.6,1.9,1.3,2.3l43.5,25.1
								c0.7,0.4,1.3,0.1,1.3-0.8l0.1-28C536.9,184.8,536.3,183.7,535.6,183.3"/>
						</g>
					</g>
				</g>
				<path class="st131" d="M534,185c-0.1-0.1-0.3-0.1-0.4-0.1l-18.7,2.9c-0.3,0-0.7-0.1-1.1-0.3c-0.4-0.2-0.8-0.6-1.1-1l-18.6-24.4
					c-0.1-0.2-0.3-0.3-0.4-0.3c-0.2-0.1-0.5-0.1-0.6,0c-0.2,0.3-0.1,0.8,0.2,1.3l19.4,25.4c0.3,0.4,0.7,0.8,1.1,1
					c0.4,0.2,0.8,0.3,1.1,0.3l19.5-3c0.3-0.1,0.4-0.5,0.2-1C534.4,185.4,534.2,185.1,534,185"/>
			</g>
			<g>
				<g>
					<g class="st37">
						<g class="st2">
							<g>
								<linearGradient id="SVGID_106_" gradientUnits="userSpaceOnUse" x1="394.855" y1="320.6985" x2="457.0726" y2="320.6985">
									<stop  offset="0" style="stop-color:#FFB115"/>
									<stop  offset="1" style="stop-color:#FF6A3F"/>
								</linearGradient>
								<path class="st133" d="M452.9,315.2l-53.8-31c-2.3-1.3-4.2-0.3-4.2,2.4l-0.1,32.3c0,2.7,1.9,5.9,4.2,7.2l2.5,1.4l0,4.8
									l2.5-3.3l48.8,28.2c2.3,1.3,4.2,0.3,4.2-2.4l0.1-32.3C457.1,319.8,455.2,316.6,452.9,315.2"/>
							</g>
						</g>
					</g>
					<g>
						<g class="st2">
							<g>
								<path class="st8" d="M447.6,320.4l-43.3-25c-0.8-0.4-1.4-0.1-1.4,0.8l0,0.2c0,0.9,0.6,2,1.4,2.4l43.3,25
									c0.8,0.5,1.4,0.1,1.4-0.8l0-0.2C449,321.9,448.4,320.8,447.6,320.4"/>
								<path class="st8" d="M420.4,313.4l-16.1-9.3c-0.8-0.4-1.4-0.1-1.4,0.8l0,0.3c0,0.9,0.6,2,1.4,2.4l16.1,9.3
									c0.8,0.4,1.4,0.1,1.4-0.8l0-0.3C421.8,314.9,421.2,313.8,420.4,313.4"/>
								<path class="st8" d="M430.7,319.3l-4.3-2.5c-0.8-0.5-1.5-0.1-1.5,0.9c0,1,0.7,2.1,1.5,2.6l4.3,2.5c0.8,0.5,1.5,0.1,1.5-0.9
									C432.2,321,431.5,319.8,430.7,319.3"/>
								<path class="st8" d="M408.7,315.4l-4.3-2.5c-0.8-0.5-1.5-0.1-1.5,0.9c0,1,0.7,2.1,1.5,2.6l4.3,2.5c0.8,0.5,1.5,0.1,1.5-0.9
									C410.3,317,409.6,315.8,408.7,315.4"/>
							</g>
						</g>
					</g>
				</g>
				<g>
					<g class="st109">
						<path class="st110" d="M391.1,388.6c4,1.9,4,4.9,0,6.8c-4,1.9-10.5,1.9-14.5,0c-4-1.9-4.1-4.9,0-6.8
							C380.6,386.7,387.1,386.7,391.1,388.6z"/>
					</g>
					<g>
						<path class="st115" d="M399.4,340.2c0,0,0.8,0.7,1,0.8c0.2,0.1,1.8,0.4,2.1,0.7c0.3,0.3,0.3,0.9,0.3,0.9s0.7,0.7,0.8,0.9
							c0.1,0.2-0.7,0.8-0.7,0.9c0,0.1-0.2,0.8-0.6,0.9s-1.4,0.7-1.6,0.7c-0.2,0-2.6-2.3-4.1-4.4
							C395.1,339.5,399.4,340.2,399.4,340.2z"/>
						<linearGradient id="SVGID_107_" gradientUnits="userSpaceOnUse" x1="363.9664" y1="380.229" x2="371.125" y2="380.229">
							<stop  offset="0" style="stop-color:#FFCA3F"/>
							<stop  offset="1" style="stop-color:#6A0800"/>
						</linearGradient>
						<path class="st134" d="M366.7,376.4c0,0-0.6,0-0.9,0.1c-0.3,0.1-1.8,2-1.8,2.3c0,0.3,4,3.9,5.3,4.9s2.1,0,1.8-0.5
							c-0.3-0.5-1.2-2.2-1.4-2.9c-0.2-0.8-0.4-1.4-0.9-2.1C368.3,377.5,366.7,376.4,366.7,376.4z"/>
						<path class="st114" d="M386.2,342.4c0,0,1.9,15.4,1.5,17.8c-0.4,2.4-17.9,18.9-18.1,18.8c-0.2-0.1-3.6,0.4-4.4-2.8l13.6-16.5
							l-0.6-15.2L386.2,342.4z"/>
						<path class="st114" d="M368.1,344.4l-0.1,2.6c-0.1,1.9,0.3,3.9,1.2,5.6c2.6,5.3,8.2,16.8,8.4,17.3c0.4,0.7,5.4,18.9,5.4,18.9
							s2.9,0.6,5.2-1.8c0,0-4.1-18.6-4.3-21.7c-0.2-3.1-5.6-20.8-5.6-20.8L368.1,344.4z"/>
						<linearGradient id="SVGID_108_" gradientUnits="userSpaceOnUse" x1="383.548" y1="388.6313" x2="393.7088" y2="388.6313">
							<stop  offset="0" style="stop-color:#FFCA3F"/>
							<stop  offset="1" style="stop-color:#6A0800"/>
						</linearGradient>
						<path class="st135" d="M383.5,388.8c0,0,3.6-2.3,5.6-2.7c2.5-0.6,4.3,0.3,4.5,0.7c0.2,0.4-0.8,1.7-2,2.3
							c-1.3,0.7-6.4,2.4-6.9,2.4C384.2,391.5,383.6,390.4,383.5,388.8z"/>
						<path class="st115" d="M384.9,313.2c1.9,0.5,2.8,1.8,4.1,5c1.3,3.1,1.9,9,1.9,9l8.5,13c0,0-0.1,2.6-1.8,2.8c0,0-9-9-10.3-11.2
							c-1.3-2.2-1.6-8-1.6-8L384.9,313.2z"/>
						<path class="st113" d="M386.9,328.5c1.6-0.9,3.2-1.8,4.7-2.9c-0.7-2.1-1.8-5.4-2.7-7.5c-1.3-3.1-2.2-4.4-4.1-5l0.6,10.7
							C385.6,323.9,386.2,326.3,386.9,328.5z"/>
						<path class="st113" d="M384.9,313.2c-1.3-0.4-4.2-0.4-4.2-0.4l-7.3,1.3c0,0-3.2,1-6,3.2l0.2,9.1v17.9c0,0.3,0.2,0.7,0.5,0.8
							c1.1,0.7,4.3,2.2,9.5,1.4c0,0,0,0,0,0c0.4-0.1,0.9-0.1,1.3-0.2c1.5-0.3,2.8-0.8,3.8-1.3c0,0,0,0,0,0c0.3-0.2,0.6-0.3,0.9-0.5
							c0.1,0,0.1-0.1,0.2-0.1c0.6-0.3,1-0.7,1.4-1c0,0,0.1-0.1,0.1-0.1c0.4-0.3,0.6-0.6,0.8-0.8c0,0,0.1-0.1,0.1-0.1
							c0.2-0.2,0.3-0.4,0.4-0.5c0,0,0,0,0,0c0,0,0-0.1,0-0.1s0-1.6,0.1-3.8c0,0,0,0,0,0c0.1-4.5,0.3-11.7,0.6-14.9
							C388.1,317.3,384.9,313.2,384.9,313.2z"/>
						<linearGradient id="SVGID_109_" gradientUnits="userSpaceOnUse" x1="372.5561" y1="303.1172" x2="384.992" y2="303.1172">
							<stop  offset="0" style="stop-color:#FFCA3F"/>
							<stop  offset="1" style="stop-color:#6A0800"/>
						</linearGradient>
						<path class="st136" d="M382.2,297.9c0,0-4.5-2.3-7.7,0.2c-3.2,2.5-1.8,6.7-0.8,9.3c1,2.6,1.8,1.7,1.8,1.7l8.4-3
							c0,0,1.1-0.3,1.1-3.7C385,298.9,382.2,297.9,382.2,297.9z"/>
						<path class="st115" d="M384.5,301.6c0-0.6-0.6-1.1-1.4-1.4c-0.5,1.4-1.4,2.6-2.8,3.3c-1.5,0.8-3,0.7-4.3,0
							c-0.3,1.2-0.4,2.1-0.4,2.1c-0.2-0.5-1.6-1.5-1.9,0c-0.3,1.5,1.1,1.7,1.1,1.7l-0.1,5.6l0.4,1.7c3.5,1,4.9,0.1,4.9,0.1l-0.1-2.9
							c2.6,0.2,4-0.5,4.2-2.3C384.4,307.7,384.5,302.9,384.5,301.6z"/>
						<path class="st107" d="M380,312.3c0,0,0.5,0,0.7,0.1c0.2,0.1,1.2,1.2,1.1,2.3c0,1.1-0.5,2.4-0.5,2.4L379,315l-1.6,2.8
							c0,0-0.9-0.2-2.1-1.2c-1.2-1-1.9-2.4-1.9-2.4c0.4-1,0.7-1.6,0.7-1.6c0.1-0.2,0.5-0.3,0.5-0.3s2.4,2.3,4.3,2.5
							C379,314.7,379.8,314.4,380,312.3z"/>
						<path class="st115" d="M357.9,345.9c0,0-0.2,1-0.2,1.2c0,0.2,0.5,1.8,0.4,2.2c-0.1,0.4-0.7,0.7-0.7,0.7s-0.3,1-0.4,1.1
							c-0.1,0.2-1-0.2-1.1-0.2c-0.1,0-0.8,0.2-1.1,0c-0.3-0.3-1.3-0.9-1.4-1c-0.1-0.2,0.7-3.4,1.8-5.7S357.9,345.9,357.9,345.9z"/>
						<path class="st115" d="M354.8,345.2c0,0,5.2-13.7,6.5-16.3c1.2-2.6,4.5-10.5,6.2-11.7c1.7-1.1,2.4,7.3,2.4,7.3
							s-4.5,8.8-6,10.8c-1.4,1.9-6,10.6-6,10.6S356.7,347.6,354.8,345.2z"/>
						<path class="st113" d="M365.8,332.1c1.8-3.3,4-7.6,4-7.6s-0.7-8.4-2.4-7.3c-1.3,0.9-4.4,6.7-6.2,10.4
							C362.6,329.3,364.2,330.8,365.8,332.1z"/>
					</g>
				</g>
				<g>
					<linearGradient id="SVGID_110_" gradientUnits="userSpaceOnUse" x1="410.0012" y1="344.2624" x2="436.2449" y2="344.2624">
						<stop  offset="0" style="stop-color:#FFB115"/>
						<stop  offset="1" style="stop-color:#FF6A3F"/>
					</linearGradient>
					<path class="st137" d="M429.3,336.7l-12.3-7.1c-3.8-2.2-7-0.4-7,4l0,6.2c0,4.4,3,9.6,6.8,11.9c-0.3,1.2-1,2.4-2.7,2.2
						c0,0,4.7,2.6,6.6,0.1l8.6,5c3.9,2.2,7,0.4,7-4l0-6.2C436.3,344.3,433.2,338.9,429.3,336.7"/>
					<path class="st8" d="M416.8,338.7c-0.9-0.5-1.7-0.1-1.7,0.9c0,1.1,0.7,2.3,1.7,2.9c0.9,0.5,1.7,0.1,1.7-0.9
						C418.4,340.5,417.7,339.2,416.8,338.7 M423.1,342.4c-0.9-0.5-1.7-0.1-1.7,0.9c0,1.1,0.7,2.3,1.7,2.9c0.9,0.5,1.7,0.1,1.7-0.9
						C424.8,344.2,424,342.9,423.1,342.4 M429.5,346c-0.9-0.5-1.7-0.1-1.7,0.9c0,1.1,0.7,2.3,1.7,2.9c0.9,0.5,1.7,0.1,1.7-0.9
						C431.2,347.8,430.4,346.6,429.5,346"/>
				</g>
			</g>
		</g>
		<g class="st1">
			<g>
				<g class="st2">
					<linearGradient id="SVGID_111_" gradientUnits="userSpaceOnUse" x1="226.8734" y1="308.6865" x2="194.364" y2="387.876">
						<stop  offset="0" style="stop-color:#FFB115"/>
						<stop  offset="1" style="stop-color:#FF6A3F"/>
					</linearGradient>
					<polygon class="st138" points="305.2,381.7 197.1,444.5 88.6,381.7 197.1,319 					"/>
					<linearGradient id="SVGID_112_" gradientUnits="userSpaceOnUse" x1="197.1146" y1="440.6681" x2="305.1631" y2="440.6681">
						<stop  offset="0" style="stop-color:#FFCA3F"/>
						<stop  offset="1" style="stop-color:#AA5E00"/>
					</linearGradient>
					<polygon class="st139" points="305.2,499.6 305.2,381.7 197.1,444.5 197.1,499.6 					"/>
					<linearGradient id="SVGID_113_" gradientUnits="userSpaceOnUse" x1="88.5953" y1="440.6685" x2="197.1146" y2="440.6685">
						<stop  offset="0" style="stop-color:#AA3800"/>
						<stop  offset="1" style="stop-color:#AA5E00"/>
					</linearGradient>
					<polygon class="st140" points="197.1,499.6 197.1,444.5 88.6,381.7 88.6,499.6 					"/>
				</g>
			</g>
			<g class="st2">
				<path class="st141" d="M249.5,371.5L179.9,412c-2.1,1.2-5.6,1.2-7.8,0l-51.6-29.8c-1.1-0.6-1.6-1.5-1.6-2.3l0,2
					c0,0.8,0.5,1.6,1.6,2.3L172,414c2.2,1.2,5.7,1.2,7.8,0l69.7-40.5c1.1-0.6,1.6-1.4,1.6-2.2l0-2
					C251.1,370.1,250.6,370.9,249.5,371.5z"/>
				<g>
					<path class="st8" d="M249.5,367c2.2,1.2,2.2,3.3,0,4.5L179.9,412c-2.1,1.2-5.6,1.2-7.8,0l-51.6-29.8c-2.2-1.2-2.2-3.3,0-4.5
						l69.7-40.5c2.1-1.2,5.6-1.2,7.8,0L249.5,367z"/>
				</g>
				<g>
					<path class="st141" d="M153.5,396.4c0.6,0.3,0.6,0.9,0,1.2c-0.6,0.3-1.5,0.3-2.1,0l-6.4-3.7c-0.6-0.3-0.6-0.9,0-1.2
						c0.6-0.3,1.5-0.3,2.1,0L153.5,396.4z"/>
				</g>
				<g>
					<linearGradient id="SVGID_114_" gradientUnits="userSpaceOnUse" x1="127.1528" y1="374.1752" x2="244.2013" y2="374.1752">
						<stop  offset="0" style="stop-color:#FFCA3F"/>
						<stop  offset="1" style="stop-color:#6A0800"/>
					</linearGradient>
					<polygon class="st142" points="244.2,369.2 177.4,408.1 127.2,379.1 194,340.3 					"/>
				</g>
			</g>
			<g>
				<g class="st2">
					<g>
						<path class="st8" d="M123.7,357.4c-0.4-0.2-0.4-0.6,0-0.8c0.4-0.2,1.1-0.2,1.5,0l3.3,1.9c0.4,0.2,0.4,0.6,0,0.8
							c-0.4,0.2-1.1,0.2-1.5,0L123.7,357.4 M129.4,360.7c-0.4-0.2-0.4-0.6,0-0.8c0.4-0.2,1.1-0.2,1.5,0l0.3,0.2
							c0.4,0.2,0.4,0.6,0,0.8c-0.4,0.2-1.1,0.2-1.5,0L129.4,360.7 M126.9,355.5c-0.4-0.2-0.4-0.6,0-0.8c0.4-0.2,1.1-0.2,1.5,0
							l18,10.4c0.4,0.2,0.4,0.6,0,0.8c-0.4,0.2-1.1,0.2-1.5,0L126.9,355.5 M147.6,367.5c-0.4-0.2-0.4-0.6,0-0.8
							c0.4-0.2,1.1-0.2,1.5,0l10.9,6.3c0.4,0.2,0.4,0.6,0,0.8c-0.4,0.2-1.1,0.2-1.5,0L147.6,367.5 M159,377.8l5-2.9l8.6,5l-5,2.9
							L159,377.8 M130.2,353.6c-0.4-0.2-0.4-0.6,0-0.8c0.4-0.2,1.1-0.2,1.5,0l31.6,18.2c0.4,0.2,0.4,0.6,0,0.8
							c-0.4,0.2-1.1,0.2-1.5,0L130.2,353.6 M165.1,374.2l5-2.9l8.6,5l-5,2.9L165.1,374.2 M133.4,351.7c-0.4-0.2-0.4-0.6,0-0.8
							c0.4-0.2,1.1-0.2,1.5,0l8.4,4.9c0.4,0.2,0.4,0.6,0,0.8c-0.4,0.2-1.1,0.2-1.5,0L133.4,351.7 M137.6,348.5l25.7-14.9l44.7,25.8
							l-25.7,14.9L137.6,348.5 M216,358.5l-51.2-29.6c-0.8-0.5-2-0.4-2.8,0l-46.5,27c-0.8,0.4-0.8,1.2,0,1.6l51.2,29.6
							c0.8,0.5,2,0.5,2.8,0l46.5-27C216.7,359.7,216.7,359,216,358.5"/>
						<path class="st84" d="M164.5,354.4l9.1-5.3l3,7L164.5,354.4 M208,359.3l-44.7-25.8l-25.7,14.9l44.7,25.8L208,359.3"/>
						<linearGradient id="SVGID_115_" gradientUnits="userSpaceOnUse" x1="165.1184" y1="375.2679" x2="178.7848" y2="375.2679">
							<stop  offset="0" style="stop-color:#FFB115"/>
							<stop  offset="1" style="stop-color:#FF6A3F"/>
						</linearGradient>
						<polyline class="st143" points="178.8,376.3 170.1,371.3 165.1,374.2 173.8,379.2 178.8,376.3 						"/>
						<linearGradient id="SVGID_116_" gradientUnits="userSpaceOnUse" x1="158.9579" y1="378.8479" x2="172.6243" y2="378.8479">
							<stop  offset="0" style="stop-color:#FFB115"/>
							<stop  offset="1" style="stop-color:#FF6A3F"/>
						</linearGradient>
						<polyline class="st144" points="172.6,379.9 164,374.9 159,377.8 167.6,382.8 172.6,379.9 						"/>
						<polyline class="st8" points="173.6,349.1 164.5,354.4 176.6,356.1 173.6,349.1 						"/>
						<path class="st86" d="M163.2,371l-31.6-18.2c-0.4-0.2-1.1-0.2-1.5,0c-0.4,0.2-0.4,0.6,0,0.8l31.6,18.2c0.4,0.2,1.1,0.2,1.5,0
							C163.6,371.6,163.6,371.3,163.2,371"/>
						<path class="st86" d="M146.4,365.1l-18-10.4c-0.4-0.2-1.1-0.2-1.5,0c-0.4,0.2-0.4,0.6,0,0.8l18,10.4c0.4,0.2,1.1,0.2,1.5,0
							C146.8,365.7,146.8,365.3,146.4,365.1"/>
						<path class="st85" d="M143.3,355.8l-8.4-4.9c-0.4-0.2-1.1-0.2-1.5,0c-0.4,0.2-0.4,0.6,0,0.8l8.4,4.9c0.4,0.2,1.1,0.2,1.5,0
							C143.7,356.4,143.7,356,143.3,355.8"/>
						<path class="st86" d="M160,372.9l-10.9-6.3c-0.4-0.2-1.1-0.2-1.5,0c-0.4,0.2-0.4,0.6,0,0.8l10.9,6.3c0.4,0.2,1.1,0.2,1.5,0
							C160.4,373.5,160.4,373.2,160,372.9"/>
						<path class="st85" d="M128.4,358.5l-3.3-1.9c-0.4-0.2-1.1-0.2-1.5,0c-0.4,0.2-0.4,0.6,0,0.8l3.3,1.9c0.4,0.2,1.1,0.2,1.5,0
							C128.8,359.1,128.8,358.7,128.4,358.5"/>
						<path class="st85" d="M131.1,360.1l-0.3-0.2c-0.4-0.2-1.1-0.2-1.5,0c-0.4,0.2-0.4,0.6,0,0.8l0.3,0.2c0.4,0.2,1.1,0.2,1.5,0
							C131.5,360.7,131.5,360.3,131.1,360.1"/>
					</g>
				</g>
			</g>
			<g>
				<g class="st2">
					<g>
						<path class="st8" d="M141.4,304.4c-3.9-2.3-3.9-5.9,0-8.2c3.9-2.3,10.2-2.3,14.1,0c3.9,2.3,3.9,5.9,0,8.2
							C151.6,306.7,145.3,306.7,141.4,304.4 M159.8,315c-3.9-2.3-3.9-5.9-0.1-8.2c3.9-2.3,10.2-2.3,14.1,0c3.9,2.3,3.9,5.9,0,8.2
							C170,317.3,163.7,317.3,159.8,315 M178.1,325.6c-3.9-2.3-3.9-5.9-0.1-8.2c3.9-2.3,10.2-2.3,14.1,0c3.9,2.3,3.9,5.9,0,8.2
							S182,327.9,178.1,325.6 M205.8,320.1l-55-31.8c-1.4-0.8-3.6-0.8-5,0l-18.1,10.5c-1.4,0.8-1.4,2.1,0,2.9l55,31.8
							c1.4,0.8,3.6,0.8,5,0l18.1-10.5C207.2,322.2,207.2,320.9,205.8,320.1"/>
						<linearGradient id="SVGID_117_" gradientUnits="userSpaceOnUse" x1="156.8083" y1="310.9352" x2="176.7243" y2="310.9352">
							<stop  offset="0" style="stop-color:#FFB115"/>
							<stop  offset="1" style="stop-color:#FF6A3F"/>
						</linearGradient>
						<path class="st145" d="M163.5,311.5l4.2-2.4l1.4,3.2L163.5,311.5 M173.8,306.9c-3.9-2.3-10.2-2.3-14.1,0
							c-3.9,2.3-3.8,5.9,0.1,8.2c3.9,2.3,10.2,2.3,14.1,0C177.7,312.8,177.7,309.1,173.8,306.9"/>
						<path class="st84" d="M147.9,299.7l4.8,0.7l-4.2,2.4l-1.2-2.8l-1.8,1.1l-1.3-0.7l4.2-2.4l1.3,0.7L147.9,299.7 M155.4,296.3
							c-3.9-2.3-10.2-2.2-14.1,0c-3.9,2.3-3.9,5.9,0,8.2c3.9,2.3,10.2,2.3,14.1,0C159.4,302.2,159.3,298.5,155.4,296.3"/>
						<path class="st84" d="M186.3,321.8l1.8-1.1l1.3,0.7l-4.2,2.4l-1.3-0.7l1.8-1.1l-4.8-0.7l4.2-2.4L186.3,321.8 M192.1,317.4
							c-3.9-2.3-10.2-2.3-14.1,0c-3.9,2.3-3.8,5.9,0.1,8.2c3.9,2.3,10.2,2.3,14.1,0S196,319.7,192.1,317.4"/>
						<polyline class="st8" points="167.7,309 163.5,311.5 169.1,312.2 167.7,309 						"/>
						<polyline class="st8" points="189.4,321.5 188.1,320.8 186.3,321.8 185.1,319.1 180.9,321.5 185.7,322.2 183.9,323.2 
							185.2,324 189.4,321.5 						"/>
						<polyline class="st8" points="152.7,300.4 147.9,299.7 149.7,298.6 148.4,297.9 144.2,300.3 145.5,301.1 147.3,300 
							148.5,302.8 152.7,300.4 						"/>
					</g>
				</g>
			</g>
		</g>
		<g class="st146">
			<circle class="st147" cx="526.5" cy="247.3" r="1.3"/>
			<circle class="st147" cx="544.6" cy="233.8" r="2.5"/>
			<circle class="st147" cx="602.4" cy="246.7" r="1.4"/>
			<path class="st147" d="M563.4,328.5c0,0.7-0.6,1.2-1.2,1.2c-0.7,0-1.2-0.6-1.2-1.2c0-0.7,0.6-1.2,1.2-1.2
				C562.8,327.3,563.4,327.8,563.4,328.5z"/>
			<circle class="st147" cx="695.7" cy="179.8" r="1.1"/>
			<path class="st147" d="M637.3,151c0,1-0.8,1.9-1.9,1.9s-1.9-0.8-1.9-1.9s0.8-1.9,1.9-1.9S637.3,149.9,637.3,151z"/>
			<path class="st147" d="M656.1,189.6c0,0.7-0.6,1.3-1.3,1.3c-0.7,0-1.3-0.6-1.3-1.3c0-0.7,0.6-1.3,1.3-1.3
				C655.5,188.4,656.1,188.9,656.1,189.6z"/>
			<path class="st147" d="M690.5,133.7c0,0.5-0.4,1-1,1c-0.5,0-1-0.4-1-1s0.4-1,1-1C690.1,132.7,690.5,133.2,690.5,133.7z"/>
			<circle class="st147" cx="717.6" cy="221.2" r="1.3"/>
			<path class="st147" d="M735,216.8c0,0.7-0.6,1.3-1.3,1.3c-0.7,0-1.3-0.6-1.3-1.3c0-0.7,0.6-1.3,1.3-1.3
				C734.5,215.5,735,216.1,735,216.8z"/>
			<circle class="st147" cx="742.3" cy="170.4" r="1.4"/>
			<circle class="st147" cx="747.4" cy="229.3" r="0.8"/>
			<circle class="st147" cx="96.8" cy="170.1" r="1.4"/>
			<circle class="st147" cx="81.7" cy="170.4" r="0.7"/>
			<path class="st147" d="M99.4,120.7c0,0.8-0.7,1.5-1.5,1.5c-0.8,0-1.5-0.7-1.5-1.5c0-0.8,0.7-1.5,1.5-1.5
				C98.7,119.2,99.4,119.9,99.4,120.7z"/>
			<circle class="st147" cx="116.2" cy="140.7" r="0.8"/>
			<path class="st147" d="M128.3,163c0,0.5-0.4,0.8-0.8,0.8c-0.5,0-0.8-0.4-0.8-0.8c0-0.5,0.4-0.8,0.8-0.8
				C127.9,162.1,128.3,162.5,128.3,163z"/>
			<circle class="st147" cx="151.4" cy="193.2" r="1.1"/>
			<path class="st147" d="M173.4,199.6c0,0.4-0.3,0.7-0.7,0.7c-0.4,0-0.7-0.3-0.7-0.7s0.3-0.7,0.7-0.7
				C173.1,198.8,173.4,199.1,173.4,199.6z"/>
			<path class="st147" d="M140.9,204.6c0,0.4-0.3,0.8-0.8,0.8c-0.4,0-0.8-0.3-0.8-0.8c0-0.4,0.3-0.8,0.8-0.8
				C140.5,203.8,140.9,204.2,140.9,204.6z"/>
			<path class="st147" d="M136.2,224.3c0,0.7-0.5,1.2-1.2,1.2c-0.7,0-1.2-0.5-1.2-1.2c0-0.7,0.5-1.2,1.2-1.2
				C135.7,223.1,136.2,223.6,136.2,224.3z"/>
			<path class="st147" d="M70.6,261c0,0.3-0.3,0.6-0.6,0.6c-0.3,0-0.6-0.3-0.6-0.6c0-0.3,0.3-0.6,0.6-0.6
				C70.4,260.4,70.6,260.6,70.6,261z"/>
			<path class="st147" d="M191.5,268.7c0,0.9-0.7,1.6-1.6,1.6c-0.9,0-1.6-0.7-1.6-1.6s0.7-1.6,1.6-1.6
				C190.8,267.2,191.5,267.9,191.5,268.7z"/>
			<path class="st147" d="M242.9,232.6c0,0.8-0.6,1.4-1.4,1.4c-0.8,0-1.4-0.6-1.4-1.4s0.6-1.4,1.4-1.4
				C242.2,231.1,242.9,231.8,242.9,232.6z"/>
			<circle class="st147" cx="278.7" cy="111.5" r="1.3"/>
			<path class="st147" d="M286.2,122.2c0,0.8-0.7,1.5-1.5,1.5c-0.8,0-1.5-0.7-1.5-1.5c0-0.8,0.7-1.5,1.5-1.5
				C285.6,120.7,286.2,121.3,286.2,122.2z"/>
			<path class="st147" d="M416.8,124.8c0,0.6-0.5,1.1-1.1,1.1c-0.6,0-1.1-0.5-1.1-1.1c0-0.6,0.5-1.1,1.1-1.1
				C416.2,123.6,416.8,124.2,416.8,124.8z"/>
			<path class="st147" d="M449.6,107.4c0,0.9-0.7,1.6-1.6,1.6c-0.9,0-1.6-0.7-1.6-1.6c0-0.9,0.7-1.6,1.6-1.6
				C448.9,105.9,449.6,106.6,449.6,107.4z"/>
			<path class="st147" d="M495.8,104c0,0.4-0.3,0.7-0.7,0.7c-0.4,0-0.7-0.3-0.7-0.7s0.3-0.7,0.7-0.7
				C495.5,103.3,495.8,103.6,495.8,104z"/>
			<path class="st147" d="M490.5,147.4c0,0.6-0.5,1.1-1.1,1.1c-0.6,0-1.1-0.5-1.1-1.1s0.5-1.1,1.1-1.1
				C490,146.3,490.5,146.8,490.5,147.4z"/>
			<path class="st147" d="M489.1,208.1c0,0.7-0.6,1.3-1.3,1.3c-0.7,0-1.3-0.6-1.3-1.3s0.6-1.3,1.3-1.3
				C488.5,206.8,489.1,207.4,489.1,208.1z"/>
			<path class="st147" d="M492.3,215.2c0,0.5-0.4,0.9-0.9,0.9c-0.5,0-0.9-0.4-0.9-0.9c0-0.5,0.4-0.9,0.9-0.9
				C491.9,214.3,492.3,214.7,492.3,215.2z"/>
			<circle class="st147" cx="412.5" cy="165.9" r="0.9"/>
			<circle class="st147" cx="248.3" cy="237" r="0.8"/>
			<path class="st147" d="M185,299.8c0,0.6-0.5,1.2-1.2,1.2s-1.2-0.5-1.2-1.2c0-0.6,0.5-1.2,1.2-1.2S185,299.2,185,299.8z"/>
			<circle class="st147" cx="114.3" cy="341.5" r="1.2"/>
			<circle class="st147" cx="117.3" cy="325.8" r="1.1"/>
			<circle class="st147" cx="51.2" cy="339.7" r="1.3"/>
			<path class="st147" d="M32.7,325.1c0,1.3-1,2.3-2.3,2.3c-1.3,0-2.3-1-2.3-2.3s1-2.3,2.3-2.3C31.6,322.7,32.7,323.8,32.7,325.1z"
				/>
			<path class="st147" d="M23.8,340.1c0,0.2-0.2,0.4-0.4,0.4c-0.2,0-0.4-0.2-0.4-0.4c0-0.2,0.2-0.4,0.4-0.4
				C23.6,339.7,23.8,339.9,23.8,340.1z"/>
			<path class="st147" d="M336.6,458.5c0,1-0.8,1.8-1.8,1.8c-1,0-1.8-0.8-1.8-1.8s0.8-1.8,1.8-1.8
				C335.8,456.7,336.6,457.5,336.6,458.5z"/>
			<circle class="st147" cx="174.9" cy="482.6" r="1"/>
			<path class="st147" d="M222.7,490.8c0,0.5-0.4,0.9-0.9,0.9c-0.5,0-0.9-0.4-0.9-0.9c0-0.5,0.4-0.9,0.9-0.9
				C222.3,489.9,222.7,490.3,222.7,490.8z"/>
			<path class="st147" d="M50,482.5c0,0.5-0.4,0.9-0.9,0.9c-0.5,0-0.9-0.4-0.9-0.9c0-0.5,0.4-0.9,0.9-0.9
				C49.6,481.6,50,482,50,482.5z"/>
			<path class="st147" d="M24.5,461.8c0,0.4-0.4,0.8-0.8,0.8c-0.4,0-0.8-0.4-0.8-0.8c0-0.4,0.4-0.8,0.8-0.8
				C24.2,461,24.5,461.4,24.5,461.8z"/>
			<path class="st147" d="M24.5,478.7c0,0.4-0.4,0.8-0.8,0.8c-0.4,0-0.8-0.4-0.8-0.8c0-0.4,0.4-0.8,0.8-0.8
				C24.2,477.9,24.5,478.2,24.5,478.7z"/>
			<circle class="st147" cx="683.1" cy="467.4" r="1"/>
			<path class="st147" d="M682,487.2c0,1.2-1,2.2-2.2,2.2c-1.2,0-2.2-1-2.2-2.2s1-2.2,2.2-2.2C681.1,485,682,486,682,487.2z"/>
			<path class="st147" d="M713.4,474.1c0,0.6-0.5,1-1,1c-0.6,0-1-0.5-1-1c0-0.6,0.5-1,1-1C712.9,473.1,713.4,473.6,713.4,474.1z"/>
		</g>
	</g>
</g>
<g id="DESIGNED_BY_FREEPIK">
</g>
</svg>
