<svg xmlns="http://www.w3.org/2000/svg" width="57.819" height="80.869" viewBox="0 0 57.819 80.869">
  <g id="Group_303" data-name="Group 303" transform="translate(251.771 -46.677)">
    <path id="Path_1051" data-name="Path 1051" d="M-230.936,123.358h-15.882c-.181,0-.362,0-.543,0-1.074-.037-1.735-.608-1.695-1.46.039-.828.666-1.318,1.723-1.319q7.6-.005,15.2,0h1.193c.025-.558.049-1.055.069-1.551a2.869,2.869,0,0,1,3.06-2.958c1.085-.014,2.171-.014,3.256-.024a1,1,0,0,0,.229-.078v-4.692h-24.647c-2.043,0-2.8-.739-2.8-2.756q0-6.414,0-12.828c0-1.949.781-2.733,2.744-2.734q11.716-.006,23.433,0h1.252V88.142h-1.035q-11.807,0-23.614,0c-2.013,0-2.778-.767-2.779-2.785q0-6.414,0-12.828c0-1.94.785-2.71,2.762-2.711q11.762,0,23.523,0h1.149V65h-24.589c-2.087,0-2.845-.75-2.846-2.811q0-6.414,0-12.828c0-1.892.8-2.686,2.692-2.686h52.385c1.966,0,2.738.77,2.739,2.729q0,6.459,0,12.918c0,1.878-.805,2.675-2.707,2.676q-11.762,0-23.524,0H-221.4v4.814h1.116l23.342,0c2.292,0,2.988.683,2.989,2.938q0,6.324,0,12.647c0,1.959-.78,2.741-2.733,2.741q-11.807,0-23.614,0h-1.11v4.815h24.486c2.272,0,2.972.7,2.972,2.959q0,6.324,0,12.647c0,1.969-.752,2.709-2.747,2.71l-23.614,0h-1.067v4.79h3.058c2.388,0,3.431,1.01,3.479,3.363.007.355.042.709.069,1.149h1.143q7.555,0,15.109.007a1.762,1.762,0,0,1,1.035.174c.354.3.782.795.761,1.184a2.057,2.057,0,0,1-.822,1.239,2,2,0,0,1-1.133.17q-7.464.015-14.928.007h-1.159c-.033.516-.057.956-.09,1.4a2.8,2.8,0,0,1-2.869,2.769q-5.111.05-10.224,0a2.82,2.82,0,0,1-2.91-2.826C-230.89,124.284-230.909,123.869-230.936,123.358Zm-17.986-61.206h52.091V49.532h-52.091ZM-196.8,72.666H-248.89v12.62H-196.8Zm-52.121,35.763h52.093V95.8h-52.093Zm20.853,10.478v5.754h10.415v-5.754Z" fill="#fff"/>
    <path id="Path_1052" data-name="Path 1052" d="M-61.655,92.357q-3.3,0-6.6,0a1.531,1.531,0,0,1-1.562-.849A1.379,1.379,0,0,1-68.4,89.577c1.927-.028,3.855-.008,5.783-.008,2.56,0,5.12-.007,7.68,0,.975,0,1.535.448,1.609,1.221.092.958-.508,1.551-1.639,1.558C-57.2,92.367-59.426,92.356-61.655,92.357Z" transform="translate(-148.92 -35.124)" fill="#fff"/>
    <path id="Path_1053" data-name="Path 1053" d="M-125.5,83.369a2.571,2.571,0,0,1,2.609,2.548,2.58,2.58,0,0,1-2.675,2.487,2.489,2.489,0,0,1-2.522-2.51A2.475,2.475,0,0,1-125.5,83.369Z" transform="translate(-101.303 -30.052)" fill="#ff7d7d"/>
    <path id="Path_1054" data-name="Path 1054" d="M-214.7,88.41a2.514,2.514,0,0,1-2.564-2.567,2.493,2.493,0,0,1,2.564-2.47,2.557,2.557,0,0,1,2.639,2.513A2.582,2.582,0,0,1-214.7,88.41Z" transform="translate(-28.259 -30.056)" fill="#ff7d7d"/>
    <path id="Path_1055" data-name="Path 1055" d="M-167.621,85.834a2.5,2.5,0,0,1-2.564,2.561A2.548,2.548,0,0,1-172.8,85.87a2.532,2.532,0,0,1,2.537-2.512A2.493,2.493,0,0,1-167.621,85.834Z" transform="translate(-64.678 -30.043)" fill="#ff7d7d"/>
    <path id="Path_1056" data-name="Path 1056" d="M-61.52,220.255c-2.228,0-4.456.007-6.685,0-.96-.005-1.542-.458-1.632-1.214-.11-.919.536-1.557,1.645-1.564,2.288-.015,4.577,0,6.865-.005,2.108,0,4.216-.006,6.323,0,1.155,0,1.745.469,1.763,1.355.019.932-.586,1.428-1.776,1.431C-57.183,220.26-59.352,220.256-61.52,220.255Z" transform="translate(-149 -139.88)" fill="#ff7d7d"/>
    <path id="Path_1057" data-name="Path 1057" d="M-125.461,216.293a2.489,2.489,0,0,1-2.611-2.509,2.473,2.473,0,0,1,2.5-2.526,2.579,2.579,0,0,1,2.7,2.547A2.583,2.583,0,0,1-125.461,216.293Z" transform="translate(-101.313 -134.798)" fill="#fff"/>
    <path id="Path_1058" data-name="Path 1058" d="M-214.669,216.276a2.507,2.507,0,0,1-2.616-2.514,2.506,2.506,0,0,1,2.518-2.52,2.565,2.565,0,0,1,2.687,2.467A2.567,2.567,0,0,1-214.669,216.276Z" transform="translate(-28.245 -134.785)" fill="#fff"/>
    <path id="Path_1059" data-name="Path 1059" d="M-170.206,211.249a2.486,2.486,0,0,1,2.591,2.53,2.488,2.488,0,0,1-2.528,2.5,2.538,2.538,0,0,1-2.652-2.487A2.525,2.525,0,0,1-170.206,211.249Z" transform="translate(-64.684 -134.79)" fill="#fff"/>
    <path id="Path_1060" data-name="Path 1060" d="M-61.547,348.12c-2.2,0-4.4.006-6.594,0-1.063,0-1.662-.5-1.68-1.343-.02-.888.59-1.427,1.7-1.43q6.594-.016,13.189,0c1.136,0,1.719.5,1.712,1.4s-.584,1.367-1.733,1.37C-57.151,348.124-59.349,348.12-61.547,348.12Z" transform="translate(-149.022 -244.613)" fill="#fff"/>
    <path id="Path_1061" data-name="Path 1061" d="M-125.468,339.105a2.584,2.584,0,0,1,2.574,2.594,2.6,2.6,0,0,1-2.71,2.462,2.5,2.5,0,0,1-2.488-2.55A2.5,2.5,0,0,1-125.468,339.105Z" transform="translate(-101.297 -239.509)" fill="#ff7d7d"/>
    <path id="Path_1062" data-name="Path 1062" d="M-214.663,339.121a2.581,2.581,0,0,1,2.6,2.562,2.593,2.593,0,0,1-2.588,2.494,2.523,2.523,0,0,1-2.617-2.525A2.509,2.509,0,0,1-214.663,339.121Z" transform="translate(-28.26 -239.522)" fill="#ff7d7d"/>
    <path id="Path_1063" data-name="Path 1063" d="M-170.169,344.174a2.553,2.553,0,0,1-2.627-2.525,2.544,2.544,0,0,1,2.525-2.53,2.513,2.513,0,0,1,2.656,2.472A2.509,2.509,0,0,1-170.169,344.174Z" transform="translate(-64.683 -239.52)" fill="#ff7d7d"/>
  </g>
</svg>
