<svg xmlns="http://www.w3.org/2000/svg" width="76.207" height="85.616" viewBox="0 0 76.207 85.616">
  <g id="Group_302" data-name="Group 302" transform="translate(-571.2 -281.73)">
    <path id="Path_1046" data-name="Path 1046" d="M571.2,446.494c.032-.289.069-.577.094-.867a25.191,25.191,0,0,1,40.955-17.405,23.875,23.875,0,0,1,8.659,13.812,24.571,24.571,0,0,1-5.684,22.457,25.14,25.14,0,0,1-29.757,5.983,24.826,24.826,0,0,1-13.294-15.746,23.371,23.371,0,0,1-.931-5.49,1.254,1.254,0,0,0-.042-.2Zm25.2-20.429a21.72,21.72,0,1,0,21.711,22A21.73,21.73,0,0,0,596.4,426.064Z" transform="translate(0 -110.338)" fill="#fff"/>
    <path id="Path_1047" data-name="Path 1047" d="M742.374,329.715c-.031.316-.066.631-.094.948a25.214,25.214,0,0,1-20.173,22.678,1.737,1.737,0,1,1-.674-3.406,21.415,21.415,0,0,0,10.833-5.692,21.72,21.72,0,0,0,.639-30.559,20.65,20.65,0,0,0-11.95-6.425,21.75,21.75,0,0,0-25.1,17.166,1.731,1.731,0,1,1-3.4-.677,25.191,25.191,0,0,1,19.09-19.676,24.411,24.411,0,0,1,8-.515A25.181,25.181,0,0,1,741.9,323.838c.226,1.142.293,2.315.435,3.474a1.322,1.322,0,0,0,.042.168Z" transform="translate(-94.967 -17.003)" fill="#ff7d7d"/>
    <path id="Path_1048" data-name="Path 1048" d="M601.435,281.73a2.823,2.823,0,0,1,1.515.968q3.242,3.264,6.5,6.509a1.744,1.744,0,0,1,0,2.64q-3.455,3.456-6.911,6.909a1.728,1.728,0,0,1-2.942-.766,1.661,1.661,0,0,1,.467-1.667q1.9-1.9,3.806-3.8a1.8,1.8,0,0,1,.229-.167l-.04-.068a.93.93,0,0,0-.161-.027c-1.464,0-2.929-.029-4.391.026a14.206,14.206,0,0,0-8.819,3.4,14.394,14.394,0,0,0-5.087,8.969,13.855,13.855,0,0,0-.17,2.12c-.019,2.746-.007,5.493-.008,8.239a1.745,1.745,0,0,1-1.314,1.825,1.723,1.723,0,0,1-2.156-1.611c-.01-2.945-.065-5.893.011-8.836a17.546,17.546,0,0,1,4.2-11.072,18.1,18.1,0,0,1,14-6.529H604.1c-.1-.105-.155-.173-.217-.236-1.249-1.25-2.5-2.5-3.751-3.748a1.721,1.721,0,0,1-.513-1.82,1.657,1.657,0,0,1,1.439-1.218c.023,0,.042-.026.063-.039Z" transform="translate(-8.403)" fill="#ff7d7d"/>
    <path id="Path_1049" data-name="Path 1049" d="M790.893,549.878a2.988,2.988,0,0,1-1.431-.965q-3.234-3.253-6.484-6.49a1.737,1.737,0,0,1,0-2.655q3.464-3.464,6.929-6.928a1.649,1.649,0,0,1,1.742-.442,1.633,1.633,0,0,1,1.2,1.339,1.719,1.719,0,0,1-.531,1.606q-1.879,1.871-3.75,3.748c-.066.066-.129.135-.218.228a1.007,1.007,0,0,0,.165.032c1.533-.006,3.069.041,4.6-.031a14.119,14.119,0,0,0,8.652-3.417,14.625,14.625,0,0,0,5.233-11.179c.018-2.738.005-5.475.008-8.213a1.732,1.732,0,1,1,3.464-.028c0,2.72,0,5.44,0,8.161a18.1,18.1,0,0,1-18.157,18.176c-1.23-.007-2.461,0-3.691,0h-.323c.1.106.159.172.221.234,1.256,1.256,2.506,2.517,3.77,3.765a1.72,1.72,0,0,1,.522,1.772,1.664,1.664,0,0,1-1.383,1.251.229.229,0,0,0-.065.039Z" transform="translate(-165.422 -182.533)" fill="#fff"/>
    <path id="Path_1050" data-name="Path 1050" d="M639.439,505.3a1.566,1.566,0,0,1-1.4-1.047q-.9-2.181-1.791-4.367-5.14-12.567-10.287-25.13a1.71,1.71,0,0,1,.662-2.211,1.732,1.732,0,0,1,1.306-.144q4.908,1.224,9.819,2.439,5.841,1.449,11.684,2.9a2.055,2.055,0,0,1,1.02.58c1.714,1.775,3.437,3.541,5.152,5.315a1.647,1.647,0,0,1,.066,2.2q-1.856,2.374-3.722,4.74-5.488,6.985-10.975,13.972A1.785,1.785,0,0,1,639.439,505.3Zm2.247-7.93a1.129,1.129,0,0,0-.01.3.32.32,0,0,0,.136.2.34.34,0,0,0,.235-.043c.049-.023.079-.089.116-.137l6.659-8.473c.5-.633,1-1.263,1.488-1.9.059-.077.111-.235.073-.292a.427.427,0,0,0-.3-.129,2.921,2.921,0,0,0-.464.042q-3.307.319-6.614.639c-.441.043-.56.187-.593.629-.071.966-.151,1.932-.227,2.9C642.017,493.209,641.849,495.323,641.686,497.368ZM639.194,487.1a.563.563,0,0,0-.25-.546q-2.8-2.52-5.588-5.049c-.3-.267-.585-.542-.893-.792a.353.353,0,0,0-.316-.035c-.055.028-.048.191-.057.295,0,.038.03.08.046.12q2.951,7.214,5.907,14.425a.433.433,0,0,0,.271.248c.192.018.2-.164.217-.316q.134-1.682.269-3.365C638.931,490.439,639.061,488.791,639.194,487.1ZM641,483.849a3.276,3.276,0,0,0,.373-.224c.735-.592,1.466-1.19,2.2-1.786.537-.437,1.078-.871,1.608-1.317a.374.374,0,0,0,.129-.277c-.008-.069-.133-.131-.216-.182a.607.607,0,0,0-.174-.049l-5.792-1.439c-1.536-.382-3.071-.767-4.61-1.139a.465.465,0,0,0-.388.074c-.135.158.033.276.148.38l1.061.957q2.631,2.377,5.264,4.751A2.718,2.718,0,0,0,641,483.849Zm5.5.2,1.9-.182c.775-.075,1.551-.147,2.326-.23a.349.349,0,0,0,.233-.124c.028-.042-.02-.168-.07-.221-.5-.52-1-1.033-1.5-1.547a.349.349,0,0,0-.512-.036q-1.233,1-2.455,2a.25.25,0,0,0-.081.215C646.373,483.991,646.477,484.025,646.506,484.046Z" transform="translate(-42.779 -149.32)" fill="#fff"/>
  </g>
</svg>
