<svg xmlns="http://www.w3.org/2000/svg" width="87.864" height="107.123" viewBox="0 0 87.864 107.123">
  <g id="Group_362" data-name="Group 362" transform="translate(4663.589 -194.412)">
    <path id="Path_1111" data-name="Path 1111" d="M-4564.87,194.412a33.817,33.817,0,0,1,3.592,1.019c5.43,2.182,8.731,6.212,9.526,11.982a14.409,14.409,0,0,1-6.054,14.261c-2.5,1.867-5.542,2.38-8.54,2.854a104.259,104.259,0,0,1-17.729.965c-4.739-.063-9.481-.007-14.219-.127a62.524,62.524,0,0,1-12.836-1.606,14.331,14.331,0,0,1-10.877-12.6,14.9,14.9,0,0,1,8.548-15.273,39.5,39.5,0,0,1,4.644-1.475h3.558c1.46.434,2.961.762,4.371,1.322,3.474,1.378,5.526,4.238,7.31,7.329a89.226,89.226,0,0,1,6.263,14c.123.333.255.663.477,1.241.408-1.1.7-1.905,1.01-2.71a71.778,71.778,0,0,1,7.343-15.083,13.589,13.589,0,0,1,7.94-5.588c.7-.191,1.411-.338,2.116-.506Zm-19.89,27.8c7.31-.036,14.266-.065,21.138-1.57a11.38,11.38,0,0,0,8.708-11,11.866,11.866,0,0,0-8.18-11.317c-4.082-1.345-10.055-.424-12.968,4.561a80.087,80.087,0,0,0-4.163,7.946C-4581.838,214.478-4583.192,218.242-4584.76,222.214Zm-4.326-.066c-.553-1.563-1.021-2.971-1.546-4.358a78.973,78.973,0,0,0-6.855-14.739c-2.729-4.285-6.674-5.809-11.572-5.087a11.655,11.655,0,0,0-9.732,11.21A11.326,11.326,0,0,0-4610.1,220.6a81.811,81.811,0,0,0,15.675,1.542C-4592.7,222.186-4590.971,222.148-4589.086,222.148Z" transform="translate(-32.814)" fill="#ff7d7d"/>
    <path id="Path_1112" data-name="Path 1112" d="M-4657.547,383.534c-1.424,0-2.709.011-3.994,0-1.422-.016-2.04-.623-2.042-2.053q-.012-11.246,0-22.491c0-1.514.6-2.054,2.231-2.055q14.7-.006,29.4,0l53.776,0c1.981,0,2.45.474,2.45,2.47q0,10.88,0,21.759c0,1.843-.525,2.366-2.357,2.373q-1.674.006-3.348.014a2.057,2.057,0,0,0-.339.091v1.171q0,21.34,0,42.681c0,2.053-.446,2.5-2.522,2.5h-70.833c-1.944,0-2.42-.468-2.42-2.382q0-21.34,0-42.681Zm28.729-23.19v66.231h18.325V360.344Zm-25.3,23.221v43.01h21.794v-43.01Zm47.135,0v43.011h21.789V383.565Zm-25.319-23.192h-27.878V380.1h27.878Zm25.322-.055v19.8h27.851v-19.8Z" transform="translate(0 -128.455)" fill="#fff"/>
  </g>
</svg>
