<svg xmlns="http://www.w3.org/2000/svg" width="34.623" height="34.616" viewBox="0 0 34.623 34.616">
  <path id="Path_4650" data-name="Path 4650" d="M-5287.968,2146.232a17.291,17.291,0,0,1-17.211,17.344,17.31,17.31,0,0,1-17.412-17.261,17.34,17.34,0,0,1,17.222-17.354A17.313,17.313,0,0,1-5287.968,2146.232Zm-15.5-3.86c-.026-.505-.054-.822-.057-1.139-.01-1.472.2-1.68,1.653-1.687.555,0,1.109,0,1.756,0v-3.71c-1.275,0-2.382-.012-3.489,0a4.134,4.134,0,0,0-4.433,4.426c-.013.663,0,1.327,0,2.016l-2.088.143v4.3h2.116v10.745h4.363V2146.7h3.172c.132-1.464.256-2.834.39-4.326Z" transform="translate(5322.591 -2128.961)" fill="#fff"/>
</svg>
