<?xml version="1.0" encoding="utf-8"?>
<!-- Generator: Adobe Illustrator 24.3.0, SVG Export Plug-In . SVG Version: 6.00 Build 0)  -->
<svg version="1.1" id="Layer_1" xmlns="http://www.w3.org/2000/svg" xmlns:xlink="http://www.w3.org/1999/xlink" x="0px" y="0px"
	 viewBox="0 0 2175.3 656.5" style="enable-background:new 0 0 2175.3 656.5;" xml:space="preserve">
<style type="text/css">
	.st0{fill:#96681D;}
</style>
<g>
	<path class="st0" d="M2428.9,554.7l-0.9-0.4l-217.7-229.5l0-0.2l-0.3-0.1l-0.2-0.2l-0.1,0.1l-131.4-55.6l-0.8-1.4l-0.1,1.7
		l-35,105.3l-143.3-66.9l-0.9-0.4l11.9,57.8l-0.4-0.1l-0.2,0.2c-5,6.1-121.1,147.3-126.6,156.9l-1-0.1l0.6,0.6
		c-4.5,4.4-50.7,49.3-94.8,90.8l-53.9-3.6l31.1,24.9c-29,27-53.3,48.6-58.4,50.4l0.3,1l96.2-21l58.8,47.1l0.7,0.6l6.9-62.1l105.6-23
		l-71,85.6l-0.4,0.5l330.8,154.4l-21.5-170.6l315.1-142.3L2428.9,554.7z M2114,619.9l-11.7-5.4l-7.5-59.5l28.6,35.9L2114,619.9z
		 M2124.1,591.8l41.5,52.1l-50.7-23.6L2124.1,591.8z M2078.4,270.9l52.2,90.9l-56.7,26.8L2078.4,270.9z M1999.1,567.5l-40.2,30.2
		l-11.1-54.1L1999.1,567.5z M1947.6,542.5l-0.1-0.6l0.4-0.4l100-44.6l-0.4-0.9l-98.1,43.8l65.4-78.7l0.1,0l0.1-0.2l2.6-3.2
		l30.9,38.8l-9.4,41.1l-38.9,29.3L1947.6,542.5z M2034.8,400.7l37.2-10.3l-54.6,65.7l-0.8-0.9L2034.8,400.7z M2015.9,454.2
		l-31.6-39.6l49.3-13.6L2015.9,454.2z M2072.4,391.4l-23.8,103.8l-30.5-38.4L2072.4,391.4z M2016.8,456.9l-1.1,1.4l0.7-2
		L2016.8,456.9z M2049.1,497.5l16.1,20.2l-25.1,18.9L2049.1,497.5z M2038.5,539.1l-9.5,41.3l-28-13L2038.5,539.1z M2039.8,538.2
		l26.1-19.6l27.7,34.8l7.6,60.6l-71.2-33.1L2039.8,538.2z M2066.6,517.9l20.5-15.4l6.2,49L2066.6,517.9z M2066,517.2l-16.6-20.9
		l23.8-103.9l13.8,109L2066,517.2z M2074,390.3l99.2,46.3l-85.2,64.2L2074,390.3z M2172.8,435.3l-97.9-45.7l0.9-0.2l-0.7-0.1
		l56.1-26.5L2172.8,435.3z M2132,362.3l76.9-36.4l-35.2,109L2132,362.3z M2071,389.6l-35.8,9.9l4.8-14.4L2071,389.6z M2040.3,384.1
		l2.8-8.3l27.2,12.7L2040.3,384.1z M2034,399.8l-50.3,13.9l-33.3-41.8l88.5,13L2034,399.8z M1982.6,414l-58.2,16l-13.1-63.8
		l37.6,5.5L1982.6,414z M1983.3,414.9l32.2,40.5l-1.7,5l-66.7,80.3L1924.7,431L1983.3,414.9z M1946.2,541.1l-0.8,0.4l-105.4-87
		l83.7-23.1L1946.2,541.1z M1945.5,542.6l-68.4,82.4l-92.7-101.8l160.8,19.3L1945.5,542.6z M1875.5,625.8l-98.4-36.4l6.5-65.6
		L1875.5,625.8z M1877.8,625.8l68.7-82.7l0.2,0.1l11.3,55.3l-63.1,47.5l-17.1-19l0.9-0.2L1877.8,625.8z M1958.2,599.5l31,151.1
		l-93.6-104L1958.2,599.5z M1959.1,598.9l41-30.9l28.7,13.4L1990.2,750L1959.1,598.9z M2029.8,581.8l71.6,33.3l10.3,81.8
		l-120.9,54.6L2029.8,581.8z M2102.4,615.6l11.3,5.2l-7.6,23.6L2102.4,615.6z M2094.5,553l-6.5-51.2l84.6-63.7l-48.9,151.6
		L2094.5,553z M2174.4,436l35.5-110.1l215.5,227.2L2174.4,436z M2208.5,325l-77,36.4l-52.4-91.2L2208.5,325z M2077.3,272.7l-4.4,116
		l-29.5-13.8L2077.3,272.7z M2039.3,384l-89.8-13.2l-48.9-61.4l141.5,66L2039.3,384z M1899.8,310l48.2,60.6l-36.9-5.4L1899.8,310z
		 M1910.1,366l0.2,0l13.2,64.3l-84.7,23.4l-0.5,0.1C1862.7,423.7,1890.4,390,1910.1,366z M1942.7,540.5L1809.3,490l-0.4,0.9
		l132.4,50.1L1784,522.2c2.9-4.7,26.4-34,54.1-68.1L1942.7,540.5z M1782.5,523.9l-6.5,65.4l-87,24.2
		C1731.1,573.9,1774.8,531.5,1782.5,523.9z M1776,590.3l-7.5,59.5l-65.3,14.2l-36.7-29.4c7-6.5,14.3-13.3,21.6-20.3L1776,590.3z
		 M1636.9,611l49.8,3.3c-7.1,6.7-14.2,13.4-21,19.7L1636.9,611z M1609.7,684.4c8.7-5.9,30.6-25.4,56-49.1l36.2,29L1609.7,684.4z
		 M1761.7,710.8l-57.5-46l64.2-14L1761.7,710.8z M1777,590.4l97.3,36.4l-104.7,22.8L1777,590.4z M2133.1,866.4l-328-153.1l71.5-86
		l0.2,0l112.9,125.4l0.1,0.5l0.2-0.1l0.4,0.4l0.2-0.7l121.3-54.8L2133.1,866.4z M2112.7,696.4l-6.3-49.7l8.2-25.5l54.4,25.3
		l-44.5-55.9l49.6-153.5l0.1-0.1l252.3,117.7L2112.7,696.4z"/>
	<circle class="st0" cx="1946.1" cy="542.2" r="7.2"/>
	<path class="st0" d="M2054.8,495.4c0,3.3-2.7,6-6,6c-3.3,0-6-2.7-6-6c0-3.3,2.7-6,6-6C2052.2,489.4,2054.8,492.1,2054.8,495.4z"/>
	<path class="st0" d="M2022.4,457c0,3.1-2.5,5.5-5.5,5.5c-3.1,0-5.5-2.5-5.5-5.5c0-3.1,2.5-5.5,5.5-5.5
		C2020,451.4,2022.4,453.9,2022.4,457z"/>
	<path class="st0" d="M1987.3,413.8c0,2.3-1.9,4.2-4.2,4.2s-4.2-1.9-4.2-4.2c0-2.3,1.9-4.2,4.2-4.2S1987.3,411.5,1987.3,413.8z"/>
	
		<ellipse transform="matrix(0.1602 -0.9871 0.9871 0.1602 1357.61 2373.7603)" class="st0" cx="2073.8" cy="389" rx="7.6" ry="7.6"/>
	<path class="st0" d="M2179.8,436.5c0,3.2-2.6,5.9-5.9,5.9s-5.9-2.6-5.9-5.9c0-3.2,2.6-5.9,5.9-5.9S2179.8,433.2,2179.8,436.5z"/>
	<circle class="st0" cx="2131.6" cy="362.7" r="6"/>
	<path class="st0" d="M2084.6,270.4c0,3.8-3.1,7-7,7c-3.8,0-7-3.1-7-7c0-3.8,3.1-7,7-7C2081.5,263.5,2084.6,266.6,2084.6,270.4z"/>
	<path class="st0" d="M2107.9,613.8c0,3.2-2.6,5.7-5.7,5.7s-5.7-2.6-5.7-5.7c0-3.2,2.6-5.7,5.7-5.7S2107.9,610.6,2107.9,613.8z"/>
	<path class="st0" d="M1927.7,431c0,2.1-1.7,3.7-3.7,3.7c-2.1,0-3.7-1.7-3.7-3.7c0-2.1,1.7-3.7,3.7-3.7
		C1926,427.2,1927.7,428.9,1927.7,431z"/>
	<circle class="st0" cx="1898.6" cy="307.6" r="6.2"/>
	<path class="st0" d="M1844.2,452.9c0,3-2.4,5.4-5.4,5.4c-3,0-5.4-2.4-5.4-5.4c0-3,2.4-5.4,5.4-5.4
		C1841.8,447.6,1844.2,450,1844.2,452.9z"/>
	<path class="st0" d="M1788.7,522.2c0,3-2.4,5.4-5.4,5.4s-5.4-2.4-5.4-5.4c0-3,2.4-5.4,5.4-5.4S1788.7,519.2,1788.7,522.2z"/>
	<path class="st0" d="M1881.2,625.6c0,3-2.4,5.4-5.4,5.4c-3,0-5.4-2.4-5.4-5.4c0-3,2.4-5.4,5.4-5.4
		C1878.8,620.3,1881.2,622.7,1881.2,625.6z"/>
	<circle class="st0" cx="1776" cy="590.2" r="5"/>
	<path class="st0" d="M1640.3,610.7c0,2.4-1.9,4.3-4.3,4.3s-4.3-1.9-4.3-4.3c0-2.4,1.9-4.3,4.3-4.3S1640.3,608.3,1640.3,610.7z"/>
	<path class="st0" d="M1812,492.7c-1.7,1.7-4.4,1.7-6,0c-1.7-1.7-1.7-4.4,0-6s4.4-1.7,6,0S1813.7,491.1,1812,492.7z"/>
</g>
<g>
	<path class="st0" d="M-313.5,575.8L1.6,718.2L-20,888.7l330.8-154.4l-0.4-0.5l-71-85.6l105.6,23l6.9,62.1l0.7-0.6l58.8-47.1
		l96.2,21l0.3-1c-5.1-1.8-29.4-23.5-58.4-50.4l31.1-24.9l-53.9,3.6c-44.1-41.5-90.3-86.5-94.8-90.8l0.6-0.6l-1,0.1
		c-5.5-9.6-121.6-150.8-126.6-156.9l-0.2-0.2l-0.4,0.1l11.9-57.8l-0.9,0.4L71.9,395.1l-35-105.3l-0.1-1.7l-0.8,1.4l-131.4,55.6
		l-0.1-0.1l-0.2,0.2l-0.3,0.1l0,0.2l-217.7,229.5l-0.9,0.4L-313.5,575.8z M-9.1,611.5l28.6-35.9L12,635.1l-11.7,5.4L-9.1,611.5z
		 M-0.6,641l-50.7,23.6l41.5-52.1L-0.6,641z M40.4,409.3l-56.7-26.8l52.2-90.9L40.4,409.3z M166.5,564.4l-11.1,54.1l-40.2-30.2
		L166.5,564.4z M114.3,587.5l-38.9-29.3L66,517.2l30.9-38.8l2.6,3.2l0.1,0.2l0.1,0l65.4,78.7L67,516.6l-0.4,0.9l100,44.6l0.4,0.4
		l-0.1,0.6L114.3,587.5z M97.7,475.8l-0.8,0.9l-54.6-65.7l37.2,10.3L97.7,475.8z M80.7,421.6l49.3,13.6l-31.6,39.6L80.7,421.6z
		 M96.3,477.6l-30.5,38.4L41.9,412.1L96.3,477.6z M98.1,476.9l0.7,2l-1.1-1.4L98.1,476.9z M74.2,557.3l-25.1-18.9l16.1-20.2
		L74.2,557.3z M113.3,588l-28,13l-9.5-41.3L113.3,588z M84.3,601.5l-71.2,33.1l7.6-60.6l27.7-34.8l26.1,19.6L84.3,601.5z M21,572.1
		l6.2-49l20.5,15.4L21,572.1z M27.3,522l13.8-109l23.8,103.9l-16.6,20.9L27.3,522z M26.4,521.3l-85.2-64.2l99.2-46.3L26.4,521.3z
		 M-16.8,383.4l56.1,26.5l-0.7,0.1l0.9,0.2l-97.9,45.7L-16.8,383.4z M-59.4,455.5l-35.2-109l76.9,36.4L-59.4,455.5z M74.4,405.7
		l4.8,14.4l-35.8-9.9L74.4,405.7z M44.1,409.2l27.2-12.7l2.8,8.3L44.1,409.2z M75.4,405.6l88.5-13l-33.3,41.8l-50.3-13.9L75.4,405.6
		z M165.4,392.4l37.6-5.5l-13.1,63.8l-58.2-16L165.4,392.4z M189.7,451.7l-22.5,109.6L100.5,481l-1.7-5l32.2-40.5L189.7,451.7z
		 M190.6,452l83.7,23.1l-105.4,87l-0.8-0.4L190.6,452z M169.1,563.2l160.8-19.3l-92.7,101.8l-68.4-82.4L169.1,563.2z M330.8,544.4
		l6.5,65.6l-98.4,36.4L330.8,544.4z M235.6,647.5l0.9,0.2l-17.1,19l-63.1-47.5l11.3-55.3l0.2-0.1l68.7,82.7L235.6,647.5z
		 M218.7,667.3l-93.6,104l31-151.1L218.7,667.3z M124.2,770.7L85.5,602l28.7-13.4l41,30.9L124.2,770.7z M123.5,772.1L2.6,717.5
		L13,635.8l71.6-33.3L123.5,772.1z M8.3,665.1l-7.6-23.6l11.3-5.2L8.3,665.1z M-9.4,610.3l-48.9-151.6l84.6,63.7l-6.5,51.2
		L-9.4,610.3z M-311.2,573.8l215.5-227.2l35.5,110.1L-311.2,573.8z M35.2,290.9l-52.4,91.2l-77-36.4L35.2,290.9z M71,395.5
		l-29.5,13.8l-4.4-116L71,395.5z M72.2,396.1l141.5-66l-48.9,61.4l-89.8,13.2L72.2,396.1z M203.2,385.8l-36.9,5.4l48.2-60.6
		L203.2,385.8z M276,474.5l-0.5-0.1L190.8,451l13.2-64.3l0.2,0C223.9,410.6,251.6,444.4,276,474.5z M276.3,474.8
		c27.7,34.1,51.2,63.3,54.1,68.1L173,561.7l132.4-50.1l-0.4-0.9l-133.5,50.5L276.3,474.8z M425.2,634.2l-87-24.2l-6.5-65.4
		C339.6,552.1,383.2,594.6,425.2,634.2z M426.2,635.1c7.3,6.9,14.6,13.7,21.6,20.3l-36.7,29.4l-65.3-14.2l-7.5-59.5L426.2,635.1z
		 M448.7,654.7c-6.8-6.3-13.9-13-21-19.7l49.8-3.3L448.7,654.7z M412.4,685l36.2-29c25.4,23.6,47.3,43.2,56,49.1L412.4,685z
		 M346,671.5l64.2,14l-57.5,46L346,671.5z M344.8,670.3l-104.7-22.8l97.3-36.4L344.8,670.3z M2.5,718.6l121.3,54.8l0.2,0.7l0.4-0.4
		l0.2,0.1l0.1-0.5l112.9-125.4l0.2,0l71.5,86l-328,153.1L2.5,718.6z M-312.1,575.4l252.3-117.7l0.1,0.1l49.6,153.5l-44.5,55.9
		l54.4-25.3L8,667.4l-6.3,49.7L-312.1,575.4z"/>
	<circle class="st0" cx="168.2" cy="562.9" r="7.2"/>
	<path class="st0" d="M59.5,516.1c0,3.3,2.7,6,6,6c3.3,0,6-2.7,6-6c0-3.3-2.7-6-6-6C62.2,510.1,59.5,512.8,59.5,516.1z"/>
	<path class="st0" d="M91.9,477.6c0,3.1,2.5,5.5,5.5,5.5s5.5-2.5,5.5-5.5c0-3.1-2.5-5.5-5.5-5.5S91.9,474.6,91.9,477.6z"/>
	<path class="st0" d="M127,434.5c0,2.3,1.9,4.2,4.2,4.2s4.2-1.9,4.2-4.2c0-2.3-1.9-4.2-4.2-4.2S127,432.2,127,434.5z"/>
	<ellipse transform="matrix(0.9871 -0.1602 0.1602 0.9871 -65.1046 11.7812)" class="st0" cx="40.5" cy="409.7" rx="7.6" ry="7.6"/>
	<path class="st0" d="M-65.4,457.1c0,3.2,2.6,5.9,5.9,5.9c3.2,0,5.9-2.6,5.9-5.9c0-3.2-2.6-5.9-5.9-5.9
		C-62.8,451.3-65.4,453.9-65.4,457.1z"/>
	<circle class="st0" cx="-17.2" cy="383.4" r="6"/>
	<path class="st0" d="M29.7,291.1c0,3.8,3.1,7,7,7s7-3.1,7-7c0-3.8-3.1-7-7-7S29.7,287.3,29.7,291.1z"/>
	<path class="st0" d="M6.5,634.5c0,3.2,2.6,5.7,5.7,5.7s5.7-2.6,5.7-5.7c0-3.2-2.6-5.7-5.7-5.7S6.5,631.3,6.5,634.5z"/>
	<path class="st0" d="M186.6,451.7c0,2.1,1.7,3.7,3.7,3.7c2.1,0,3.7-1.7,3.7-3.7c0-2.1-1.7-3.7-3.7-3.7
		C188.3,447.9,186.6,449.6,186.6,451.7z"/>
	<circle class="st0" cx="215.7" cy="328.2" r="6.2"/>
	<path class="st0" d="M270.2,473.6c0,3,2.4,5.4,5.4,5.4c3,0,5.4-2.4,5.4-5.4c0-3-2.4-5.4-5.4-5.4
		C272.6,468.2,270.2,470.6,270.2,473.6z"/>
	<path class="st0" d="M325.6,542.9c0,3,2.4,5.4,5.4,5.4c3,0,5.4-2.4,5.4-5.4s-2.4-5.4-5.4-5.4C328,537.5,325.6,539.9,325.6,542.9z"
		/>
	<path class="st0" d="M233.2,646.3c0,3,2.4,5.4,5.4,5.4c3,0,5.4-2.4,5.4-5.4c0-3-2.4-5.4-5.4-5.4C235.6,641,233.2,643.4,233.2,646.3
		z"/>
	<circle class="st0" cx="338.4" cy="610.8" r="5"/>
	<path class="st0" d="M474.1,631.4c0,2.4,1.9,4.3,4.3,4.3c2.4,0,4.3-1.9,4.3-4.3c0-2.4-1.9-4.3-4.3-4.3
		C476,627,474.1,629,474.1,631.4z"/>
	<path class="st0" d="M302.3,513.4c1.7,1.7,4.4,1.7,6,0c1.7-1.7,1.7-4.4,0-6c-1.7-1.7-4.4-1.7-6,0
		C300.7,509,300.7,511.7,302.3,513.4z"/>
</g>
<g>
	<path class="st0" d="M441.8,841.5l345.7-2.7l51.9,163.9L1075.2,724l-0.6-0.3l-100.3-47.9l105.5-23.3l32.3,53.5l0.4-0.8l33.7-67.4
		l96.1-21.2l-0.2-1c-5.4,0.5-36.5-9-74.2-21.3l17.8-35.6l-47.4,25.8c-57.4-19.3-118.2-40.7-124.1-42.8l0.3-0.8l-0.8,0.5
		c-9-6.4-173.6-86-180.7-89.4l-0.3-0.1l-0.3,0.2l-13.4-57.5l-0.6,0.8L716.2,516l-75.9-81l-0.8-1.5l-0.1,1.6l-96,105.5l-0.1,0
		l-0.1,0.2l-0.2,0.3l0.1,0.1L441.4,840.7l-0.6,0.8L441.8,841.5z M733.3,746.4l10.9-44.6l18.1,57.2l-8.4,9.9L733.3,746.4z
		 M753.3,769.6l-36.2,42.6l15.8-64.7L753.3,769.6z M693.5,542.1l-62.8-0.6l9.4-104.4L693.5,542.1z M873,630.1l12.6,53.8l-49.2-10.6
		L873,630.1z M835.3,672.9l-47.6-10.3l-25.8-33.4l11.8-48.2l3.7,1.8l0.1,0.1l0.1-0.1l92.3,44.1l-107.4,1.3l0,1l109.5-1.4l0.5,0.2
		l0.1,0.6L835.3,672.9z M773.4,578.5l-0.3,1.2L696,542.8l38.1-6.3L773.4,578.5z M735.3,536.4l50.4-8.3l-12.1,49.2L735.3,536.4z
		 M772.8,580.6l-11.7,47.6L696,543.9L772.8,580.6z M774.2,579.3l1.4,1.5l-1.6-0.8L774.2,579.3z M786.2,662.3l-30.7-6.6l6.2-25.1
		L786.2,662.3z M834.6,673.8l-20,23.6l-25.9-33.5L834.6,673.8z M813.9,698.2l-50.8,59.9l-18.4-58.2l10.6-43.2l31.9,6.9L813.9,698.2z
		 M744.1,698l-14.9-47l25.1,5.4L744.1,698z M728.8,649.9l-33.2-104.8l65.2,84.4l-6.4,25.9L728.8,649.9z M727.7,649.7l-104.3-22.6
		l70.7-83.5L727.7,649.7z M630.7,542.5l62,0.6l-0.6,0.4l0.9-0.2l-69.8,82.5L630.7,542.5z M622.2,625.8l-77.6-84.2l85,0.8
		L622.2,625.8z M722.9,524.6l10.4,11.1l-36.6,6L722.9,524.6z M696.8,540.4l19.4-22.9l6,6.4L696.8,540.4z M723.7,524l75-48.9L786,527
		l-51.5,8.5L723.7,524z M799.9,474.4l31.8-20.8l14.8,63.5l-59.5,9.8L799.9,474.4z M846.8,518l25.5,109l-94.2-45l-3.6-3.9l12.3-50.3
		L846.8,518z M847.8,517.9l85.7-14.1L874.2,627l-0.9,0L847.8,517.9z M874.8,627.9l137.9-84.8l-41.5,131.2l-96.6-46.2L874.8,627.9z
		 M1013.8,543.1l33.4,56.9L973,674.4L1013.8,543.1z M970.5,676.6l0.9-0.2l-7.6,24.4L886.6,684l-12.8-54.9l0.1-0.2l97,46.3
		L970.5,676.6z M963.5,701.7L922,835.3l-35.1-150.2L963.5,701.7z M920.9,835.1L815.2,698.2l20.5-24.2l50.1,10.9L920.9,835.1z
		 M920.9,836.7l-132.6,1l-24.9-78.6l51.1-60.2L920.9,836.7z M771.4,787.8l-16.8-18.2l8-9.5L771.4,787.8z M732.5,745.5L624.5,628.3
		l103.5,22.4l15.6,49.2L732.5,745.5z M443.1,838.7l100.6-296.6l78.4,85.1L443.1,838.7z M639.2,436.7l-9.4,104.7l-85.2-0.8
		L639.2,436.7z M715.5,516.8l-21.1,24.9l-52.6-103.5L715.5,516.8z M716.8,516.7l100.9-119.2L799,473.7l-76,49.6L716.8,516.7z
		 M831.5,452.6l-31.2,20.4l18.4-75.2L831.5,452.6z M934.8,502.6l-0.5,0.1l-86.7,14.2L832.6,453l0.2-0.1
		C860.7,466.4,900,485.5,934.8,502.6z M935.1,502.7c39.4,19.4,73,36.1,77.6,39.2l-135,83L977,524l-0.7-0.7L876.2,625L935.1,502.7z
		 M1137.1,585.1l-89.1,14.5l-33.3-56.7C1025,546.5,1082.4,566.7,1137.1,585.1z M1138.4,585.5c9.6,3.2,19,6.3,28.1,9.3l-21,42
		l-65.3,14.4l-31.7-50.9L1138.4,585.5z M1167,593.9c-8.9-2.9-18.1-6-27.4-9.1l43.8-23.8L1167,593.9z M1146.8,636.6l20.7-41.4
		c33,10.8,61.1,19.4,71.4,21.1L1146.8,636.6z M1080.8,652.2l64.1-14.2l-32.9,65.8L1080.8,652.2z M1079.2,651.5l-104.7,23.1
		l73.1-73.8L1079.2,651.5z M788.6,838.8l133.1-1l0.4,0.6l0.2-0.6l0.3,0l-0.1-0.5l50-161.1l0.2,0l100.9,48.2l-233.8,276.4
		L788.6,838.8z M442.9,840.5L622.7,628l0.1,0l109.3,118.7l-17,69.4l38.8-45.8l18.2,19.7l15.1,47.8L442.9,840.5z"/>
	<circle class="st0" cx="873.9" cy="628" r="7.2"/>
	<path class="st0" d="M755.5,631c1.4,3,4.9,4.3,7.9,2.9c3-1.4,4.3-4.9,2.9-7.9c-1.4-3-4.9-4.3-7.9-2.9S754.2,628,755.5,631z"/>
	<path class="st0" d="M768.9,582.5c1.3,2.8,4.6,4,7.3,2.7s4-4.6,2.7-7.3c-1.3-2.8-4.6-4-7.3-2.7
		C768.8,576.5,767.6,579.8,768.9,582.5z"/>
	<path class="st0" d="M782.7,528.7c1,2.1,3.4,3,5.5,2s3-3.4,2-5.5s-3.4-3-5.5-2C782.6,524.1,781.7,526.6,782.7,528.7z"/>
	
		<ellipse transform="matrix(0.8293 -0.5588 0.5588 0.8293 -184.6567 480.3098)" class="st0" cx="693.8" cy="542.4" rx="7.6" ry="7.6"/>
	<path class="st0" d="M617.4,629.8c1.4,2.9,4.8,4.2,7.8,2.9c2.9-1.4,4.2-4.8,2.9-7.8c-1.4-2.9-4.8-4.2-7.8-2.9
		C617.3,623.4,616.1,626.9,617.4,629.8z"/>
	<circle class="st0" cx="630.3" cy="542.7" r="6"/>
	<path class="st0" d="M634.3,439.2c1.6,3.5,5.7,5,9.2,3.4s5-5.7,3.4-9.2c-1.6-3.5-5.7-5-9.2-3.4
		C634.2,431.6,632.7,435.7,634.3,439.2z"/>
	<path class="st0" d="M757,760.8c1.3,2.9,4.7,4.1,7.6,2.8c2.9-1.3,4.1-4.7,2.8-7.6c-1.3-2.9-4.7-4.1-7.6-2.8
		C756.9,754.5,755.7,757.9,757,760.8z"/>
	<path class="st0" d="M844,519.3c0.9,1.9,3.1,2.7,5,1.8c1.9-0.9,2.7-3.1,1.8-5c-0.9-1.9-3.1-2.7-5-1.8
		C844,515.2,843.2,517.4,844,519.3z"/>
	<circle class="st0" cx="818.8" cy="395" r="6.2"/>
	<path class="st0" d="M929.1,504.2c1.2,2.7,4.4,3.9,7.1,2.6c2.7-1.2,3.9-4.4,2.6-7.1c-1.2-2.7-4.4-3.9-7.1-2.6
		C929,498.3,927.8,501.5,929.1,504.2z"/>
	<path class="st0" d="M1008.4,543.9c1.2,2.7,4.4,3.9,7.1,2.6s3.9-4.4,2.6-7.1c-1.2-2.7-4.4-3.9-7.1-2.6
		C1008.4,538,1007.2,541.2,1008.4,543.9z"/>
	<path class="st0" d="M967.8,676.6c1.2,2.7,4.4,3.9,7.1,2.6c2.7-1.2,3.9-4.4,2.6-7.1c-1.2-2.7-4.4-3.9-7.1-2.6
		C967.7,670.7,966.6,673.9,967.8,676.6z"/>
	<circle class="st0" cx="1048.5" cy="600.3" r="5"/>
	<path class="st0" d="M1180.3,562.1c1,2.2,3.6,3.1,5.8,2.1c2.2-1,3.1-3.6,2.1-5.8c-1-2.2-3.6-3.1-5.8-2.1
		C1180.3,557.4,1179.3,559.9,1180.3,562.1z"/>
	<path class="st0" d="M975,526.9c2.2,0.8,4.7-0.3,5.5-2.5c0.8-2.2-0.3-4.7-2.5-5.5s-4.7,0.3-5.5,2.5S972.7,526.1,975,526.9z"/>
</g>
<g>
	<path class="st0" d="M1747.2,836.9l-0.6-0.8L1645,536.6l0.1-0.1l-0.2-0.3l-0.1-0.2l-0.1,0l-96-105.5l-0.1-1.6l-0.8,1.5l-75.9,81
		l-102.2-120.7l-0.6-0.8l-13.4,57.5l-0.3-0.2l-0.3,0.1c-7.1,3.4-171.7,83.1-180.7,89.4l-0.8-0.5l0.3,0.8
		c-5.9,2.1-66.7,23.5-124.1,42.8l-47.4-25.8l17.8,35.6c-37.6,12.3-68.8,21.8-74.2,21.3l-0.2,1l96.1,21.2l33.7,67.4l0.4,0.8
		l32.3-53.5l105.5,23.3l-100.3,47.9l-0.6,0.3l235.8,278.7l51.9-163.9l345.7,2.7L1747.2,836.9z M1434,764.2l-8.4-9.9l18.1-57.2
		l10.9,44.6L1434,764.2z M1454.9,742.9l15.8,64.7l-36.2-42.6L1454.9,742.9z M1547.8,432.4l9.4,104.4l-62.8,0.6L1547.8,432.4z
		 M1351.5,668.5l-49.2,10.6l12.6-53.8L1351.5,668.5z M1315.2,624.2l0.1-0.6l0.5-0.2l109.5,1.4l0-1l-107.4-1.3l92.3-44.1l0.1,0.1
		l0.1-0.1l3.7-1.8l11.8,48.2l-25.8,33.4l-47.6,10.3L1315.2,624.2z M1453.8,531.9l38.1,6.3l-77.1,36.8l-0.3-1.2L1453.8,531.9z
		 M1414.3,572.7l-12.1-49.2l50.4,8.3L1414.3,572.7z M1491.9,539.3l-65.1,84.3l-11.7-47.6L1491.9,539.3z M1413.9,575.4l-1.6,0.8
		l1.4-1.5L1413.9,575.4z M1426.3,625.9l6.2,25.1l-30.7,6.6L1426.3,625.9z M1399.3,659.2l-25.9,33.5l-20-23.6L1399.3,659.2z
		 M1400.8,658.9l31.9-6.9l10.6,43.2l-18.4,58.2l-50.8-59.9L1400.8,658.9z M1433.7,651.8l25.1-5.4l-14.9,47L1433.7,651.8z
		 M1433.4,650.8l-6.4-25.9l65.2-84.4l-33.2,104.8L1433.4,650.8z M1493.8,538.9l70.7,83.5L1460.2,645L1493.8,538.9z M1564.7,621.2
		l-69.8-82.5l0.9,0.2l-0.6-0.4l62-0.6L1564.7,621.2z M1558.2,537.8l85-0.8l-77.6,84.2L1558.2,537.8z M1491.3,537.1l-36.6-6
		l10.4-11.1L1491.3,537.1z M1465.8,519.2l6-6.4l19.4,22.9L1465.8,519.2z M1453.5,530.9l-51.5-8.5l-12.7-51.9l75,48.9L1453.5,530.9z
		 M1400.9,522.2l-59.5-9.8l14.8-63.5l31.8,20.8L1400.9,522.2z M1401.1,523.3l12.3,50.3l-3.6,3.9l-94.2,45l25.5-109L1401.1,523.3z
		 M1314.6,622.4l-0.9,0l-59.3-123.2l85.7,14.1L1314.6,622.4z M1313.3,623.5l-96.6,46.2l-41.5-131.2l137.9,84.8L1313.3,623.5z
		 M1214.9,669.7l-74.1-74.3l33.4-56.9L1214.9,669.7z M1217,670.6l97-46.3l0.1,0.2l-12.8,54.9l-77.2,16.7l-7.6-24.4l0.9,0.2
		L1217,670.6z M1301,680.5l-35.1,150.2l-41.5-133.6L1301,680.5z M1302.1,680.3l50.1-10.9l20.5,24.2L1267,830.5L1302.1,680.3z
		 M1373.4,694.3l51.1,60.2l-24.9,78.6l-132.6-1L1373.4,694.3z M1425.3,755.5l8,9.5l-16.8,18.2L1425.3,755.5z M1444.3,695.3
		l15.6-49.2l103.5-22.4l-107.9,117.1L1444.3,695.3z M1565.8,622.5l78.4-85.1L1744.8,834L1565.8,622.5z M1643.3,536l-85.2,0.8
		l-9.4-104.7L1643.3,536z M1546.1,433.6L1493.5,537l-21.1-24.9L1546.1,433.6z M1464.9,518.7l-76-49.6l-18.7-76.2l100.9,119.2
		L1464.9,518.7z M1369.2,393.1l18.4,75.2l-31.2-20.4L1369.2,393.1z M1355.1,448.3l0.2,0.1l-14.9,63.9l-86.7-14.2l-0.5-0.1
		C1287.9,480.9,1327.2,461.8,1355.1,448.3z M1311.7,620.4l-100.1-101.7l-0.7,0.7l99.3,100.9l-135-83c4.6-3.1,38.2-19.8,77.6-39.2
		L1311.7,620.4z M1173.2,538.2l-33.3,56.7l-89.1-14.5C1105.5,562.1,1162.9,541.8,1173.2,538.2z M1139.4,595.8l-31.7,50.9l-65.3-14.4
		l-21-42c9.1-3,18.6-6.1,28.1-9.3L1139.4,595.8z M1004.4,556.4l43.8,23.8c-9.3,3.1-18.5,6.2-27.4,9.1L1004.4,556.4z M949,611.6
		c10.3-1.7,38.4-10.3,71.4-21.1l20.7,41.4L949,611.6z M1075.9,699.2l-32.9-65.8l64.1,14.2L1075.9,699.2z M1140.3,596.3l73.1,73.8
		l-104.7-23.1L1140.3,596.3z M1348.1,996l-233.8-276.4l100.9-48.2l0.2,0l50,161.1l-0.1,0.5l0.3,0l0.2,0.6l0.4-0.6l133.1,1
		L1348.1,996z M1400.7,833.2l15.1-47.8l18.2-19.7l38.8,45.8l-17-69.4l109.3-118.7l0.1,0L1745,835.9L1400.7,833.2z"/>
	<circle class="st0" cx="1314" cy="623.4" r="7.2"/>
	<path class="st0" d="M1432.4,626.4c-1.4,3-4.9,4.3-7.9,2.9c-3-1.4-4.3-4.9-2.9-7.9c1.4-3,4.9-4.3,7.9-2.9
		C1432.5,619.8,1433.8,623.4,1432.4,626.4z"/>
	<path class="st0" d="M1419,577.9c-1.3,2.8-4.6,4-7.3,2.7c-2.8-1.3-4-4.6-2.7-7.3c1.3-2.8,4.6-4,7.3-2.7S1420.3,575.1,1419,577.9z"
		/>
	<path class="st0" d="M1405.2,524c-1,2.1-3.4,3-5.5,2c-2.1-1-3-3.4-2-5.5c1-2.1,3.4-3,5.5-2S1406.2,521.9,1405.2,524z"/>
	
		<ellipse transform="matrix(0.5588 -0.8293 0.8293 0.5588 213.2182 1476.2885)" class="st0" cx="1494.1" cy="537.7" rx="7.6" ry="7.6"/>
	<path class="st0" d="M1570.5,625.2c-1.4,2.9-4.8,4.2-7.8,2.9c-2.9-1.4-4.2-4.8-2.9-7.8c1.4-2.9,4.8-4.2,7.8-2.9
		C1570.6,618.8,1571.9,622.3,1570.5,625.2z"/>
	<circle class="st0" cx="1557.6" cy="538" r="6"/>
	<path class="st0" d="M1553.6,434.6c-1.6,3.5-5.7,5-9.2,3.4s-5-5.7-3.4-9.2c1.6-3.5,5.7-5,9.2-3.4
		C1553.7,427,1555.3,431.1,1553.6,434.6z"/>
	<path class="st0" d="M1430.9,756.1c-1.3,2.9-4.7,4.1-7.6,2.8c-2.9-1.3-4.1-4.7-2.8-7.6c1.3-2.9,4.7-4.1,7.6-2.8
		C1431,749.8,1432.3,753.2,1430.9,756.1z"/>
	<path class="st0" d="M1343.9,514.6c-0.9,1.9-3.1,2.7-5,1.8c-1.9-0.9-2.7-3.1-1.8-5c0.9-1.9,3.1-2.7,5-1.8
		C1343.9,510.5,1344.8,512.8,1343.9,514.6z"/>
	<circle class="st0" cx="1369.2" cy="390.4" r="6.2"/>
	<path class="st0" d="M1258.9,499.6c-1.2,2.7-4.4,3.9-7.1,2.6c-2.7-1.2-3.9-4.4-2.6-7.1c1.2-2.7,4.4-3.9,7.1-2.6
		C1258.9,493.7,1260.1,496.9,1258.9,499.6z"/>
	<path class="st0" d="M1179.5,539.3c-1.2,2.7-4.4,3.9-7.1,2.6s-3.9-4.4-2.6-7.1c1.2-2.7,4.4-3.9,7.1-2.6
		C1179.6,533.4,1180.7,536.6,1179.5,539.3z"/>
	<path class="st0" d="M1220.1,671.9c-1.2,2.7-4.4,3.9-7.1,2.6c-2.7-1.2-3.9-4.4-2.6-7.1c1.2-2.7,4.4-3.9,7.1-2.6
		C1220.2,666.1,1221.4,669.2,1220.1,671.9z"/>
	<circle class="st0" cx="1139.5" cy="595.6" r="5"/>
	<path class="st0" d="M1007.6,557.5c-1,2.2-3.6,3.1-5.8,2.1c-2.2-1-3.1-3.6-2.1-5.8c1-2.2,3.6-3.1,5.8-2.1
		C1007.7,552.7,1008.6,555.3,1007.6,557.5z"/>
	<path class="st0" d="M1213,522.3c-2.2,0.8-4.7-0.3-5.5-2.5c-0.8-2.2,0.3-4.7,2.5-5.5c2.2-0.8,4.7,0.3,5.5,2.5
		S1215.2,521.4,1213,522.3z"/>
</g>
</svg>
