<svg xmlns="http://www.w3.org/2000/svg" width="63.568" height="79.455" viewBox="0 0 63.568 79.455">
  <g id="Group_301" data-name="Group 301" transform="translate(-146.096 -220.908)">
    <path id="Path_1041" data-name="Path 1041" d="M146.112,264.917c0-9.141.01-18.282-.016-27.422a2.956,2.956,0,0,1,.943-2.281q6.738-6.682,13.422-13.418a2.751,2.751,0,0,1,2.1-.887q17.788.029,35.576.016a7.951,7.951,0,0,1,8.333,8.294q.014,13.811,0,27.621a5.118,5.118,0,0,1-.024.793A1.554,1.554,0,0,1,204.876,259a1.521,1.521,0,0,1-1.483-1.357,5.486,5.486,0,0,1-.029-.991q0-13.661,0-27.323c0-3.355-1.937-5.289-5.3-5.29q-17.241-.005-34.482.024a2.419,2.419,0,0,0-1.545.606q-6.127,6.027-12.157,12.153a2.415,2.415,0,0,0-.621,1.539q-.047,26.876-.024,53.752a4.8,4.8,0,0,0,5.168,5.129q7.354.009,14.707,0a8.118,8.118,0,0,1,.894.015,1.558,1.558,0,0,1,1.476,1.576,1.536,1.536,0,0,1-1.445,1.507,5.39,5.39,0,0,1-.794.016q-7.354,0-14.707,0a7.98,7.98,0,0,1-8.416-8.415Q146.109,278.429,146.112,264.917Z" transform="translate(0 0)" fill="#fff"/>
    <path id="Path_1042" data-name="Path 1042" d="M307.688,493.01c4.107,0,8.213-.006,12.32,0a4.789,4.789,0,0,1,5.115,5.084q.016,7.649,0,15.3a4.764,4.764,0,0,1-5.01,4.987q-12.419.014-24.838,0a4.789,4.789,0,0,1-5.067-5.034q-.014-7.649,0-15.3a4.8,4.8,0,0,1,5.064-5.039C299.409,493,303.549,493.01,307.688,493.01Zm0,22.26q6.159,0,12.319,0c1.424,0,1.995-.565,2-1.977q.009-7.6,0-15.2c0-1.408-.576-1.967-2-1.968q-12.319,0-24.637,0c-1.491,0-2.044.547-2.045,2.024q-.006,7.549,0,15.1c0,1.467.566,2.02,2.052,2.021Q301.532,515.275,307.691,515.27Z" transform="translate(-115.467 -218.028)" fill="#ff7d7d"/>
    <path id="Path_1043" data-name="Path 1043" d="M320.756,414.047c-.082-5.155,2.013-9.05,6.774-11.236a11.365,11.365,0,0,1,15.956,9.678c.063,1.189.062,2.382.05,3.572-.013,1.245-.568,1.87-1.571,1.848-.96-.021-1.435-.635-1.483-1.832a27.508,27.508,0,0,0-.289-4.736,8.291,8.291,0,0,0-16.371,1.785c-.04,1.058.006,2.118-.021,3.177a1.461,1.461,0,0,1-1.5,1.607c-.9.008-1.461-.562-1.54-1.579-.005-.066-.006-.132-.006-.2Q320.755,415.09,320.756,414.047Z" transform="translate(-139.95 -144.947)" fill="#ff7d7d"/>
    <path id="Path_1044" data-name="Path 1044" d="M184.525,249.253a31.178,31.178,0,0,1-.2,3.258,7.992,7.992,0,0,1-7.6,6.731c-1.584.069-3.175.037-4.761.017a1.591,1.591,0,0,1-1.734-1.526,1.612,1.612,0,0,1,1.788-1.575c1.422-.019,2.844,0,4.266-.008a4.92,4.92,0,0,0,5.067-5.07c.007-1.389-.008-2.777,0-4.166.01-1.163.643-1.9,1.582-1.881.91.019,1.506.727,1.526,1.837.014.793,0,1.587,0,2.381Z" transform="translate(-19.34 -19.33)" fill="#fff"/>
    <path id="Path_1045" data-name="Path 1045" d="M360.046,539.221a1.97,1.97,0,0,0-1.026-2.1,3.961,3.961,0,0,1-.326-5.943,4.08,4.08,0,0,1,5.989.2,4,4,0,0,1-.7,5.924,1.614,1.614,0,0,0-.83,1.69,10.7,10.7,0,0,1,0,1.485,1.551,1.551,0,1,1-3.1.028C360.025,540.144,360.046,539.78,360.046,539.221Zm2.681-4.894q.009-.215.017-.43c-.35-.272-.665-.686-1.057-.782a.8.8,0,0,0-1.033.875,1.34,1.34,0,0,0,.858.952C361.886,534.987,362.319,534.553,362.727,534.327Z" transform="translate(-169.403 -247.644)" fill="#ff7d7d"/>
  </g>
</svg>
