<svg xmlns="http://www.w3.org/2000/svg" width="34.623" height="34.623" viewBox="0 0 34.623 34.623">
  <g id="Group_377" data-name="Group 377" transform="translate(0 0)">
    <g id="Group_373" data-name="Group 373" transform="translate(0 0)">
      <path id="Path_4634" data-name="Path 4634" d="M-5099.867,2146.254a17.306,17.306,0,0,1-17.48,17.322,17.323,17.323,0,0,1-17.141-17.338,17.328,17.328,0,0,1,17.426-17.284A17.349,17.349,0,0,1-5099.867,2146.254Zm-17.284-9.217c-1.718,0-3.437-.022-5.155.006a3.853,3.853,0,0,0-4.061,4.045q-.04,5.21,0,10.421a3.829,3.829,0,0,0,3.895,4q5.261.092,10.524,0a3.812,3.812,0,0,0,3.95-4.052q.039-5.157,0-10.314a3.843,3.843,0,0,0-4.1-4.105C-5113.785,2137.019-5115.467,2137.036-5117.15,2137.037Z" transform="translate(5134.489 -2128.953)" fill="#fff"/>
      <path id="Path_4635" data-name="Path 4635" d="M-5074.27,2181.416c0,1.667.013,3.334,0,5a2.243,2.243,0,0,1-2.412,2.489q-5.107.047-10.214,0a2.23,2.23,0,0,1-2.4-2.5q-.023-5.107,0-10.215a2.248,2.248,0,0,1,2.457-2.446q5.054-.033,10.108,0a2.258,2.258,0,0,1,2.457,2.453C-5074.254,2177.94-5074.271,2179.678-5074.27,2181.416Zm-2.794-.052a4.7,4.7,0,0,0-4.671-4.778,4.713,4.713,0,0,0-4.781,4.673,4.707,4.707,0,0,0,4.728,4.826A4.7,4.7,0,0,0-5077.064,2181.364Zm.565-6.291-.483.019c-.263.422-.7.825-.748,1.27a.879.879,0,0,0,1.132,1.008,1.55,1.55,0,0,0,.93-1.106C-5075.649,2175.882-5076.2,2175.471-5076.5,2175.073Z" transform="translate(5099.1 -2164.019)" fill="#fff"/>
      <path id="Path_4636" data-name="Path 4636" d="M-5062.614,2197.681a3.253,3.253,0,0,1-3.175,3.211,3.226,3.226,0,0,1-3.213-3.165,3.2,3.2,0,0,1,3.168-3.194A3.209,3.209,0,0,1-5062.614,2197.681Z" transform="translate(5083.123 -2180.384)" fill="#fff"/>
    </g>
  </g>
</svg>
