<svg xmlns="http://www.w3.org/2000/svg" width="34.623" height="34.623" viewBox="0 0 34.623 34.623">
  <path id="Path_4647" data-name="Path 4647" d="M-4928.977,2373.579a17.251,17.251,0,0,1-17.317-17.251,17.327,17.327,0,0,1,17.231-17.372,17.351,17.351,0,0,1,17.391,17.335A17.3,17.3,0,0,1-4928.977,2373.579Zm-2.057-19.879v10.465h3.011c0-.462,0-.849,0-1.236.012-1.611-.027-3.225.057-4.832a1.766,1.766,0,0,1,1.946-1.837c1.016.018,1.6.6,1.726,1.8.07.674.075,1.357.082,2.037.012,1.347,0,2.693,0,4.059h3.09c0-2.477.089-4.877-.027-7.268-.1-2.129-1.273-3.115-3.4-3.23a4.3,4.3,0,0,0-3.554,1.2c-.061-.463-.105-.8-.152-1.16Zm-5.839.016v10.477h3.576v-10.477Zm3.627-3.533a1.852,1.852,0,0,0-1.82-1.848,1.865,1.865,0,0,0-1.889,1.889,1.839,1.839,0,0,0,1.876,1.788A1.846,1.846,0,0,0-4933.246,2350.182Z" transform="translate(4946.294 -2338.957)" fill="#fff"/>
</svg>
