<svg xmlns="http://www.w3.org/2000/svg" width="103.37" height="101.548" viewBox="0 0 103.37 101.548">
  <g id="Group_365" data-name="Group 365" transform="translate(3232.188 -866.782)">
    <path id="Path_1129" data-name="Path 1129" d="M-3214.606,1194.166c-1.209,3.19-3.493,4.532-6.78,4.368-1.66-.083-3.327.011-4.991-.028a5.826,5.826,0,0,1-5.788-5.825q-.048-12.584,0-25.168a5.868,5.868,0,0,1,5.944-5.905c1.627-.017,3.255,0,4.883,0,3.975,0,5.8,1.368,6.959,5.3.367-.285.689-.542,1.019-.789,5.6-4.195,11.823-5.688,18.606-3.818,3.805,1.05,7.005,3.394,10.07,5.833a3.531,3.531,0,0,0,2.552.859c4.477-.23,8.957-.455,13.438-.569a20.725,20.725,0,0,1,5.15.383c2.908.672,4.349,2.613,4.562,5.579.018.245.039.49.071.879.426-.22.77-.386,1.1-.572,6.016-3.379,12-6.816,18.069-10.1a10.226,10.226,0,0,1,4.409-1.229,6.275,6.275,0,0,1,5.631,9.535,9.345,9.345,0,0,1-3.87,3.7c-13.482,7.187-26.954,14.394-40.493,21.475a12.274,12.274,0,0,1-4.64.827c-11.062.846-21.834-.889-32.472-3.752C-3212.291,1194.851-3213.393,1194.515-3214.606,1194.166Zm.209-13.028c0,2.82.048,5.641-.027,8.459a1.228,1.228,0,0,0,1.125,1.472c.949.212,1.876.528,2.816.785,10.06,2.754,20.263,4.383,30.732,3.791,1.534-.087,3.254-.053,4.547-.729,13.376-6.991,26.689-14.105,40-21.231a8.333,8.333,0,0,0,2.354-2.029,2.9,2.9,0,0,0,.285-3.53,3.243,3.243,0,0,0-3.583-1.422,9.752,9.752,0,0,0-2.29.939c-7.942,4.443-15.862,8.928-23.819,13.346a6.814,6.814,0,0,1-2.749.774c-4.507.322-9.02.552-13.531.805-3.357.188-6.713.38-10.072.532a1.6,1.6,0,0,1-1.887-1.712c.047-.943.686-1.506,1.841-1.58q8.549-.546,17.1-1.082c2.056-.131,4.116-.233,6.166-.434a3.047,3.047,0,0,0,3.114-3.212c.027-2.028-.8-2.964-2.951-3.28a11.234,11.234,0,0,0-2.049-.143c-5.021.2-10.044.369-15.059.663a5.682,5.682,0,0,1-4.23-1.415,28.384,28.384,0,0,0-9.593-5.577c-5.755-1.763-14.39,1.225-17.906,6.145a2.212,2.212,0,0,0-.313,1.205C-3214.409,1175.5-3214.4,1178.318-3214.4,1181.138Zm-3.364-.995c0-4.086.014-8.172-.006-12.258a2.652,2.652,0,0,0-2.945-2.964c-1.772-.024-3.545-.034-5.316.006a2.636,2.636,0,0,0-2.84,2.863q-.026,12.258,0,24.515a2.672,2.672,0,0,0,2.911,2.908c1.591.024,3.183.007,4.774.005,2.566,0,3.422-.868,3.424-3.47Q-3217.756,1185.946-3217.76,1180.143Z" transform="translate(0 -230.787)" fill="#fff"/>
    <path id="Path_1130" data-name="Path 1130" d="M-3052.922,886.277a23.293,23.293,0,0,1-5.336-8.183,8.614,8.614,0,0,1-.549-2.626,4.781,4.781,0,0,1,4.092-4.967,2.531,2.531,0,0,0,1.355-.823c3.182-3.912,10.335-3.853,13.42.129a1.605,1.605,0,0,0,.885.656c3.689.385,5.329,3.89,4.119,7.175a23.56,23.56,0,0,1-4.268,7.24,7.364,7.364,0,0,0-.87,1.1c1.606,1.8,3.286,3.534,4.806,5.4,5.307,6.517,9.145,13.781,10.579,22.128a21.18,21.18,0,0,1,.041,6.565c-.693,4.713-3.687,7.489-8.716,8.311a41.127,41.127,0,0,1-6.15.47c-5.242.059-10.486.06-15.727-.024a28.2,28.2,0,0,1-5.372-.609c-5.424-1.151-8.2-4.592-8.411-10.152a31.332,31.332,0,0,1,2.794-13.25,46.15,46.15,0,0,1,11.461-17.026C-3054.208,887.286-3053.6,886.832-3052.922,886.277Zm6.139,39.462.008-.156c2.024,0,4.052.081,6.07-.021a57.537,57.537,0,0,0,7.429-.661c3.568-.652,5.214-2.755,5.518-6.374a21.839,21.839,0,0,0-1.1-8.537,46.38,46.38,0,0,0-11.377-19.181,8.442,8.442,0,0,0-6.538-2.628,8.587,8.587,0,0,0-6.521,2.735c-.125.13-.26.251-.385.381a46.768,46.768,0,0,0-10.79,18.554,20.948,20.948,0,0,0-1.086,9.386A6.1,6.1,0,0,0-3061,924.7a9.421,9.421,0,0,0,2.108.464C-3054.859,925.387-3050.82,925.554-3046.782,925.739Zm-3.632-54.29a18.963,18.963,0,0,1,.983,2.493,1.678,1.678,0,0,1-1.215,2.191,1.624,1.624,0,0,1-2.01-1.459c-.185-.81-.672-.957-1.347-.876-1.244.149-1.8,1.039-1.381,2.392a20.121,20.121,0,0,0,4.667,7.584,3.184,3.184,0,0,0,3,1.235c1.031-.138,2.093-.028,3.137-.091a1.827,1.827,0,0,0,1.071-.374,19.63,19.63,0,0,0,5.4-7.991,3.765,3.765,0,0,0,.133-1.589c-.1-.906-.841-1.093-1.588-1.161-.709-.064-.983.338-1.132,1.013a1.59,1.59,0,0,1-1.912,1.328,1.579,1.579,0,0,1-1.317-1.918,20.5,20.5,0,0,1,.953-2.76C-3044.629,869.668-3048.584,869.632-3050.415,871.449Z" transform="translate(-127.755)" fill="#ff7d7d"/>
    <path id="Path_1135" data-name="Path 1135" d="M-2989.551,1007.9c0-.587-.04-1.13.009-1.665a1.606,1.606,0,0,1,1.651-1.531,1.57,1.57,0,0,1,1.629,1.539,4.446,4.446,0,0,1,.015.866c-.052.57.19.777.746.957a13.657,13.657,0,0,1,2.748,1.23,1.62,1.62,0,0,1,.657,2.4,1.687,1.687,0,0,1-2.478.348,5.261,5.261,0,0,0-4.434-.793c-.8.237-1.655.708-1.455,1.6a2.759,2.759,0,0,0,1.463,1.495,8.149,8.149,0,0,0,2.224.372,5.653,5.653,0,0,1,4.531,3.126c1.166,2.4-.052,5.212-2.818,6.338-.856.349-1.156.756-1.072,1.63a1.706,1.706,0,0,1-1.087,1.922,1.62,1.62,0,0,1-2.219-1.713c.032-1.062-.3-1.523-1.343-1.748a7.214,7.214,0,0,1-2.137-1.009,1.652,1.652,0,0,1-.7-2.4c.528-.83,1.446-.878,2.484-.436a19.645,19.645,0,0,0,3.469,1,1.649,1.649,0,0,0,1.235-.268c.492-.4,1.166-.974,1.16-1.467s-.69-1.06-1.189-1.449a3.019,3.019,0,0,0-1.244-.284,19.315,19.315,0,0,1-2.442-.456,5.143,5.143,0,0,1-3.738-4.568,5.078,5.078,0,0,1,3.513-4.729C-2990.141,1008.125-2989.9,1008.038-2989.551,1007.9Z" transform="translate(-186.598 -108.004)" fill="#fff"/>
  </g>
</svg>
