<svg xmlns="http://www.w3.org/2000/svg" width="342.339" height="342.339" viewBox="0 0 342.339 342.339">
  <g id="Group_369" data-name="Group 369" transform="translate(5494 -1169)">
    <path id="Path_1179" data-name="Path 1179" d="M-5328.345,1250.658a117.087,117.087,0,0,1,76.195-28.1,117.619,117.619,0,0,1,98.968,54.132l36.808-36.807a2.068,2.068,0,0,1,2.816-.194,172.124,172.124,0,0,0-17.557-20.558,170.557,170.557,0,0,0-54.4-36.672A170.119,170.119,0,0,0-5252.15,1169a170.123,170.123,0,0,0-66.635,13.462,170.322,170.322,0,0,0-47.555,30.2l11.351,11.351Z" transform="translate(-70.681)" fill="#543d56"/>
    <path id="Path_1180" data-name="Path 1180" d="M-4904.211,1502.464l16.492,16.492,21.59,21.59a170.268,170.268,0,0,0,27.551-44.533,170.128,170.128,0,0,0,13.462-66.635,170.126,170.126,0,0,0-13.462-66.635,170.459,170.459,0,0,0-18.225-32.619,2.022,2.022,0,0,1-.551,2.126l-37.561,37.561a116.878,116.878,0,0,1,16.239,59.567A117.033,117.033,0,0,1-4904.211,1502.464Z" transform="translate(-326.546 -89.209)" fill="#775c5c"/>
    <path id="Path_1181" data-name="Path 1181" d="M-5029.864,1723.991a117.383,117.383,0,0,1-89.218,41.067c-2.323,0-4.628-.075-6.918-.209v53.631q3.449.136,6.918.138a170.123,170.123,0,0,0,66.635-13.462,170.56,170.56,0,0,0,54.4-36.672q3.182-3.181,6.171-6.505Z" transform="translate(-203.749 -307.279)" fill="#264b5a"/>
    <path id="Path_1182" data-name="Path 1182" d="M-5470.1,1485.376l39.718-39.719a116.925,116.925,0,0,1-10.062-47.575,117.318,117.318,0,0,1,38.065-86.548l-37.934-37.934c-1.2,1.132-2.387,2.277-3.556,3.447a170.562,170.562,0,0,0-36.673,54.4A170.128,170.128,0,0,0-5494,1398.083a170.127,170.127,0,0,0,13.462,66.635A171.248,171.248,0,0,0-5470.1,1485.376Z" transform="translate(0 -57.914)" fill="#283860"/>
    <path id="Path_1183" data-name="Path 1183" d="M-5395.739,1668.717l-39.341,39.339a171.307,171.307,0,0,0,23.837,29.824,170.558,170.558,0,0,0,54.4,36.672,169.676,169.676,0,0,0,55.253,13.09V1733.9A117.858,117.858,0,0,1-5395.739,1668.717Z" transform="translate(-32.622 -276.676)" fill="#534d2a"/>
  </g>
</svg>
