<svg xmlns="http://www.w3.org/2000/svg" width="120.231" height="120.317" viewBox="0 0 120.231 120.317">
  <g id="Group_364" data-name="Group 364" transform="translate(4162.959 -748.775)">
    <path id="Path_1120" data-name="Path 1120" d="M-4136.836,879.4c4.027-3.43,7.2-3.427,11.762-.145a24.322,24.322,0,0,1,4.158-2.09,7.815,7.815,0,0,1,9.942,6.7,39.537,39.537,0,0,1-.052,8.245c-.182,1.714-1.091,3.35-1.718,5.146a6.12,6.12,0,0,1,3.707,4.6,6.157,6.157,0,0,1-2.141,5.794c1.07,1.007,2.14,1.972,3.162,2.985,1.108,1.1,1.23,2.334.372,3.178-.893.879-2.008.74-3.178-.4-.24-.233-.478-.467-.712-.705a11.542,11.542,0,0,0-9.361-3.91c-7.748.368-15.525.094-23.29.13a3.914,3.914,0,0,0-1.977.537,28.014,28.014,0,0,0-12.273,28.964,28.16,28.16,0,0,0,22.016,22.052,27.916,27.916,0,0,0,33.174-23.216c.458-2.912.052-5.97-.052-8.957-.035-1-.13-1.93.812-2.571a2.01,2.01,0,0,1,3.138,1.577,31.476,31.476,0,0,1-5.1,23.725,31.977,31.977,0,0,1-32.688,13.393A31.77,31.77,0,0,1-4162.365,939c-2.177-12.24,1.651-22.535,11.04-30.727.188-.164.378-.324.663-.568a6.264,6.264,0,0,1-2.2-5.794,6.179,6.179,0,0,1,4.123-4.791c-2.122-2.613-2.333-5.573-2.211-8.622a47.287,47.287,0,0,1,.111-4.75,7.581,7.581,0,0,1,5.037-6.336,7.754,7.754,0,0,1,8.093,1.387c.227.183.442.378.667.564C-4137.016,879.382-4136.966,879.376-4136.836,879.4Zm5.923,17.482c3.294,0,6.589.02,9.883-.005a5.987,5.987,0,0,0,6.152-6.177q.028-2.814,0-5.629a4.041,4.041,0,0,0-3.761-4.21,4.022,4.022,0,0,0-4.248,3.842c-.146,1.351-.862,2.131-1.975,2.151-1.148.02-1.888-.78-2.043-2.209a4.043,4.043,0,0,0-3.934-3.789,4.024,4.024,0,0,0-4.069,3.775c-.159,1.448-.878,2.235-2.031,2.223s-1.828-.786-1.993-2.261a4.034,4.034,0,0,0-4.235-3.731,4,4,0,0,0-3.764,4.071c-.027,1.876-.015,3.752,0,5.628a6.015,6.015,0,0,0,6.389,6.32C-4137.334,896.891-4134.124,896.882-4130.913,896.881Zm.008,8.015h6.261q4.822,0,9.644-.005a1.753,1.753,0,0,0,1.959-1.4,2.945,2.945,0,0,0-.627-2.087,2.7,2.7,0,0,0-1.837-.5c-8.808-.03-17.616-.02-26.424-.019-1.628,0-3.257-.027-4.884.011a2,2,0,0,0-2.115,2.118c.076,1.161.943,1.87,2.369,1.872Q-4138.732,904.907-4130.9,904.9Z" transform="translate(0 -95.97)" fill="#ff7d7d"/>
    <path id="Path_1121" data-name="Path 1121" d="M-3917.931,768.852l-14.863-14.877-14.879,14.878c.784,0,1.679-.022,2.573,0a2,2,0,0,1,2.184,2.184q.024,15.835,0,31.668a2.005,2.005,0,0,1-2.042,2.2c-1.2-.029-1.951-.927-1.953-2.416q-.01-14.019,0-28.039v-1.6c-1.9,0-3.679-.021-5.461.008a2.2,2.2,0,0,1-2.368-1.244,2.144,2.144,0,0,1,.75-2.556q9.658-9.639,19.3-19.289c1.343-1.341,2.272-1.338,3.63.018q9.611,9.6,19.213,19.2c.717.716,1.275,1.462.852,2.537a2.212,2.212,0,0,1-2.436,1.333c-1.748-.032-3.5-.009-5.428-.009v1.379q0,6.071,0,12.142c0,1.578-.752,2.5-2,2.5s-2-.919-2.005-2.491q-.01-7.51,0-15.021c0-1.81.695-2.495,2.488-2.515C-3919.594,768.845-3918.811,768.852-3917.931,768.852Z" transform="translate(-155.935 0)" fill="#fff"/>
    <path id="Path_1122" data-name="Path 1122" d="M-3918.125,912.349l20.431-20.73c-2.059.676-4.292,1.4-6.516,2.144-.894.3-1.819.386-2.407-.407a3.013,3.013,0,0,1-.521-1.921c.1-1,.948-1.4,1.864-1.578,2.821-.558,5.641-1.124,8.466-1.66,2.045-.388,4.085-.842,6.149-1.061,1.7-.18,1.868.124,1.528,1.844-.751,3.8-1.524,7.6-2.289,11.4-.148.735-.263,1.479-.446,2.205a2.1,2.1,0,0,1-2.427,1.67,1.923,1.923,0,0,1-1.518-2.365c.408-2.416.917-4.815,1.384-7.221l-.5-.445a4.521,4.521,0,0,1-.619,1.2q-10.2,10.25-20.441,20.462c-1.57,1.569-2.419,1.572-3.978.012-2.151-2.152-4.3-4.31-6.61-6.631-1.094,1.16-2.094,2.272-3.15,3.33q-9.332,9.349-18.686,18.676a9.664,9.664,0,0,1-.907.86,1.923,1.923,0,0,1-2.71-.175,1.911,1.911,0,0,1-.092-2.623,6.667,6.667,0,0,1,.688-.726q11.465-11.466,22.932-22.929c1.539-1.538,2.376-1.559,3.893-.017C-3922.445,907.855-3920.317,910.083-3918.125,912.349Z" transform="translate(-157.683 -103.676)" fill="#fff"/>
    <path id="Path_1123" data-name="Path 1123" d="M-3722.877,977.015h-4.006c0,.543,0,1.031,0,1.52q0,21.53,0,43.06c0,.334,0,.668,0,1-.025,1.544-.813,2.476-2.059,2.441-1.2-.034-1.944-.931-1.945-2.425q-.01-15.96,0-31.92,0-7.51,0-15.021c0-2.069.634-2.714,2.66-2.72q3.381-.011,6.761,0c1.9.007,2.6.676,2.6,2.53q.007,23.533,0,47.066c0,1.573-.76,2.495-2.007,2.49s-2-.923-2-2.5q-.006-22.031,0-44.062Z" transform="translate(-323.862 -168.031)" fill="#fff"/>
    <path id="Path_1124" data-name="Path 1124" d="M-3794.9,1033.027h-4.008v1.453q0,14.768,0,29.536a10.8,10.8,0,0,1-.017,1.125,2,2,0,0,1-1.978,1.879,1.992,1.992,0,0,1-1.994-1.861,9.168,9.168,0,0,1-.018-1q0-16.207,0-32.414c0-2.147.622-2.783,2.721-2.786,2.253,0,4.506-.007,6.759,0,1.821.008,2.539.69,2.54,2.462q.01,16.583,0,33.165c0,1.538-.82,2.473-2.066,2.432-1.2-.04-1.934-.938-1.936-2.434q-.009-14.893,0-29.786C-3794.9,1034.259-3794.9,1033.718-3794.9,1033.027Z" transform="translate(-269.872 -210.014)" fill="#fff"/>
    <path id="Path_1125" data-name="Path 1125" d="M-4060.935,1054.844a8.155,8.155,0,0,1-5.9-6.5,5.677,5.677,0,0,1-.1-1.243,1.992,1.992,0,0,1,1.933-2.048,2.008,2.008,0,0,1,2.045,1.81c.038.246.016.5.055.748a4.062,4.062,0,0,0,4.256,3.433,4.049,4.049,0,0,0,3.718-4,4.2,4.2,0,0,0-3.723-4.028,13.227,13.227,0,0,1-4.592-1.337,7.3,7.3,0,0,1-3.637-7.318,7.743,7.743,0,0,1,4.889-6.725c.3-.135.616-.244,1.056-.417,0-1.253-.01-2.532,0-3.81.015-1.484.76-2.378,1.969-2.4s2,.878,2.036,2.335a1.747,1.747,0,0,1,0,.25c-.278,2.2-.009,3.848,2.495,4.943,2.312,1.011,3.3,3.435,3.5,5.993a2.068,2.068,0,0,1-1.864,2.487c-1.152.073-1.973-.746-2.125-2.123a4.041,4.041,0,0,0-4.23-3.87,4.019,4.019,0,0,0-3.779,4.063,4.045,4.045,0,0,0,4.163,3.946,8.009,8.009,0,0,1,7.748,6.867,7.946,7.946,0,0,1-5.028,8.584,1.165,1.165,0,0,0-.885,1.364c.048.79.01,1.584.009,2.377,0,1.9-.7,2.861-2.037,2.838-1.3-.022-1.967-.955-1.97-2.776C-4060.937,1057.162-4060.935,1056.037-4060.935,1054.844Z" transform="translate(-71.975 -204.055)" fill="#ff7d7d"/>
    <path id="Path_1126" data-name="Path 1126" d="M-3866.931,1065.016h-4.008v1.37q0,10.887,0,21.773a5.123,5.123,0,0,1-.057,1.245,1.9,1.9,0,0,1-1.97,1.588,1.9,1.9,0,0,1-1.932-1.632,5.073,5.073,0,0,1-.047-1.122q0-12.263,0-24.526c0-2.125.628-2.751,2.754-2.753,2.295,0,4.589-.012,6.883.005,1.641.012,2.38.734,2.383,2.365q.016,12.638,0,25.277c0,1.48-.765,2.38-1.971,2.4-1.248.02-2.028-.905-2.03-2.464q-.01-10.949,0-21.9Z" transform="translate(-215.879 -233.999)" fill="#fff"/>
    <path id="Path_1127" data-name="Path 1127" d="M-3886.929,864c0,2.838.008,5.677,0,8.515-.006,1.578-.758,2.5-2,2.5s-2-.918-2-2.5q-.01-8.515,0-17.03c0-1.583.75-2.494,2-2.494s2,.916,2,2.5C-3886.922,858.319-3886.929,861.158-3886.929,864Z" transform="translate(-203.897 -78.112)" fill="#fff"/>
    <path id="Path_1128" data-name="Path 1128" d="M-3854.928,844.989c0,1.879.012,3.757,0,5.635-.012,1.47-.791,2.372-2,2.37s-1.994-.9-2-2.372q-.018-5.635,0-11.27c.005-1.474.785-2.369,2-2.369s1.987.894,2,2.371C-3854.916,841.232-3854.928,843.11-3854.928,844.989Z" transform="translate(-227.882 -66.118)" fill="#fff"/>
  </g>
</svg>
