<svg xmlns="http://www.w3.org/2000/svg" width="34.625" height="34.619" viewBox="0 0 34.625 34.619">
  <path id="Path_4655" data-name="Path 4655" d="M-5305.187,2373.586a17.307,17.307,0,0,1-17.394-17.089,17.349,17.349,0,0,1,17.3-17.53,17.337,17.337,0,0,1,17.324,17.17A17.253,17.253,0,0,1-5305.187,2373.586Zm-9.43-18.812c.14,2.072,1.245,3.291,3.234,4.15l-1.664.18a4.58,4.58,0,0,0,3.808,2.847,9.038,9.038,0,0,1-5.928,1.755,3.07,3.07,0,0,0,.359.328,12.181,12.181,0,0,0,17.971-8.547c.247-1.572.343-3.087,1.819-4.06.124-.081.181-.262.342-.509l-1.879.43,1.408-1.945a.666.666,0,0,0-.578.011,2.768,2.768,0,0,1-3.129-.065,4.2,4.2,0,0,0-6.209,2.481,13.265,13.265,0,0,0-.223,2.113,13.552,13.552,0,0,1-8.879-4.263,7.038,7.038,0,0,0-.248,2.889,11.6,11.6,0,0,0,1.274,2.586Z" transform="translate(5322.581 -2338.967)" fill="#fff"/>
</svg>
