<svg xmlns="http://www.w3.org/2000/svg" width="101.396" height="101.396" viewBox="0 0 101.396 101.396">
  <g id="Group_363" data-name="Group 363" transform="translate(4024.967 -310.72)">
    <path id="Path_1113" data-name="Path 1113" d="M-3712.929,367.583c-.07.366-.119.737-.212,1.1a6,6,0,0,1-4.3,4.585,5.916,5.916,0,0,1-6.128-1.489,6.157,6.157,0,0,1,1.033-9.756c.314-.2.652-.37,1-.566-5.389-14.343-15.49-23.709-30.075-28.367l.974-3.385c.722.226,1.423.434,2.117.665a47.335,47.335,0,0,1,11.531,5.615,48.089,48.089,0,0,1,16.324,18.4,49.563,49.563,0,0,1,2.611,6.141,1.3,1.3,0,0,0,.8.836,6.5,6.5,0,0,1,4.123,4.438c.091.332.132.677.2,1.017Zm-8.929-.311a2.685,2.685,0,0,0,2.621,2.678,2.741,2.741,0,0,0,2.674-2.615,2.662,2.662,0,0,0-2.637-2.681A2.619,2.619,0,0,0-3721.859,367.272Z" transform="translate(-210.641 -14.626)" fill="#fff"/>
    <path id="Path_1114" data-name="Path 1114" d="M-3968.292,310.72c.438.073.882.123,1.315.223a6.267,6.267,0,0,1,3.249,10.226,6.222,6.222,0,0,1-10.338-1.488c-.053-.106-.1-.213-.165-.346-14.335,5.371-23.7,15.43-28.349,29.931a12.794,12.794,0,0,1-3.382-.907c.228-.744.445-1.5.689-2.241a47.666,47.666,0,0,1,10.238-17.286,46.717,46.717,0,0,1,13.291-10.148,51.922,51.922,0,0,1,6.531-2.818,1.376,1.376,0,0,0,.873-.841,6.463,6.463,0,0,1,4.485-4.1c.384-.1.786-.136,1.179-.2Zm2.533,6.323a2.69,2.69,0,0,0-2.635-2.661,2.648,2.648,0,0,0-2.652,2.631,2.618,2.618,0,0,0,2.619,2.655A2.672,2.672,0,0,0-3965.758,317.043Z" transform="translate(-14.644 0)" fill="#fff"/>
    <path id="Path_1115" data-name="Path 1115" d="M-3877.461,459.135c-.655-.95-1.306-1.892-1.955-2.835q-2.408-3.5-4.816-7a2.613,2.613,0,0,1-.469-1.549c.01-1.744,0-3.487,0-5.231,0-.109,0-.218,0-.354h3.37v-2.715h-3.291v-6.062h3.329v-2.631c-.757,0-1.5-.052-2.239.017a1,1,0,0,1-1.037-.655,1.139,1.139,0,0,1-.085-.45,1.075,1.075,0,0,1,.04-.271,1.765,1.765,0,0,0-.778-1.941c-.623-.4-1.29-.73-1.939-1.088a20.017,20.017,0,0,1-10.613-14.447,20.177,20.177,0,0,1,5.126-17.909,20.083,20.083,0,0,1,11.683-6.446,20.223,20.223,0,0,1,18.026,5.412,19.326,19.326,0,0,1,6.139,11.3,20.538,20.538,0,0,1-5.307,18.1,20.507,20.507,0,0,1-7.275,4.984c-.62.26-.686.357-.684,1.029q.013,5.726.026,11.452,0,2.106-.009,4.212-.01,1.678-.037,3.357a4.026,4.026,0,0,1-.687,2.231q-3.2,4.709-6.428,9.4A1.006,1.006,0,0,1-3877.461,459.135Zm-.066-5.926.122-.023c1.1-1.643,2.22-3.28,3.309-4.933a3.052,3.052,0,0,0,.512-1.663q.036-4.734.056-9.469c.006-1.541-.009-3.083-.017-4.625-.008-1.826-.026-3.652-.027-5.477a2.379,2.379,0,0,1,1.7-2.406c.112-.042.223-.081.336-.121a16.319,16.319,0,0,0,6.27-3.865,17.45,17.45,0,0,0,4.868-16.393,15.761,15.761,0,0,0-4.929-8.719A16.912,16.912,0,0,0-3881.136,391a17.336,17.336,0,0,0-13.568,19.844,16.882,16.882,0,0,0,10.466,13.286c.594.263,1.2.5,1.77.812a2.315,2.315,0,0,1,1.214,1.743c.035.222.036.449.054.692h3.266V445.5h-3.449c0,.287-.014.544,0,.8a2.837,2.837,0,0,0,.259,1.445C-3879.929,449.568-3878.726,451.387-3877.527,453.209Z" transform="translate(-97.578 -58.936)" fill="#ff7d7d"/>
    <path id="Path_1116" data-name="Path 1116" d="M-3986.315,583.272c-.339,1.121-.668,2.213-1.009,3.342-.624-.188-1.2-.356-1.773-.536a47.319,47.319,0,0,1-17.966-10.555,47.257,47.257,0,0,1-10.28-13.7,49.545,49.545,0,0,1-2.522-5.969,1.336,1.336,0,0,0-.831-.847,6.361,6.361,0,0,1-4.118-4.564,6.239,6.239,0,0,1,5.013-7.507,6.222,6.222,0,0,1,7.275,5.113,6.189,6.189,0,0,1-3.326,6.574c-.17.087-.342.17-.538.268C-4011.014,569.263-4000.9,578.6-3986.315,583.272Zm-32.377-31.567a2.608,2.608,0,0,0,2.631-2.64,2.684,2.684,0,0,0-2.643-2.656,2.729,2.729,0,0,0-2.643,2.7A2.646,2.646,0,0,0-4018.692,551.705Z" transform="translate(0 -178.86)" fill="#fff"/>
    <path id="Path_1117" data-name="Path 1117" d="M-3780.907,614.254c14.313-5.408,23.716-15.454,28.314-30.077l3.433.974c-.374,1.126-.718,2.236-1.11,3.327a47.517,47.517,0,0,1-10.389,16.817,48.258,48.258,0,0,1-19.265,12.4,1.471,1.471,0,0,0-.95.9,6.408,6.408,0,0,1-4.456,4.063,6.261,6.261,0,0,1-7.585-4.979,6.207,6.207,0,0,1,5.5-7.345,5.91,5.91,0,0,1,5.607,2.493C-3781.481,613.247-3781.237,613.725-3780.907,614.254Zm-3.245,2.321a2.6,2.6,0,0,0-2.58-2.655,2.692,2.692,0,0,0-2.706,2.649,2.734,2.734,0,0,0,2.648,2.637A2.616,2.616,0,0,0-3784.153,616.575Z" transform="translate(-178.729 -210.715)" fill="#fff"/>
    <path id="Path_1118" data-name="Path 1118" d="M-3848.953,451.2a12.428,12.428,0,0,1-12.406-12.527,12.418,12.418,0,0,1,12.262-12.308,12.432,12.432,0,0,1,12.551,12.48A12.475,12.475,0,0,1-3848.953,451.2Zm9.019-12.4a9.073,9.073,0,0,0-9.027-9.078,9.146,9.146,0,0,0-9.063,8.983,9.094,9.094,0,0,0,8.926,9.1A9.017,9.017,0,0,0-3839.934,438.8Z" transform="translate(-126.068 -89.112)" fill="#fff"/>
    <path id="Path_1119" data-name="Path 1119" d="M-3830.938,449.883a6.961,6.961,0,0,1,7.021,7.073,6.987,6.987,0,0,1-7.106,6.97,6.986,6.986,0,0,1-6.955-7.04A6.968,6.968,0,0,1-3830.938,449.883Zm0,10.7a3.746,3.746,0,0,0,3.677-3.691,3.68,3.68,0,0,0-3.674-3.643,3.6,3.6,0,0,0-3.669,3.623A3.682,3.682,0,0,0-3830.935,460.585Z" transform="translate(-144.086 -107.233)" fill="#ff7d7d"/>
  </g>
</svg>
