<?xml version="1.0" encoding="utf-8"?>
<!-- Generator: Adobe Illustrator 24.3.0, SVG Export Plug-In . SVG Version: 6.00 Build 0)  -->
<svg version="1.1" id="Layer_1" xmlns="http://www.w3.org/2000/svg" xmlns:xlink="http://www.w3.org/1999/xlink" x="0px" y="0px"
	 viewBox="0 0 290 253.2" style="enable-background:new 0 0 290 253.2;" xml:space="preserve">
<style type="text/css">
	.st0{fill:#FF7816;}
	.st1{opacity:0.18;fill:#FFFFFF;}
	.st2{fill:#FF7B1A;}
</style>
<g>
	<path class="st0" d="M78.5,35.7c0.1-0.1,0.1-0.2,0-0.3c-0.2-1-0.5-1.9-0.9-2.8c-0.1-0.3-0.3-0.5-0.4-0.8c-0.7-1.1-1.6-1.8-2.8-2
		c-0.6-0.1-1.2-0.2-1.8-0.3c-1.1-0.1-2.2-0.2-3.4-0.2c-10,0-20.1,0-30.1,0c-1,0-2.1-0.1-3.1-0.4c-3.6-1-5.9-3.4-6.9-6.9
		c-0.7-2.4-1.3-4.9-1.9-7.3c-0.5-2.1-1-4.2-1.5-6.2c-0.1-0.3-0.1-0.5-0.1-0.8c0-0.3,0.2-0.5,0.5-0.6C26.3,7,26.5,7,26.6,7
		c0.3,0,0.5,0,0.8,0c13.1,0,26.3,0,39.4,0c1,0,2.1,0.1,3.1,0.3c2.3,0.5,4.1,1.7,5.4,3.6c0.8,1.2,1.3,2.4,1.7,3.8
		c1.8,7.1,3.5,14.1,5.2,21.2c1.3,5.5,2.6,11,4,16.5c2.1,8.7,4.2,17.5,6.4,26.2c1.7,6.9,3.4,13.9,5,20.8c1.9,7.9,3.8,15.8,5.7,23.7
		c1.4,5.9,2.8,11.7,4.3,17.6c0.7,2.7,1.3,5.4,2,8c0.1,0.4,0.2,0.9,0.4,1.3c0.3,0.6,0.7,0.9,1.4,1c0.5,0.1,1,0.1,1.5,0.1
		c0.4,0,0.7,0,1.1,0c36.8,0,73.7,0,110.5,0c0.7,0,1.5,0,2.2-0.1c1.4-0.1,2.3-0.8,2.8-2.1c0.3-0.9,0.5-1.8,0.7-2.7
		c1-4.4,2-8.9,3.1-13.3c0.7-3.2,1.5-6.4,2.2-9.6c0.1-0.6,0.2-1.1,0.2-1.7c-0.1-1.7-1.1-2.8-2.6-3c-0.4-0.1-0.8-0.1-1.2-0.1
		c-0.5,0-1.1,0-1.6,0c-1.3-0.1-2.4-0.9-2.7-2.1c-0.2-0.6-0.1-1.1,0-1.7c0.4-1.9,0.8-3.9,1.2-5.8c0.3-1.6,0.7-3.1,1-4.7
		c0-0.1,0-0.2,0.1-0.3c0.1-0.4,0.2-0.5,0.6-0.5c0.2,0,0.3,0,0.5,0c9.9,0,19.8,0,29.7,0c0.5,0,0.9,0,1.4,0.1c0.2,0,0.5,0.1,0.7,0.2
		c1.1,0.4,1.7,1.3,1.8,2.4c0,0.5-0.1,0.9-0.2,1.4c-1.2,4.9-2.3,9.8-3.5,14.7c-1.4,5.9-2.7,11.8-4.1,17.6c-1.4,5.9-2.8,11.9-4.2,17.8
		c-1.4,5.9-2.8,11.8-4.1,17.7c-1.2,5.2-2.4,10.4-3.7,15.7c-1.2,5.2-2.5,10.5-3.7,15.7c-0.2,0.9-0.4,1.7-0.8,2.5
		c-1.3,3.2-3.7,5.2-7.1,5.8c-0.7,0.1-1.3,0.2-2,0.2c-6.4,0-12.8,0-19.1,0c-1.2,0-2.3,0-3.5,0c-0.2,0-0.3,0-0.5,0
		c-0.5-0.1-0.8-0.5-0.8-1c0-0.3,0.1-0.5,0.2-0.8c1.3-5,2.7-10.1,4-15.1c0.2-0.6,0.3-1.2,0.5-1.7c0.2-0.6,0.3-0.7,0.9-0.7
		c0.7,0,1.5,0,2.2,0c1.9-0.1,3.4-1,4.2-2.7c0.2-0.3,0.3-0.7,0.4-1.1c0.7-2.8,1.3-5.6,2-8.4c0.9-4,1.9-8,2.8-12
		c0.1-0.6,0.3-1.2,0.1-1.8c-0.2-0.8-0.6-1.3-1.3-1.5c-0.3-0.1-0.6-0.2-0.9-0.2c-0.4,0-0.7,0-1.1,0c-34,0-68,0-102,0
		c-0.6,0-1.2,0-1.8,0c-0.8,0-1.5,0.4-2,1c-0.6,0.7-0.8,1.6-0.6,2.5c0.2,0.8,0.4,1.7,0.6,2.5c1.4,5.8,2.8,11.6,4.2,17.4
		c0.5,2.2,1.9,3.6,4,4.3c0.5,0.2,1.1,0.2,1.6,0.2c0.6,0,1.1,0,1.7,0c0.7,0,0.9,0.2,1.1,0.9c0.4,1.7,0.7,3.4,1.1,5.1
		c0.7,3.4,1.3,6.7,2,10.1c0.1,0.6,0.2,1.1,0.3,1.7c0.1,0.3,0.1,0.6-0.1,0.8c-0.2,0.4-0.5,0.6-0.9,0.6c-0.2,0-0.4,0-0.6,0
		c-6.8,0-13.5,0-20.3,0c-1,0-2-0.1-2.9-0.3c-3-0.7-5.2-2.6-6.5-5.4c-0.3-0.7-0.6-1.5-0.7-2.2c-1.8-7.2-3.6-14.3-5.4-21.5
		c-2.3-9.1-4.5-18.1-6.8-27.2c-2.1-8.3-4.1-16.6-6.2-24.9c-2.3-9.1-4.5-18.2-6.8-27.3c-1.9-7.8-3.9-15.6-5.8-23.4
		c-2.1-8.3-4.1-16.5-6.2-24.8c-1.9-7.6-3.8-15.3-5.7-22.9c-0.2-0.6-0.3-1.3-0.5-1.9c0-0.2,0-0.3,0.2-0.3c0.2,0,0.3,0,0.5,0
		c4.9,0,9.7,0,14.6,0c1,0,1.9,0.1,2.9,0.3c1.4,0.3,2.7,0.9,3.8,1.8C78,35.4,78.2,35.5,78.5,35.7C78.4,35.7,78.5,35.7,78.5,35.7z"/>
	<path class="st0" d="M221.5,247.6c-3.6,0-6.7-1-9.4-3.1c-2.9-2.3-4.9-5.3-5.5-9c-1.6-8.8,3.9-15.3,10.3-17.2
		c8.2-2.5,17,2.4,18.9,10.9c1.7,7.3-2.2,14.8-9.3,17.5C224.5,247.4,223.1,247.6,221.5,247.6z"/>
	<path class="st0" d="M132.6,232.3c0.1,6.2-3.9,12.4-10.5,14.4c-8.5,2.6-17.1-2.7-18.9-11c-1.7-7.5,2.5-15.1,9.7-17.5
		c8.1-2.8,16.9,1.8,19.2,10.2C132.5,229.7,132.6,230.8,132.6,232.3z"/>
	<path class="st0" d="M171.1,71.7c0.8-0.7,1.5-1.4,2.3-2.1c1.5-1.5,3-2.9,4.6-4.3c0.4-0.4,0.9-0.7,1.3-0.9c1.1-0.6,2.2-0.8,3.4-0.6
		c1.5,0.3,2.8,0.9,3.7,2.1c1,1.2,1.3,2.5,1.2,4c-0.2,2.1-1.2,3.6-3,4.5c-0.3,0.2-0.6,0.3-0.9,0.4c-0.2,0.1-0.4,0.2-0.6,0.4
		c-0.1,0.1,0,0.2,0,0.2c0.1,0,0.2,0,0.2,0c0.4,0,0.9,0,1.3,0c2.4,0,4.7,0,7.1,0c0.4,0,0.7,0,1.1,0.1c0.5,0.1,0.7,0.3,0.7,0.8
		c0,0.2,0,0.3,0,0.5c0.1,2.4,0.1,4.9,0,7.3c0,0.2,0,0.4,0,0.5c-0.1,0.4-0.3,0.7-0.7,0.8c-0.3,0.1-0.5,0.1-0.8,0.1
		c-0.5,0-0.9,0-1.4,0c-5.3,0-10.6,0-15.9,0c-0.4,0-0.7,0-1.1,0c-0.7-0.1-0.9-0.3-1-1c0-0.4-0.1-0.8-0.1-1.2c0-1.8,0-3.6,0-5.5
		c0-0.7,0-1.4-0.1-2c0-0.5,0-0.5-0.5-0.5c-1.2,0-2.4,0-3.7,0c-0.1,0-0.2,0-0.2,0c-0.1,0-0.2,0.1-0.3,0.2c0,0.2,0,0.5,0,0.7
		c0,2.5,0,4.9,0,7.4c0,0.3,0,0.6-0.1,0.9c-0.1,0.5-0.3,0.8-0.8,0.8c-0.2,0-0.4,0.1-0.6,0.1c-0.4,0-0.7,0-1.1,0c-5.3,0-10.5,0-15.8,0
		c-0.4,0-0.8,0-1.2,0c-0.8,0-1.3-0.5-1.3-1.4c0-2.4,0-4.8,0-7.3c0-1,0.3-1.2,1.2-1.3c0.3,0,0.7,0,1,0c2.7,0,5.4,0,8.1,0
		c0.2,0,0.4,0,0.6,0c0.1,0,0.2,0,0.2-0.2c0-0.1,0-0.3-0.1-0.3c-0.2-0.1-0.4-0.3-0.7-0.4c-0.5-0.3-1-0.6-1.4-1
		c-1.5-1.6-2.1-3.4-1.5-5.5c0.6-2.1,2-3.5,4.2-4.1c1.3-0.3,2.5-0.1,3.7,0.5c0.8,0.4,1.5,0.9,2.1,1.4c1.1,0.9,2.1,1.9,3.1,2.9
		c0.6,0.6,1.2,1.2,1.9,1.8C170.1,70.9,170.6,71.2,171.1,71.7z M178.8,73.4c0.8,0,1.5-0.1,2.2-0.1c0.4,0,0.7-0.1,1.1-0.1
		c0.9,0,1.6-0.4,2.2-1c1.1-1.1,1.5-2.8,0.6-4.3c-1.1-1.8-3.4-2.5-5.4-1.1c-0.3,0.2-0.5,0.4-0.8,0.7c-1.2,1.2-2.5,2.4-3.7,3.6
		c-0.3,0.3-0.5,0.6-0.8,1c-0.2,0.4-0.1,0.6,0.2,0.8c0.2,0.1,0.4,0.1,0.6,0.2C176.3,73.3,177.6,73.3,178.8,73.4z M163.4,73.2
		c1.2-0.1,2.4-0.1,3.7-0.2c0.4,0,0.7-0.1,1-0.3c0.2-0.1,0.2-0.2,0.1-0.4c-1.2-1.5-2.5-3-4-4.3c-0.7-0.6-1.4-1-2.1-1.5
		c-0.4-0.2-0.9-0.4-1.4-0.4c-1.5,0-2.6,0.6-3.3,1.9c-0.7,1.3-0.6,2.6,0.1,3.8c0.5,0.8,1.2,1.3,2.1,1.4
		C160.8,73.2,162.1,73.3,163.4,73.2z"/>
	<path class="st0" d="M168,99.3c0,3.1,0,6.2,0,9.4c0,0.4,0,0.7-0.1,1.1c-0.1,0.3-0.3,0.5-0.6,0.6c-0.3,0-0.5,0.1-0.8,0.1
		c-4.8,0.1-9.5,0.1-14.3,0c-0.7,0-1.4,0-2,0c-0.9,0-1.2-0.3-1.2-1.2c0-0.2,0-0.4,0-0.6c0-6.1,0-12.3,0-18.4c0-0.3,0-0.6,0-0.9
		c0.1-0.7,0.4-0.9,1.1-1c0.3,0,0.6,0,0.9,0c5.1,0,10.1,0,15.2,0c0.3,0,0.7,0,1,0c0.5,0.1,0.7,0.3,0.8,0.8c0.1,0.3,0.1,0.7,0.1,1
		C168,93,168,96.1,168,99.3C168,99.3,168,99.3,168,99.3z M164,100.6c0.1-2.7-2.1-5.5-5.3-5.5c-3-0.1-5.5,2.6-5.5,5.4
		c0,2.9,2.4,5.3,5.4,5.4C161.7,105.8,164.1,103.4,164,100.6z"/>
	<path class="st0" d="M191.9,99.4c0,1.4,0,2.9,0,4.3c0,1.7,0,3.4,0,5.1c0,0.3,0,0.6,0,0.9c-0.1,0.6-0.3,0.8-0.9,0.9
		c-0.4,0-0.7,0-1.1,0c-4.1,0-8.3,0-12.4,0c-1,0-1.9,0-2.9,0c-0.3,0-0.5,0-0.8-0.1c-0.4-0.1-0.7-0.4-0.8-0.8
		c-0.1-0.3-0.1-0.6-0.1-0.9c0-1.3,0-2.6,0-3.9c0-4.8,0-9.7,0-14.5c0-0.4,0-0.8,0-1.2c0.1-0.6,0.3-0.9,0.9-1c0.2,0,0.4,0,0.6,0
		c5.3,0,10.5,0,15.8,0c0.2,0,0.5,0,0.7,0c0.6,0.1,0.8,0.3,0.9,0.9c0,0.4,0,0.7,0,1.1C191.9,93.3,191.9,96.4,191.9,99.4z
		 M177.1,100.5c-0.1,2.6,2.1,5.5,5.4,5.5c3.3,0,5.5-2.9,5.5-5.4c0-2.5-2.1-5.4-5.4-5.4C179.2,95.2,177.1,98,177.1,100.5z"/>
	<path class="st1" d="M268.5,17.5c0.8-0.1,1.5-0.2,2.3-0.3c1.5-0.2,3.1-0.4,4.6-0.6c0.4,0,0.8,0,1.2,0c0.9,0.1,1.7,0.5,2.3,1.1
		c0.8,0.8,1.2,1.7,1.3,2.9c0.1,1.1-0.3,2.1-1,2.9c-1,1.2-2.3,1.6-3.8,1.4c-0.2,0-0.5-0.1-0.7-0.1c-0.2,0-0.3,0-0.5,0
		c-0.1,0-0.1,0.1-0.1,0.1c0,0,0.1,0.1,0.1,0.1c0.3,0.2,0.5,0.4,0.8,0.6c1.4,1,2.8,2,4.2,3.1c0.2,0.2,0.4,0.3,0.6,0.5
		c0.3,0.3,0.3,0.5,0.1,0.8c-0.1,0.1-0.1,0.2-0.2,0.3c-1,1.5-2.1,2.9-3.2,4.4c-0.1,0.1-0.2,0.2-0.3,0.3c-0.2,0.2-0.5,0.3-0.7,0.2
		c-0.2-0.1-0.3-0.2-0.5-0.3c-0.3-0.2-0.6-0.4-0.8-0.6c-3.2-2.3-6.3-4.6-9.5-6.8c-0.2-0.2-0.4-0.3-0.6-0.5c-0.4-0.3-0.4-0.6-0.1-1
		c0.2-0.3,0.3-0.5,0.5-0.8c0.8-1.1,1.6-2.2,2.3-3.3c0.3-0.4,0.6-0.8,0.8-1.2c0.2-0.3,0.2-0.3-0.1-0.5c-0.7-0.5-1.5-1.1-2.2-1.6
		c0,0-0.1-0.1-0.1-0.1c-0.1-0.1-0.2-0.1-0.3,0c-0.1,0.1-0.2,0.3-0.3,0.4c-1.1,1.5-2.1,2.9-3.2,4.4c-0.1,0.2-0.3,0.3-0.4,0.5
		c-0.2,0.2-0.5,0.3-0.8,0.1c-0.1-0.1-0.3-0.1-0.4-0.2c-0.2-0.1-0.4-0.3-0.7-0.5c-3.1-2.3-6.3-4.5-9.4-6.8c-0.2-0.2-0.5-0.4-0.7-0.5
		c-0.5-0.4-0.6-0.9-0.2-1.4c1-1.4,2.1-2.9,3.1-4.3c0.4-0.6,0.7-0.6,1.3-0.2c0.2,0.1,0.4,0.3,0.6,0.4c1.6,1.2,3.2,2.3,4.8,3.5
		c0.1,0.1,0.2,0.2,0.4,0.3c0.1,0,0.1,0.1,0.2,0c0.1-0.1,0.1-0.2,0.1-0.3c-0.1-0.2-0.1-0.4-0.2-0.5c-0.2-0.4-0.3-0.8-0.4-1.2
		c-0.2-1.6,0.2-2.9,1.5-3.9c1.3-1,2.7-1.2,4.3-0.6c0.9,0.4,1.6,1,2,1.9c0.3,0.6,0.5,1.2,0.6,1.8c0.3,1,0.4,2,0.6,3
		c0.1,0.6,0.2,1.2,0.3,1.9C268.3,16.6,268.4,17,268.5,17.5z M272.4,21.8c0.5,0.3,0.9,0.6,1.4,0.9c0.2,0.1,0.5,0.3,0.7,0.4
		c0.5,0.3,1.1,0.4,1.8,0.3c1.1-0.2,2.1-1,2.2-2.3c0.1-1.5-1-3-2.8-3c-0.2,0-0.5,0-0.7,0.1c-1.3,0.2-2.5,0.4-3.8,0.5
		c-0.3,0-0.6,0.1-0.9,0.3c-0.3,0.1-0.4,0.3-0.2,0.6c0.1,0.1,0.2,0.3,0.3,0.4C271,20.7,271.7,21.3,272.4,21.8z M263.3,15.1
		c0.8,0.5,1.5,1,2.3,1.5c0.2,0.2,0.5,0.2,0.8,0.2c0.2,0,0.2,0,0.2-0.2c-0.1-1.4-0.2-2.9-0.5-4.3c-0.2-0.6-0.4-1.2-0.6-1.8
		c-0.2-0.3-0.4-0.6-0.7-0.9c-0.9-0.7-1.8-0.7-2.8-0.3c-1,0.4-1.5,1.2-1.5,2.3c0,0.7,0.2,1.3,0.7,1.7C261.7,14,262.5,14.6,263.3,15.1
		z"/>
	<path class="st1" d="M254.8,32.6c-1.3,1.9-2.7,3.7-4,5.6c-0.2,0.2-0.3,0.4-0.5,0.6c-0.2,0.1-0.4,0.2-0.6,0.1
		c-0.2-0.1-0.3-0.2-0.5-0.3c-2.9-2-5.7-4.1-8.5-6.2c-0.4-0.3-0.8-0.6-1.2-0.9c-0.5-0.4-0.6-0.7-0.2-1.3c0.1-0.1,0.2-0.3,0.3-0.4
		c2.6-3.7,5.3-7.3,7.9-11c0.1-0.2,0.3-0.4,0.4-0.5c0.4-0.4,0.6-0.4,1.1-0.1c0.2,0.1,0.4,0.2,0.5,0.4c3,2.2,6,4.4,9,6.5
		c0.2,0.1,0.4,0.3,0.6,0.5c0.3,0.3,0.3,0.5,0.2,0.8c-0.1,0.2-0.3,0.4-0.4,0.6C257.5,28.9,256.2,30.8,254.8,32.6
		C254.8,32.6,254.8,32.6,254.8,32.6z M251.9,31.7c1.3-1.6,1.1-4.2-0.8-5.6c-1.8-1.3-4.4-0.8-5.6,0.8c-1.3,1.7-0.9,4.2,0.9,5.5
		C248.2,33.8,250.7,33.4,251.9,31.7z"/>
	<path class="st1" d="M269,43c-0.6,0.9-1.2,1.7-1.9,2.6c-0.7,1-1.5,2-2.2,3c-0.1,0.2-0.3,0.3-0.4,0.5c-0.3,0.3-0.6,0.4-0.9,0.2
		c-0.2-0.1-0.5-0.3-0.7-0.4c-2.5-1.8-4.9-3.6-7.4-5.4c-0.6-0.4-1.1-0.8-1.7-1.3c-0.2-0.1-0.3-0.2-0.4-0.4c-0.2-0.2-0.3-0.5-0.1-0.8
		c0.1-0.2,0.2-0.4,0.4-0.6c0.6-0.8,1.1-1.6,1.7-2.3c2.1-2.9,4.2-5.8,6.3-8.7c0.2-0.2,0.3-0.5,0.5-0.7c0.3-0.3,0.6-0.4,1-0.2
		c0.1,0.1,0.3,0.2,0.4,0.3c3.1,2.3,6.3,4.5,9.4,6.8c0.1,0.1,0.3,0.2,0.4,0.3c0.3,0.3,0.3,0.5,0.1,0.9c-0.1,0.2-0.3,0.4-0.4,0.7
		C271.6,39.4,270.3,41.2,269,43z M259.7,37.3c-1.2,1.5-1.1,4.2,0.8,5.6c1.9,1.4,4.5,0.6,5.6-0.9c1.1-1.5,1.1-4.1-0.9-5.6
		C263.2,35,260.7,35.8,259.7,37.3z"/>
	<path class="st2" d="M176.7,121.5c1.4,0,2.5,0,3.7,0c0.3,0,0.5,0,0.8,0.1c0.4,0.1,0.7,0.3,0.8,0.8c0.1,0.9,0.2,1.9,0.2,2.8
		c0,0.8-0.4,1.1-1.1,1.3c-0.4,0.1-0.7,0.1-1.1,0.1c-2.3,0-4.6,0-6.9,0c-0.2,0-0.5,0-0.7-0.1c-0.6-0.1-0.8-0.3-0.8-0.9
		c-0.1-0.4-0.1-0.9-0.1-1.3c0-0.7,0-1.4,0-2.1c0-0.2,0-0.4,0-0.5c0-0.2-0.1-0.3-0.3-0.3c-0.6,0-1.2,0-1.9,0c-0.2,0-0.3,0.1-0.3,0.3
		c0,1-0.1,2-0.1,3c0,0.4,0,0.7-0.1,1.1c-0.1,0.4-0.3,0.7-0.8,0.8c-0.3,0-0.5,0.1-0.8,0.1c-2.5,0-5,0-7.5,0c-0.3,0-0.6,0-0.8-0.1
		c-0.3-0.1-0.5-0.3-0.6-0.6c0-0.1,0-0.1,0-0.2c-0.1-1-0.1-2,0-3c0.1-0.7,0.3-1,1.1-1c0.5,0,1,0,1.5,0c0.7,0,1.4,0,2,0
		c0.2,0,0.4,0,0.5-0.1c0.2,0,0.2-0.2,0.1-0.4c-0.2-0.2-0.3-0.3-0.5-0.5c-0.3-0.3-0.5-0.5-0.7-0.9c-0.5-0.9-0.5-1.9,0.1-2.8
		c0.6-0.9,1.5-1.3,2.6-1.3c0.7,0,1.4,0.3,1.9,0.8c0.5,0.4,1,0.9,1.5,1.4c0.6,0.5,1.2,1.1,1.8,1.6c0.2,0.2,0.3,0.2,0.5,0
		c0.9-0.8,1.7-1.6,2.6-2.4c0.3-0.3,0.6-0.5,0.9-0.8c0.8-0.6,1.7-0.7,2.7-0.5c0.3,0.1,0.5,0.2,0.8,0.3c1.3,0.9,1.7,2.8,0.7,4
		c-0.3,0.4-0.7,0.6-1,0.9C177.1,121.1,176.9,121.2,176.7,121.5z M174.6,120.4c0.7,0,1.3-0.1,2-0.3c0.8-0.3,1.3-0.9,1.3-1.7
		c0-0.8-0.5-1.6-1.2-1.9c-0.4-0.2-0.7-0.2-1.1,0c-0.5,0.2-1,0.4-1.4,0.8c-0.8,0.6-1.5,1.5-2.1,2.3c-0.1,0.2-0.1,0.3,0.1,0.4
		C172.9,120.3,173.7,120.4,174.6,120.4z M169,119.9c0-0.1,0-0.1,0-0.2c-0.7-1.2-1.7-2.1-2.9-2.9c-0.1-0.1-0.2-0.1-0.3-0.1
		c-1-0.4-2.1,0-2.5,1c-0.4,0.9-0.1,2.1,1.1,2.5c1.1,0.4,2.2,0.4,3.3,0.2C168.1,120.3,168.6,120.2,169,119.9z"/>
	<path class="st2" d="M77.5,235.3c6,0,12,0,18,0c0.4,0,0.8,0,1.2,0.1c0.7,0.2,1.2,0.9,1.2,1.6c0,0.7-0.5,1.3-1.2,1.5
		c-0.3,0.1-0.6,0.1-0.9,0.1c-0.6,0-1.1,0-1.7,0c-11.4,0-22.8,0-34.2,0c-0.5,0-1,0-1.5-0.1c-0.9-0.2-1.3-0.7-1.3-1.5
		c0-0.8,0.5-1.4,1.3-1.6c0.3-0.1,0.7-0.1,1-0.1C65.4,235.3,71.4,235.3,77.5,235.3z"/>
	<path class="st2" d="M215.9,128.3c0.2,0.2,0.5,0.2,0.8,0.3c0.7,0.3,1.5,0.5,2.2,0.8c0.3,0.1,0.5,0.2,0.8,0.4
		c0.3,0.2,0.5,0.5,0.4,0.9c0,0.3-0.1,0.6-0.2,0.8c-0.2,0.6-0.4,1.2-0.7,1.7c0,0.1-0.1,0.2-0.2,0.3c-0.3,0.5-0.6,0.6-1.2,0.4
		c-0.1,0-0.2,0-0.2-0.1c-2-0.8-4.1-1.4-6.1-2.2c-0.3-0.1-0.7-0.2-1-0.4c-0.6-0.3-0.8-0.6-0.6-1.3c0.2-0.7,0.4-1.3,0.6-2
		c0.1-0.4,0.3-0.9,0.4-1.3c0.1-0.3,0.1-0.3-0.2-0.4c-0.5-0.2-1-0.4-1.4-0.6c-0.2-0.1-0.3,0-0.4,0.2c-0.4,0.9-0.8,1.7-1.1,2.6
		c-0.1,0.2-0.2,0.5-0.3,0.7c-0.3,0.5-0.7,0.7-1.2,0.6c-0.2,0-0.5-0.1-0.7-0.2c-2.1-0.7-4.2-1.4-6.3-2.2c-0.2-0.1-0.3-0.1-0.5-0.2
		c-0.6-0.3-0.8-0.7-0.6-1.3c0.2-0.9,0.5-1.7,0.9-2.5c0.2-0.4,0.6-0.6,1-0.5c0.3,0.1,0.7,0.1,1,0.2c0.8,0.2,1.5,0.5,2.3,0.7
		c0.2,0.1,0.3,0.1,0.5,0.1c0.2,0,0.3-0.1,0.2-0.3c-0.1-0.3-0.2-0.5-0.3-0.8c-0.2-0.5-0.3-1-0.2-1.5c0.2-1.1,0.8-1.8,1.8-2.1
		c1.1-0.3,2-0.1,2.8,0.7c0.3,0.3,0.5,0.6,0.7,1c0.5,0.9,1,1.9,1.5,2.8c0.5,0.9,0.3,0.8,1.2,0.4c1-0.4,2-0.8,3-1.3
		c0.3-0.1,0.5-0.2,0.8-0.3c1.6-0.4,3.3,0.7,3.4,2.4c0.1,1.1-0.5,1.9-1.4,2.4c-0.3,0.2-0.7,0.3-1.1,0.5
		C216.1,128.1,216,128.2,215.9,128.3z M208.7,124.5c0.2,0,0.3,0,0.5,0c0.1,0,0.2-0.1,0.2-0.2c0-0.1,0-0.2,0-0.3
		c-0.3-1.2-0.8-2.3-1.6-3.2c-0.8-0.9-2-0.8-2.8,0.1c-0.6,0.8-0.5,1.8,0.3,2.4C206.2,124.1,207.4,124.5,208.7,124.5z M211.8,125.2
		c0.3,0.4,0.6,0.5,0.8,0.7c0.9,0.7,2,1,3.1,1.1c1.1,0.2,2-0.6,2-1.7c0-1.1-1.1-2-2.2-1.8c-0.1,0-0.2,0.1-0.4,0.1
		C214.1,124.2,213,124.7,211.8,125.2z"/>
	<path class="st2" d="M122.9,120.5c0.3,0,0.6,0.1,0.9,0.2c0.5,0.2,0.9,0.4,1.4,0.6c0.9,0.4,1.7,0.8,2.6,1.2c0.4,0.2,0.4,0.2,0.7-0.2
		c0.4-0.7,0.8-1.4,1.2-2.1c0.2-0.4,0.5-0.8,0.8-1.2c0.2-0.3,0.4-0.5,0.6-0.8c0.8-0.9,2.1-0.9,2.9-0.5c0.9,0.4,1.5,1.4,1.5,2.4
		c0,0.5-0.2,0.9-0.4,1.3c-0.2,0.3-0.4,0.7-0.6,1c0,0.1,0,0.2,0,0.2c0,0,0.1,0.1,0.2,0c0.9-0.3,1.8-0.5,2.8-0.8
		c0.2-0.1,0.4-0.2,0.7-0.2c0.5-0.1,0.9,0.1,1.1,0.5c0,0.1,0.1,0.1,0.1,0.2c0.3,0.8,0.5,1.7,0.8,2.5c0.1,0.5-0.1,0.8-0.5,1.1
		c-0.4,0.3-0.9,0.4-1.5,0.6c-1.6,0.4-3.1,0.9-4.7,1.4c-0.5,0.2-0.9,0.3-1.4,0.4c-0.1,0-0.3,0.1-0.5,0.1c-0.3,0-0.6-0.1-0.7-0.4
		c-0.2-0.3-0.3-0.6-0.4-0.8c-0.3-0.8-0.5-1.6-0.8-2.4c-0.1-0.2-0.1-0.4-0.2-0.6c0-0.1-0.1-0.2-0.3-0.1c-0.6,0.1-1.1,0.3-1.7,0.4
		c-0.2,0.1-0.2,0.2-0.2,0.4c0.1,0.5,0.3,1,0.4,1.5c0.1,0.6,0.3,1.1,0.4,1.7c0,0.2,0.1,0.3,0.1,0.5c0.1,0.5-0.1,0.8-0.5,1
		c-0.2,0.1-0.5,0.2-0.7,0.3c-2.2,0.7-4.3,1.3-6.5,2c-0.2,0.1-0.4,0.1-0.5,0.1c-0.6,0.1-0.9,0-1.1-0.6c0,0,0,0,0-0.1
		c-0.3-0.8-0.6-1.7-0.8-2.5c0-0.1,0-0.1,0-0.2c-0.1-0.5,0.1-0.8,0.5-1c0.3-0.1,0.6-0.3,0.9-0.4c0.7-0.2,1.5-0.4,2.2-0.7
		c0.2-0.1,0.5-0.2,0.7-0.3c0.1,0,0.1-0.2,0-0.3c-0.2-0.1-0.4-0.2-0.5-0.3c-0.3-0.2-0.6-0.4-0.9-0.6c-0.8-0.7-1-1.7-0.7-2.8
		C120.8,121.2,121.8,120.5,122.9,120.5z M130.3,122.6c1,0,2.7-0.5,3.4-0.9c0.1-0.1,0.3-0.2,0.4-0.3c0.9-0.8,0.6-2.4-0.5-2.9
		c-0.9-0.4-1.8-0.2-2.4,0.7c-0.6,1-1.1,2-1.7,3c-0.1,0.2,0,0.3,0.2,0.3C129.9,122.6,130.2,122.6,130.3,122.6z M127.2,123.3
		c-0.1,0-0.1-0.1-0.2-0.2c-1-0.5-2.1-1.1-3.1-1.6c-0.9-0.4-1.7-0.2-2.3,0.6c-0.4,0.6-0.5,1.2-0.1,1.8c0.4,0.7,0.9,1,1.7,0.9
		c0.3,0,0.6-0.1,0.8-0.1c1-0.2,2-0.5,2.9-1.2C127,123.6,127.1,123.5,127.2,123.3z"/>
	<path class="st2" d="M84.2,232.3c-3.2,0-6.5,0-9.7,0c-0.6,0-1.2,0-1.9-0.1c-0.8-0.1-1.3-0.5-1.4-1.3c-0.2-0.7,0.1-1.4,0.8-1.7
		c0.2-0.1,0.4-0.2,0.7-0.2c0.5-0.1,0.9-0.1,1.4-0.1c2.4,0,4.8,0,7.3,0c4.3,0,8.6,0,13,0c0.6,0,1.2,0.1,1.8,0.3
		c1.2,0.4,1.5,1.8,0.7,2.7c-0.3,0.3-0.6,0.4-1,0.5c-0.5,0-1.1,0.1-1.6,0.1C90.9,232.3,87.6,232.3,84.2,232.3z"/>
	<path class="st2" d="M159.3,133.7c0-1.2,0-2.4,0-3.6c0-0.2,0-0.4,0-0.5c0.1-0.8,0.6-1.4,1.4-1.4c0.7-0.1,1.5-0.1,2.2-0.1
		c1.5,0,2.9,0,4.4,0.1c0.9,0,1.4,0.5,1.5,1.4c0,0.2,0,0.4,0,0.5c0.1,2.4,0.1,4.8,0,7.3c0,0.2,0,0.5,0,0.7c-0.1,0.7-0.6,1.2-1.3,1.3
		c-0.2,0-0.4,0-0.5,0c-1.9,0-3.8,0-5.8,0c-0.2,0-0.4,0-0.5,0c-0.8-0.1-1.2-0.7-1.3-1.4c0-0.3,0-0.6,0-0.9
		C159.3,135.8,159.3,134.7,159.3,133.7z M166.9,134.3c0-1.2-1-2.4-2.2-2.8c-0.4-0.1-0.7-0.1-1.1-0.1c-1.3,0.2-2.2,1.2-2.4,2.4
		c-0.2,1.3,0.5,2.6,1.8,3c0.6,0.2,1.2,0.2,1.8,0.1C166,136.7,166.9,135.5,166.9,134.3z"/>
	<path class="st2" d="M171.6,133.9c0-1.3,0-2.7,0-4c0-0.2,0-0.4,0-0.5c0.1-0.6,0.6-1,1.2-1.1c0.2,0,0.4,0,0.6,0c1.9,0,3.9,0,5.8,0
		c0.2,0,0.4,0,0.5,0c0.6,0.1,1.1,0.5,1.3,1.1c0,0.2,0.1,0.4,0.1,0.6c0,2.6,0,5.1,0,7.7c0,0.2,0,0.5-0.1,0.7c-0.2,0.6-0.6,1-1.2,1
		c-0.2,0-0.3,0-0.5,0c-2.1,0-4.1,0-6.2,0c-1.1,0-1.6-0.6-1.6-1.5C171.6,136.5,171.6,135.2,171.6,133.9
		C171.6,133.9,171.6,133.9,171.6,133.9z M179.2,134.4c0-1.6-1.2-2.8-2.8-2.8c-1.9,0-2.9,1.5-2.9,2.8c0,1.3,1.1,2.9,2.9,2.9
		C177.9,137.3,179.2,136,179.2,134.4z"/>
	<path class="st2" d="M205,95.5c-0.1-0.4-0.3-0.8-0.3-1.2c-0.2-1,0.4-1.9,1.4-2.2c0.7-0.2,1.3,0,1.8,0.4c0.3,0.3,0.5,0.6,0.7,0.9
		c0.2,0.5,0.5,1,0.7,1.6c0.2,0.4,0.4,0.7,0.6,1.1c0.1,0.2,0.2,0.2,0.5,0.2c0.7-0.2,1.3-0.4,2-0.6c0.3-0.1,0.7-0.2,1-0.3
		c0.3-0.1,0.6-0.1,0.9-0.1c0.7,0,1.3,0.3,1.6,1c0.3,0.7,0.3,1.4-0.1,2c-0.3,0.4-0.7,0.7-1.1,0.9c-0.2,0.1-0.5,0.2-0.7,0.4
		c0.1,0.2,0.2,0.2,0.4,0.3c0.5,0.2,0.9,0.5,1.4,0.7c0.2,0.1,0.4,0.3,0.6,0.4c0.3,0.2,0.4,0.6,0.3,0.9c-0.1,0.6-0.4,1.2-0.8,1.8
		c-0.2,0.3-0.6,0.4-1,0.3c-0.2-0.1-0.3-0.1-0.5-0.2c-1.4-0.6-2.9-1.2-4.3-1.9c-0.2-0.1-0.4-0.2-0.6-0.3c-0.3-0.2-0.5-0.6-0.4-0.9
		c0.1-0.3,0.2-0.6,0.3-0.9c0.2-0.5,0.4-1,0.6-1.5c0.1-0.3,0-0.5-0.3-0.6c-0.4-0.2-0.8-0.3-1.2-0.5c-0.4,0.6-0.6,1.1-0.9,1.7
		c-0.1,0.2-0.2,0.4-0.3,0.6c-0.3,0.6-0.8,0.7-1.4,0.5c-0.1,0-0.2-0.1-0.4-0.1c-1.4-0.6-2.8-1.2-4.2-1.8c-0.2-0.1-0.4-0.2-0.6-0.3
		c-0.3-0.3-0.5-0.6-0.4-1c0.1-0.6,0.4-1.1,0.7-1.6c0.3-0.4,0.6-0.5,1.1-0.5c0.2,0,0.4,0.1,0.6,0.2c0.5,0.2,0.9,0.4,1.4,0.6
		c0.3,0.1,0.5,0.3,0.8,0.3c0,0,0.1,0.1,0.1,0.1C205.1,95.7,205.1,95.6,205,95.5z M214,95.9c-0.1,0-0.1,0-0.2,0
		c-0.9,0.2-1.8,0.5-2.7,0.8c-0.2,0.1-0.2,0.2-0.2,0.4c0,0.2,0,0.3,0.2,0.4c0.6,0.3,1.2,0.6,1.7,0.9c0.3,0.1,0.5,0.2,0.8,0.3
		c0.5,0.1,0.9,0,1.2-0.4c0.3-0.4,0.4-0.9,0.3-1.4C215.1,96.2,214.6,95.9,214,95.9z M208.8,96.5c0-0.1,0.1-0.1,0.1-0.2
		c0.1-1.2-0.4-2.1-1.1-3c-0.1-0.1-0.3-0.2-0.4-0.3c-0.6-0.3-1.1-0.3-1.5,0.1c-0.5,0.4-0.6,0.8-0.3,1.5c0.1,0.4,0.3,0.6,0.7,0.8
		C207,95.9,207.9,96.2,208.8,96.5z"/>
	<path class="st2" d="M126.7,100.5c-0.4-0.2-0.6-0.3-0.8-0.4c-0.3-0.1-0.6-0.3-0.8-0.5c-1.1-0.9-1-2.4,0.2-3.1
		c0.6-0.4,1.2-0.4,1.9-0.2c0.8,0.2,1.7,0.4,2.5,0.6c0.1,0,0.1,0,0.2,0.1c0.4,0.1,0.4,0.1,0.5-0.3c0.3-0.8,0.5-1.5,0.8-2.3
		c0.1-0.4,0.3-0.8,0.5-1.1c0.5-0.8,2-1.3,3-0.3c0.3,0.3,0.5,0.6,0.5,1c0,0.3,0,0.6,0,0.9c0,0.2-0.1,0.3-0.1,0.5c0,0.1-0.1,0.3,0,0.4
		c0.1,0.1,0.2,0,0.4-0.1c0.4-0.2,0.9-0.4,1.3-0.6c0.2-0.1,0.5-0.2,0.7-0.3c0.4-0.2,0.7,0,1,0.3c0.4,0.5,0.7,1.1,0.9,1.7
		c0.1,0.4,0,0.7-0.3,1c-0.2,0.1-0.3,0.2-0.5,0.3c-1.3,0.7-2.7,1.5-4,2.2c-0.8,0.5-1.5,0.2-2-0.5c-0.4-0.6-0.8-1.1-1.1-1.7
		c-0.1-0.2-0.2-0.2-0.5-0.1c-0.4,0.2-0.8,0.4-1.2,0.8c0.2,0.5,0.5,1,0.7,1.5c0.1,0.3,0.2,0.5,0.3,0.8c0.2,0.5,0,1-0.4,1.3
		c-0.2,0.1-0.4,0.3-0.6,0.4c-1.2,0.7-2.4,1.3-3.5,2c-0.2,0.1-0.5,0.2-0.8,0.3c-0.4,0.1-0.8,0-1.1-0.4c-0.3-0.4-0.6-0.9-0.8-1.4
		c-0.2-0.5-0.1-0.8,0.3-1.2c0.3-0.2,0.5-0.4,0.8-0.6C125.5,101.2,126,100.9,126.7,100.5z M126.6,96.8c-0.9,0-1.5,0.6-1.5,1.4
		c0,0.2,0.1,0.4,0.1,0.6c0.3,0.7,0.9,1,1.6,0.7c0.7-0.2,1.3-0.5,1.9-1c0.3-0.2,0.5-0.4,0.7-0.7c0.1-0.2,0.1-0.3-0.1-0.4
		c-0.7-0.2-1.4-0.4-2.2-0.6C126.9,96.8,126.7,96.8,126.6,96.8z M133.3,93c-0.5,0-0.9,0.2-1.1,0.6c-0.6,0.9-0.9,1.8-0.9,2.8
		c0,0.2,0.1,0.3,0.3,0.3c1.1-0.1,2-0.7,2.8-1.4c0.4-0.4,0.4-0.9,0.2-1.5C134.3,93.3,133.9,93,133.3,93z"/>
	<path class="st2" d="M131.9,140.1c0,0.5-0.1,0.7-0.4,0.8c-0.2,0.1-0.4,0.2-0.6,0.3c-2.1,0.7-4.3,1.3-6.4,2c-0.1,0-0.1,0.1-0.2,0.1
		c-0.5,0.1-0.7,0-0.9-0.5c-0.1-0.1-0.1-0.3-0.1-0.4c-0.8-2.6-1.6-5.2-2.4-7.8c0-0.1-0.1-0.3-0.1-0.4c-0.1-0.5,0-0.8,0.5-1
		c0.1,0,0.2-0.1,0.4-0.1c2.1-0.6,4.1-1.3,6.2-1.9c0.2-0.1,0.3-0.1,0.5-0.2c0.4-0.1,0.7,0.1,0.9,0.5c0.1,0.1,0.1,0.2,0.1,0.4
		c0.8,2.4,1.5,4.9,2.3,7.3C131.7,139.5,131.9,139.9,131.9,140.1z M126.5,140.3c1.4,0,2.6-1.2,2.6-2.7c0-1.5-1.1-2.6-2.6-2.7
		c-1.5,0-2.7,1.3-2.8,2.6C123.8,139,125.2,140.4,126.5,140.3z"/>
	<path class="st2" d="M135.1,140c-0.4,0-0.6-0.1-0.8-0.4c-0.1-0.2-0.1-0.3-0.2-0.5c-0.8-2.6-1.6-5.2-2.4-7.8
		c-0.3-0.9-0.2-1.1,0.7-1.5c2.2-0.8,4.5-1.4,6.7-2c0.6-0.2,0.9,0,1.1,0.6c0.4,1.3,0.8,2.5,1.2,3.8c0.4,1.3,0.8,2.7,1.2,4
		c0.1,0.2,0.1,0.3,0.2,0.5c0.1,0.6,0,0.9-0.6,1.2c-0.1,0-0.1,0.1-0.2,0.1c-2.1,0.7-4.3,1.3-6.4,2C135.4,139.9,135.2,140,135.1,140z
		 M140.1,134.4c0.1-1.5-1.2-2.7-2.6-2.7c-1.4,0-2.7,1.3-2.7,2.7c0,1.4,1.2,2.6,2.7,2.6C138.9,137,140.2,135.9,140.1,134.4z"/>
	<path class="st2" d="M206.3,132.4c0,0.2,0,0.4-0.1,0.6c-0.9,2.4-1.7,4.8-2.6,7.2c-0.2,0.7-0.7,1-1.3,1c-0.3,0-0.5-0.1-0.8-0.2
		c-1.2-0.4-2.5-0.8-3.7-1.2c-0.7-0.2-1.3-0.4-2-0.7c-0.2-0.1-0.3-0.1-0.5-0.2c-0.4-0.2-0.6-0.5-0.5-1c0-0.2,0.1-0.5,0.2-0.7
		c0.9-2.5,1.8-4.9,2.7-7.4c0,0,0,0,0-0.1c0.3-0.8,0.7-1,1.5-0.7c0.9,0.3,1.8,0.7,2.7,1c1,0.4,2.1,0.7,3.1,1.1
		c0.2,0.1,0.4,0.1,0.6,0.2C206.1,131.6,206.3,131.9,206.3,132.4z M200.6,133.1c-1.6,0-2.7,1.4-2.7,2.6c0,1.5,1.4,2.7,2.7,2.7
		c1.5,0,2.7-1.3,2.7-2.6C203.2,134.2,202.1,133.1,200.6,133.1z"/>
	<path class="st2" d="M210,132.9c0.1,0,0.3,0,0.4,0.1c1.9,0.7,3.8,1.3,5.7,2c0.4,0.2,0.7,0.5,0.9,0.9c0.1,0.3,0.1,0.6,0,0.9
		c-0.2,0.6-0.4,1.1-0.6,1.7c-0.6,1.7-1.2,3.4-1.8,5.1c-0.1,0.2-0.2,0.4-0.3,0.7c-0.3,0.6-0.9,0.9-1.6,0.7c-0.2-0.1-0.4-0.1-0.7-0.2
		c-1.6-0.6-3.2-1.1-4.8-1.7c-0.2-0.1-0.4-0.1-0.6-0.2c-0.6-0.3-0.9-0.9-0.7-1.6c0-0.2,0.1-0.3,0.2-0.5c0.8-2.2,1.6-4.4,2.3-6.6
		c0.1-0.1,0.1-0.3,0.2-0.4C208.9,133.2,209.3,132.9,210,132.9z M214,139.5c0-1.4-1.3-2.7-2.7-2.7c-1.4,0-2.6,1.3-2.6,2.8
		c0,1.5,1.2,2.6,2.7,2.5C212.9,142.2,214,141,214,139.5z"/>
	<path class="st2" d="M214.2,105.7c0,0.1-0.1,0.3-0.2,0.4c-0.8,1.8-1.6,3.6-2.4,5.4c0,0,0,0,0,0.1c-0.3,0.7-0.6,0.8-1.3,0.5
		c-1.5-0.6-2.9-1.3-4.4-1.9c-0.1-0.1-0.2-0.1-0.4-0.2c-0.3-0.2-0.4-0.4-0.3-0.8c0-0.2,0.1-0.3,0.2-0.5c0.8-1.8,1.6-3.6,2.3-5.4
		c0,0,0,0,0-0.1c0.3-0.7,0.6-0.8,1.3-0.5c1.5,0.6,2.9,1.3,4.3,1.9c0.1,0.1,0.2,0.1,0.4,0.2C214.1,105,214.2,105.3,214.2,105.7z
		 M209.5,105.9c-0.9,0-2,0.6-2.1,2c0,1.1,1,2.1,2.1,2.1c0.9,0,2.1-0.7,2.1-2.1C211.6,106.7,210.7,105.9,209.5,105.9z"/>
	<path class="st2" d="M131.8,103.2c0.2,0,0.4,0.1,0.5,0.2c0.1,0.1,0.2,0.3,0.3,0.4c1,1.7,2,3.5,3,5.2c0.4,0.8,0.3,1.1-0.4,1.5
		c-1.4,0.8-2.7,1.5-4.1,2.3c-0.1,0.1-0.2,0.1-0.3,0.2c-0.3,0.1-0.6,0.1-0.8-0.2c-0.1-0.1-0.2-0.3-0.3-0.5c-0.9-1.7-1.8-3.3-2.8-5
		c-0.1-0.1-0.1-0.2-0.2-0.3c-0.2-0.5-0.1-0.8,0.4-1.1c0.1-0.1,0.2-0.1,0.3-0.2c1.3-0.7,2.6-1.5,4-2.2
		C131.4,103.4,131.6,103.2,131.8,103.2z M133.4,108.5c0-1-0.9-2.1-2.1-2.1c-1.3,0-2.1,1.2-2,2.2c0,0.9,0.7,2,2.1,2
		C132.7,110.5,133.5,109.5,133.4,108.5z"/>
	<path class="st2" d="M206,102c0,0.1,0,0.2-0.1,0.3c-0.8,1.9-1.7,3.8-2.5,5.7c0,0.1-0.1,0.2-0.2,0.3c-0.2,0.3-0.5,0.4-0.8,0.3
		c-0.2-0.1-0.4-0.2-0.7-0.3c-1.3-0.6-2.6-1.2-3.9-1.7c-0.8-0.4-1-0.8-0.6-1.6c0.8-1.7,1.5-3.5,2.3-5.3c0.1-0.1,0.1-0.2,0.2-0.3
		c0.2-0.3,0.5-0.5,0.9-0.3c0.2,0.1,0.3,0.1,0.5,0.2c1.3,0.5,2.5,1.1,3.8,1.6c0.2,0.1,0.4,0.2,0.6,0.3
		C205.9,101.4,206.1,101.6,206,102z M203.5,104.3c0-1.1-0.9-2.1-2-2.1c-1.3,0-2.1,1.1-2.1,2.1c0,1.1,1,2.1,2,2.1
		C202.6,106.4,203.5,105.4,203.5,104.3z"/>
	<path class="st2" d="M143.5,105.5c0,0.2-0.1,0.4-0.3,0.5c-0.1,0.1-0.2,0.1-0.3,0.2c-1.3,0.8-2.6,1.6-4,2.4c-0.7,0.4-1,0.4-1.4-0.4
		c-1-1.8-2-3.5-3.1-5.3c-0.4-0.7-0.3-1,0.4-1.4c1.4-0.8,2.8-1.6,4.2-2.3c0.1-0.1,0.2-0.1,0.4-0.2c0.3-0.1,0.6,0,0.8,0.2
		c0.1,0.1,0.2,0.3,0.2,0.4c0.9,1.7,1.9,3.4,2.8,5.1C143.4,105,143.5,105.2,143.5,105.5z M139.1,106.4c1.1,0,2.1-0.9,2.1-2.1
		c0-1.1-0.9-2-2-2.1c-1.1,0-2.1,0.9-2.2,2C137,105.5,138.1,106.5,139.1,106.4z"/>
</g>
<path class="st1" d="M15.1,60.1c0.1-0.7,0.2-1.4,0.3-2c0.2-1.4,0.3-2.7,0.6-4.1c0.1-0.4,0.2-0.7,0.3-1c0.3-0.7,0.8-1.3,1.5-1.7
	c0.9-0.5,1.8-0.7,2.8-0.5c1,0.2,1.7,0.7,2.3,1.5c0.8,1.1,0.9,2.3,0.4,3.5c-0.1,0.2-0.2,0.4-0.3,0.6c-0.1,0.1-0.1,0.3-0.1,0.4
	c0,0.1,0,0.1,0.1,0.1c0,0,0.1,0,0.1-0.1c0.2-0.2,0.5-0.3,0.7-0.5c1.2-1,2.4-2,3.6-2.9c0.2-0.1,0.4-0.3,0.6-0.4
	c0.3-0.2,0.5-0.1,0.7,0.1c0.1,0.1,0.1,0.1,0.2,0.2c1,1.2,2.1,2.4,3,3.7c0.1,0.1,0.1,0.2,0.2,0.3c0.1,0.2,0.1,0.5,0,0.7
	c-0.1,0.1-0.2,0.3-0.3,0.4c-0.2,0.2-0.5,0.4-0.7,0.6c-2.7,2.2-5.3,4.4-8,6.6c-0.2,0.2-0.4,0.3-0.6,0.4c-0.4,0.2-0.6,0.2-0.9-0.1
	c-0.2-0.2-0.4-0.4-0.5-0.6c-0.8-0.9-1.5-1.8-2.3-2.8c-0.3-0.3-0.6-0.7-0.9-1c-0.2-0.2-0.2-0.2-0.5,0c-0.6,0.5-1.2,1-1.9,1.5
	c0,0-0.1,0.1-0.1,0.1c-0.1,0.1-0.1,0.1,0,0.2c0.1,0.1,0.2,0.2,0.3,0.4c1,1.3,2,2.5,3.1,3.8c0.1,0.1,0.2,0.3,0.3,0.5
	c0.2,0.3,0.1,0.5-0.1,0.8c-0.1,0.1-0.2,0.2-0.3,0.3c-0.2,0.2-0.4,0.3-0.5,0.5c-2.7,2.2-5.3,4.4-8,6.5c-0.2,0.2-0.4,0.3-0.6,0.5
	c-0.4,0.3-0.9,0.3-1.2-0.1c-1-1.2-2-2.4-3-3.7c-0.4-0.5-0.4-0.7,0.1-1.2c0.2-0.2,0.3-0.3,0.5-0.4c1.4-1.1,2.7-2.2,4.1-3.4
	c0.1-0.1,0.2-0.2,0.3-0.3c0.1,0,0.1-0.1,0.1-0.2c0-0.1-0.1-0.1-0.2-0.1c-0.2,0-0.3,0-0.5,0.1c-0.4,0.1-0.7,0.1-1.1,0.1
	C7,67,5.9,66.4,5.3,65c-0.6-1.3-0.4-2.6,0.4-3.8c0.5-0.7,1.2-1.1,2.1-1.3c0.5-0.1,1.1-0.2,1.7-0.2c0.9,0,1.8,0.1,2.8,0.2
	c0.6,0,1.1,0.1,1.7,0.1C14.3,60.1,14.7,60.1,15.1,60.1z M19.7,57.8c0.4-0.4,0.7-0.7,1.1-1c0.2-0.2,0.3-0.3,0.5-0.5
	c0.4-0.4,0.6-0.9,0.7-1.4c0.1-1-0.4-2-1.5-2.4c-1.3-0.5-2.8,0.2-3.2,1.7c-0.1,0.2-0.1,0.4-0.1,0.7c-0.1,1.1-0.3,2.2-0.4,3.3
	c0,0.3,0,0.5,0,0.8c0,0.3,0.2,0.4,0.5,0.3c0.1,0,0.3-0.1,0.4-0.1C18.4,58.8,19.1,58.2,19.7,57.8z M11.9,64c0.6-0.5,1.2-1.1,1.8-1.6
	c0.2-0.2,0.3-0.4,0.4-0.6c0-0.2,0-0.2-0.1-0.3c-1.3-0.3-2.5-0.5-3.8-0.5c-0.6,0-1.1,0-1.7,0.1c-0.3,0.1-0.6,0.2-0.9,0.4
	c-0.8,0.6-1.1,1.4-0.9,2.3c0.2,0.9,0.7,1.6,1.6,1.9c0.6,0.2,1.1,0.1,1.6-0.2C10.6,65.2,11.2,64.6,11.9,64z"/>
<path class="st1" d="M25,75.3c1.3,1.6,2.6,3.2,3.9,4.7c0.2,0.2,0.3,0.4,0.4,0.6c0.1,0.2,0.1,0.4-0.1,0.5c-0.1,0.1-0.2,0.2-0.4,0.4
	c-2.4,2-4.8,4-7.2,5.9c-0.3,0.3-0.7,0.6-1,0.8c-0.5,0.4-0.7,0.3-1.1-0.1c-0.1-0.1-0.2-0.2-0.3-0.3c-2.5-3.1-5.1-6.2-7.6-9.3
	c-0.1-0.2-0.3-0.3-0.4-0.5c-0.2-0.4-0.2-0.6,0.1-0.9c0.1-0.1,0.3-0.2,0.4-0.4c2.6-2.1,5.1-4.2,7.7-6.3c0.2-0.1,0.3-0.3,0.5-0.4
	c0.3-0.2,0.5-0.2,0.7,0c0.2,0.1,0.3,0.3,0.5,0.5C22.4,72.2,23.7,73.7,25,75.3C25,75.3,25,75.3,25,75.3z M23.5,77.6
	c-1.1-1.4-3.3-1.9-5-0.6c-1.5,1.2-1.7,3.6-0.6,5c1.2,1.5,3.4,1.7,4.9,0.5C24.5,81.3,24.7,79.1,23.5,77.6z"/>
<path class="st1" d="M37.1,65.5c0.6,0.7,1.2,1.4,1.8,2.2c0.7,0.9,1.4,1.7,2.1,2.6c0.1,0.1,0.2,0.3,0.3,0.5c0.2,0.3,0.2,0.6-0.1,0.8
	c-0.2,0.2-0.3,0.3-0.5,0.5c-2.1,1.7-4.2,3.4-6.3,5.1c-0.5,0.4-1,0.8-1.5,1.2c-0.1,0.1-0.3,0.2-0.4,0.3c-0.2,0.1-0.5,0.1-0.7-0.1
	c-0.2-0.1-0.3-0.3-0.4-0.4c-0.5-0.7-1.1-1.3-1.6-2c-2-2.4-4-4.9-6-7.3c-0.2-0.2-0.3-0.4-0.5-0.6c-0.2-0.3-0.2-0.6,0.1-0.9
	c0.1-0.1,0.2-0.2,0.3-0.3c2.7-2.2,5.3-4.4,8-6.5c0.1-0.1,0.2-0.2,0.4-0.3c0.3-0.2,0.5-0.2,0.8,0.1c0.2,0.2,0.3,0.4,0.5,0.5
	C34.6,62.4,35.9,64,37.1,65.5z M30.1,72.2c1,1.3,3.3,1.9,5,0.6c1.7-1.3,1.6-3.7,0.5-5c-1-1.3-3.3-1.9-5-0.5
	C29,68.7,29,70.9,30.1,72.2z"/>
<path class="st1" d="M22.8,226.4c0.6-0.2,1.1-0.4,1.7-0.6c1.1-0.4,2.2-0.8,3.4-1.2c0.3-0.1,0.6-0.2,0.9-0.2c0.7-0.1,1.3,0.1,1.9,0.5
	c0.7,0.5,1.2,1.1,1.5,1.9c0.2,0.8,0.1,1.6-0.3,2.4c-0.6,1-1.4,1.6-2.6,1.7c-0.2,0-0.4,0-0.6,0c-0.1,0-0.3,0-0.4,0.1
	c-0.1,0-0.1,0.1,0,0.1c0,0,0.1,0.1,0.1,0.1c0.2,0.1,0.4,0.2,0.7,0.3c1.2,0.5,2.5,1.1,3.7,1.6c0.2,0.1,0.4,0.2,0.5,0.3
	c0.2,0.1,0.3,0.3,0.2,0.6c0,0.1-0.1,0.2-0.1,0.2c-0.5,1.3-1.1,2.6-1.7,3.8c0,0.1-0.1,0.2-0.1,0.3c-0.1,0.2-0.3,0.3-0.5,0.2
	c-0.1,0-0.3-0.1-0.4-0.1c-0.2-0.1-0.5-0.2-0.7-0.3c-2.7-1.2-5.5-2.4-8.2-3.6c-0.2-0.1-0.4-0.2-0.6-0.3c-0.3-0.2-0.4-0.4-0.3-0.7
	c0.1-0.2,0.2-0.4,0.3-0.7c0.4-0.9,0.8-1.9,1.2-2.8c0.2-0.4,0.3-0.7,0.4-1.1c0.1-0.2,0.1-0.3-0.1-0.4c-0.6-0.3-1.3-0.6-1.9-0.8
	c0,0-0.1,0-0.1,0c-0.1,0-0.1,0-0.2,0.1c-0.1,0.1-0.1,0.2-0.2,0.4c-0.6,1.3-1.1,2.6-1.7,3.8c-0.1,0.1-0.1,0.3-0.2,0.4
	c-0.1,0.2-0.3,0.3-0.6,0.2c-0.1,0-0.2-0.1-0.3-0.1c-0.2-0.1-0.4-0.2-0.6-0.2c-2.7-1.2-5.5-2.4-8.2-3.6c-0.2-0.1-0.4-0.2-0.6-0.3
	c-0.4-0.2-0.6-0.5-0.4-1c0.6-1.3,1.1-2.5,1.7-3.8c0.2-0.5,0.4-0.6,0.9-0.4c0.2,0.1,0.4,0.1,0.5,0.2c1.4,0.6,2.8,1.2,4.2,1.9
	c0.1,0,0.2,0.1,0.3,0.1c0.1,0,0.1,0,0.2,0c0.1-0.1,0.1-0.1,0-0.2c-0.1-0.1-0.2-0.2-0.3-0.4c-0.2-0.3-0.4-0.5-0.5-0.8
	c-0.4-1.2-0.3-2.3,0.5-3.2c0.8-1,1.9-1.4,3.1-1.1c0.7,0.1,1.3,0.5,1.8,1.1c0.3,0.4,0.6,0.8,0.8,1.2c0.4,0.7,0.6,1.5,0.9,2.2
	c0.2,0.5,0.4,0.9,0.6,1.4C22.5,225.7,22.6,226,22.8,226.4z M26.4,229c0.4,0.2,0.8,0.3,1.2,0.4c0.2,0.1,0.4,0.1,0.6,0.2
	c0.5,0.2,0.9,0.1,1.4,0c0.8-0.3,1.4-1.1,1.3-2.1c-0.1-1.2-1.2-2.1-2.6-1.8c-0.2,0-0.4,0.1-0.6,0.2c-0.9,0.3-1.8,0.7-2.7,1
	c-0.2,0.1-0.4,0.2-0.6,0.3c-0.2,0.1-0.2,0.3-0.1,0.5c0.1,0.1,0.2,0.2,0.3,0.2C25.1,228.4,25.8,228.7,26.4,229z M18.5,225.4
	c0.6,0.2,1.3,0.5,1.9,0.7c0.2,0.1,0.4,0.1,0.6,0.1c0.1,0,0.2-0.1,0.1-0.2c-0.3-1.1-0.6-2.1-1.1-3.1c-0.2-0.4-0.5-0.9-0.8-1.2
	c-0.2-0.2-0.4-0.4-0.6-0.5c-0.8-0.4-1.5-0.3-2.2,0.2c-0.7,0.5-0.9,1.2-0.8,2c0.1,0.5,0.3,0.9,0.8,1.2
	C17.1,224.8,17.8,225.1,18.5,225.4z"/>
<path class="st1" d="M14.9,240c-0.7,1.6-1.4,3.2-2.2,4.9c-0.1,0.2-0.2,0.4-0.3,0.5c-0.1,0.1-0.3,0.2-0.4,0.2c-0.1,0-0.3-0.1-0.4-0.1
	c-2.5-1.1-5-2.1-7.4-3.3c-0.3-0.2-0.7-0.3-1-0.5c-0.5-0.2-0.5-0.4-0.4-0.9c0-0.1,0.1-0.2,0.1-0.3c1.4-3.2,2.8-6.4,4.2-9.6
	c0.1-0.2,0.1-0.3,0.2-0.5c0.2-0.3,0.4-0.4,0.8-0.3c0.2,0.1,0.3,0.1,0.5,0.2c2.6,1.2,5.2,2.3,7.9,3.5c0.2,0.1,0.4,0.2,0.5,0.3
	c0.3,0.2,0.3,0.3,0.3,0.6c0,0.2-0.1,0.4-0.2,0.5C16.3,236.7,15.6,238.4,14.9,240C14.9,240,14.9,240,14.9,240z M12.5,239.7
	c0.7-1.4,0.2-3.3-1.5-4.1c-1.5-0.7-3.5,0.1-4.1,1.5c-0.7,1.5,0,3.3,1.5,4C10.1,241.9,11.9,241.2,12.5,239.7z"/>
<path class="st1" d="M27.2,245.6c-0.3,0.7-0.7,1.5-1,2.2c-0.4,0.9-0.8,1.8-1.2,2.6c-0.1,0.1-0.1,0.3-0.2,0.4
	c-0.2,0.3-0.4,0.4-0.7,0.3c-0.2-0.1-0.4-0.1-0.6-0.2c-2.1-0.9-4.3-1.9-6.4-2.8c-0.5-0.2-1-0.4-1.5-0.7c-0.1-0.1-0.3-0.1-0.4-0.2
	c-0.2-0.1-0.3-0.3-0.2-0.6c0-0.2,0.1-0.3,0.2-0.5c0.3-0.7,0.6-1.4,0.9-2c1.1-2.5,2.2-5,3.3-7.5c0.1-0.2,0.2-0.4,0.3-0.6
	c0.2-0.3,0.4-0.4,0.7-0.3c0.1,0,0.2,0.1,0.3,0.1c2.7,1.2,5.5,2.4,8.2,3.6c0.1,0.1,0.2,0.1,0.4,0.2c0.3,0.2,0.3,0.4,0.2,0.7
	c-0.1,0.2-0.1,0.4-0.2,0.6C28.6,242.4,27.9,244,27.2,245.6z M19.3,242.7c-0.6,1.3-0.2,3.3,1.5,4.1c1.7,0.8,3.5-0.2,4.1-1.5
	c0.6-1.3,0.2-3.3-1.6-4.1C21.6,240.5,19.8,241.4,19.3,242.7z"/>
<path class="st1" d="M260.9,218c0.4-0.5,0.7-1,1-1.5c0.7-1,1.3-2,2-3c0.2-0.2,0.4-0.5,0.6-0.7c0.5-0.5,1.1-0.7,1.8-0.7
	c0.9,0,1.6,0.2,2.3,0.7c0.7,0.5,1,1.2,1.2,2.1c0.2,1.2-0.2,2.1-1.1,2.9c-0.1,0.1-0.3,0.2-0.4,0.4c-0.1,0.1-0.2,0.2-0.3,0.3
	c0,0,0,0.1,0,0.1c0,0,0.1,0,0.1,0c0.2,0,0.5-0.1,0.7-0.1c1.3-0.3,2.6-0.6,3.9-0.9c0.2,0,0.4-0.1,0.6-0.1c0.3,0,0.4,0.1,0.5,0.3
	c0,0.1,0.1,0.2,0.1,0.3c0.3,1.3,0.6,2.7,0.9,4.1c0,0.1,0,0.2,0,0.3c0,0.2-0.1,0.4-0.3,0.5c-0.1,0.1-0.3,0.1-0.4,0.2
	c-0.3,0.1-0.5,0.1-0.8,0.2c-2.9,0.7-5.9,1.3-8.8,2c-0.2,0-0.4,0.1-0.6,0.1c-0.4,0-0.5-0.1-0.7-0.4c-0.1-0.2-0.1-0.5-0.2-0.7
	c-0.2-1-0.5-2-0.7-3c-0.1-0.4-0.2-0.7-0.3-1.1c-0.1-0.3-0.1-0.3-0.3-0.2c-0.7,0.1-1.4,0.3-2,0.5c0,0-0.1,0-0.1,0
	c-0.1,0-0.1,0.1-0.1,0.2c0,0.1,0.1,0.3,0.1,0.4c0.3,1.4,0.6,2.7,0.9,4.1c0,0.2,0.1,0.3,0.1,0.5c0,0.3-0.1,0.5-0.3,0.6
	c-0.1,0-0.2,0.1-0.3,0.1c-0.2,0.1-0.4,0.1-0.6,0.1c-2.9,0.7-5.8,1.3-8.7,1.9c-0.2,0.1-0.5,0.1-0.7,0.1c-0.5,0.1-0.8-0.1-0.9-0.6
	c-0.3-1.3-0.6-2.7-0.9-4c-0.1-0.5,0-0.7,0.5-0.9c0.2-0.1,0.4-0.1,0.6-0.1c1.5-0.3,3-0.7,4.5-1c0.1,0,0.2-0.1,0.3-0.1
	c0.1,0,0.1,0,0.1-0.1c0-0.1,0-0.1-0.1-0.2c-0.1-0.1-0.3-0.1-0.4-0.1c-0.3-0.1-0.6-0.2-0.9-0.4c-1-0.7-1.6-1.6-1.5-2.9
	c0.1-1.3,0.7-2.2,1.8-2.8c0.7-0.3,1.4-0.4,2.1-0.2c0.5,0.1,0.9,0.3,1.4,0.5c0.7,0.4,1.4,0.8,2.1,1.2c0.4,0.3,0.8,0.5,1.2,0.8
	C260.3,217.7,260.5,217.8,260.9,218z M265.3,218c0.5-0.1,0.8-0.2,1.2-0.3c0.2-0.1,0.4-0.1,0.6-0.2c0.5-0.1,0.8-0.4,1.1-0.9
	c0.5-0.7,0.5-1.7-0.2-2.4c-0.8-0.9-2.2-0.9-3.1,0.1c-0.1,0.1-0.2,0.3-0.3,0.5c-0.5,0.8-1.1,1.6-1.6,2.4c-0.1,0.2-0.2,0.4-0.3,0.6
	c-0.1,0.2,0,0.4,0.2,0.4c0.1,0,0.2,0,0.4,0C264,218.2,264.7,218.1,265.3,218z M256.8,219.8c0.7-0.2,1.3-0.4,2-0.6
	c0.2-0.1,0.4-0.2,0.5-0.3c0.1-0.1,0.1-0.2,0-0.3c-0.9-0.7-1.8-1.4-2.7-1.9c-0.4-0.2-0.9-0.4-1.4-0.5c-0.3-0.1-0.5-0.1-0.8-0.1
	c-0.8,0.2-1.4,0.7-1.6,1.5c-0.2,0.8,0,1.5,0.5,2.1c0.4,0.4,0.8,0.6,1.3,0.5C255.4,220.1,256.1,220,256.8,219.8z"/>
<path class="st1" d="M262.6,233.7c0.4,1.7,0.8,3.5,1.2,5.2c0,0.2,0.1,0.4,0.1,0.6c0,0.2-0.1,0.3-0.3,0.4c-0.1,0.1-0.3,0.1-0.4,0.1
	c-2.6,0.6-5.3,1.2-7.9,1.8c-0.4,0.1-0.7,0.2-1.1,0.2c-0.5,0.1-0.7,0-0.8-0.5c0-0.1-0.1-0.2-0.1-0.3c-0.8-3.4-1.5-6.8-2.3-10.2
	c0-0.2-0.1-0.3-0.1-0.5c0-0.4,0.1-0.6,0.5-0.7c0.2,0,0.3-0.1,0.5-0.1c2.8-0.6,5.6-1.3,8.4-1.9c0.2,0,0.4-0.1,0.6-0.1
	c0.3,0,0.4,0.1,0.6,0.3c0.1,0.2,0.1,0.4,0.2,0.6C261.8,230.2,262.2,231.9,262.6,233.7C262.6,233.7,262.6,233.7,262.6,233.7z
	 M260.5,234.9c-0.3-1.5-1.9-2.8-3.6-2.4c-1.7,0.3-2.7,2.1-2.4,3.7c0.3,1.6,2,2.7,3.6,2.3C259.9,238.1,260.9,236.4,260.5,234.9z"/>
<path class="st1" d="M275.8,230.8c0.2,0.8,0.4,1.6,0.5,2.4c0.2,0.9,0.4,1.9,0.6,2.8c0,0.2,0.1,0.3,0.1,0.5c0,0.3-0.1,0.5-0.4,0.6
	c-0.2,0.1-0.4,0.1-0.6,0.2c-2.3,0.5-4.6,1-6.9,1.5c-0.5,0.1-1.1,0.2-1.6,0.4c-0.1,0-0.3,0.1-0.4,0.1c-0.2,0-0.4-0.1-0.5-0.3
	c-0.1-0.2-0.1-0.3-0.2-0.5c-0.2-0.7-0.3-1.4-0.5-2.2c-0.6-2.7-1.2-5.4-1.8-8c0-0.2-0.1-0.4-0.1-0.7c0-0.3,0.1-0.5,0.4-0.6
	c0.1,0,0.2-0.1,0.3-0.1c2.9-0.7,5.8-1.3,8.7-2c0.1,0,0.3-0.1,0.4-0.1c0.3,0,0.5,0.1,0.6,0.4c0.1,0.2,0.1,0.4,0.2,0.6
	C275.1,227.4,275.5,229.1,275.8,230.8z M267.8,233.2c0.3,1.5,1.8,2.8,3.6,2.4c1.8-0.4,2.7-2.3,2.4-3.7c-0.3-1.4-1.8-2.7-3.7-2.3
	C268.3,230,267.4,231.8,267.8,233.2z"/>
</svg>
