<svg xmlns="http://www.w3.org/2000/svg" width="1184.871" height="1435.604" viewBox="0 0 1184.871 1435.604">
  <g id="Group_397" data-name="Group 397" transform="translate(520.467 3075.055) rotate(-121)">
    <path id="Path_4811" data-name="Path 4811" d="M2572.483,941.053c-138.587-15.926-283.424,55.768-354.8,175.624-31.121,52.26-53.539,116.753-108.661,142.468-44.133,20.588-95.614,9.287-144.313,9.647-54.9.406-110.258,17-153.7,50.567-38.645,29.862-66.287,71.354-99.084,107.538-91.4,100.838-227.126,159.981-363.214,158.271" fill="none" stroke="rgba(255,125,125,0.39)" stroke-miterlimit="10" stroke-width="0.595"/>
    <path id="Path_4812" data-name="Path 4812" d="M1366.964,1577.072a440.085,440.085,0,0,0,132.7-18.569,474.173,474.173,0,0,0,98.856-42.689,500.939,500.939,0,0,0,120.254-95.767q4.57-4.975,9.029-10.066c28.622-32.492,54.4-67.138,88.72-92.623,33.313-24.733,73.529-39.526,115.116-45.243a287.775,287.775,0,0,1,34.98-2.641c47.414-.693,97.242,9.261,139.762-11.5,33.274-16.2,54.232-46.917,72.967-79.962,11.144-19.647,21.5-40.088,33.041-58.856a339.412,339.412,0,0,1,55.826-68.482A370.425,370.425,0,0,1,2403.2,969.3c50.079-17.025,103.754-23.046,155.83-15.83" transform="translate(15.734 10.019)" fill="none" stroke="rgba(255,125,125,0.39)" stroke-miterlimit="10" stroke-width="0.595"/>
    <path id="Path_4813" data-name="Path 4813" d="M1385.21,1569.035a406.232,406.232,0,0,0,129-18.688,452.973,452.973,0,0,0,94.992-43.119,529.459,529.459,0,0,0,116.414-93.97q4.481-4.813,8.865-9.723c28.3-31.45,53.893-64.178,87.549-88.115,32.674-23.234,71.87-36.95,112.442-42.509a299.427,299.427,0,0,1,34.052-2.695c46.127-1.024,94.305,7.585,135.21-13.343,31.965-16.261,52.17-46.3,70.578-78.33,10.967-19.062,21.282-38.773,32.774-56.839a331.3,331.3,0,0,1,55.178-65.7,360.2,360.2,0,0,1,132.151-77.487c48.87-15.887,101.136-20.78,151.157-12.567" transform="translate(31.468 19.976)" fill="none" stroke="rgba(255,125,125,0.39)" stroke-miterlimit="10" stroke-width="0.595"/>
    <path id="Path_4814" data-name="Path 4814" d="M1403.456,1561.061a374.611,374.611,0,0,0,125.307-18.809c32.208-10.727,62.4-25.731,91.128-43.548a566.585,566.585,0,0,0,112.574-92.173q4.391-4.648,8.7-9.378c27.985-30.413,53.388-61.219,86.381-83.61,32.035-21.731,70.211-34.373,109.766-39.775a314.684,314.684,0,0,1,33.123-2.745c44.844-1.357,91.37,5.906,130.659-15.192,30.655-16.327,50.113-45.69,68.19-76.7,10.79-18.48,21.07-37.462,32.51-54.822a323.188,323.188,0,0,1,54.526-62.927,350.072,350.072,0,0,1,129.32-73.593c47.662-14.748,98.518-18.513,146.485-9.3" transform="translate(47.201 29.87)" fill="none" stroke="rgba(255,125,125,0.39)" stroke-miterlimit="10" stroke-width="0.595"/>
    <path id="Path_4815" data-name="Path 4815" d="M1421.7,1553.155a345.2,345.2,0,0,0,121.608-18.93c31.054-10.911,59.8-26.178,87.263-43.98a616.365,616.365,0,0,0,108.734-90.374c2.868-2.989,5.7-6.012,8.533-9.034,27.6-29.441,52.882-58.262,85.212-79.1,31.4-20.229,68.551-31.8,107.091-37.041,10.727-1.46,21.495-2.385,32.2-2.8,43.559-1.691,88.383,4.142,126.107-17.04,29.309-16.457,48.051-45.077,65.8-75.066,10.613-17.895,20.856-36.147,32.244-52.8a315.262,315.262,0,0,1,53.878-60.15c36.484-31.73,80.006-56.079,126.489-69.7,46.453-13.608,95.9-16.247,141.81-6.041" transform="translate(62.936 39.698)" fill="none" stroke="rgba(255,125,125,0.39)" stroke-miterlimit="10" stroke-width="0.595"/>
    <path id="Path_4816" data-name="Path 4816" d="M1439.949,1545.314c40.189,1.024,80.785-5.268,117.912-19.049,29.9-11.1,57.2-26.627,83.4-44.41,37.346-25.348,72.792-55.636,104.894-88.577,2.808-2.881,5.585-5.79,8.369-8.691,27.264-28.417,52.375-55.3,84.042-74.6,30.756-18.728,66.892-29.218,104.415-34.307,10.431-1.414,20.89-2.356,31.268-2.847,42.274-2.024,85.435,2.445,121.556-18.889,27.99-16.533,45.989-44.464,63.413-73.434,10.434-17.31,20.642-34.832,31.978-50.785a307.419,307.419,0,0,1,53.227-57.374c35.866-30.19,78.386-53.325,123.658-65.8,45.245-12.47,93.279-13.98,137.136-2.779" transform="translate(78.669 49.459)" fill="none" stroke="rgba(255,125,125,0.39)" stroke-miterlimit="10" stroke-width="0.595"/>
    <path id="Path_4817" data-name="Path 4817" d="M1458.195,1537.545c39.011,1.112,78.52-5.16,114.213-19.17,28.748-11.282,54.6-27.076,79.537-44.84,35.548-25.324,69.637-55.091,101.054-86.78,2.749-2.771,5.47-5.566,8.2-8.347,26.935-27.391,51.871-52.345,82.872-70.093,30.117-17.224,65.233-26.642,101.741-31.572,10.136-1.371,20.282-2.328,30.339-2.9,40.989-2.357,82.487.752,117-20.739,26.674-16.608,43.93-43.852,61.026-71.8,10.257-16.727,20.427-33.52,31.711-48.77a299.909,299.909,0,0,1,52.578-54.6c35.248-28.648,76.766-50.569,120.826-61.908,44.036-11.33,90.66-11.716,132.464.484" transform="translate(94.403 59.15)" fill="none" stroke="rgba(255,125,125,0.39)" stroke-miterlimit="10" stroke-width="0.595"/>
    <path id="Path_4818" data-name="Path 4818" d="M1476.441,1529.845c37.834,1.2,76.255-5.051,110.516-19.29,27.594-11.468,51.993-27.523,75.673-45.272,33.749-25.3,66.482-54.543,97.214-84.98,2.689-2.661,5.356-5.345,8.04-8,26.607-26.363,51.362-49.386,81.7-65.587,29.477-15.723,63.573-24.064,99.065-28.838,9.842-1.324,19.677-2.3,29.411-2.952,39.7-2.689,79.539-.935,112.453-22.586,25.355-16.681,41.87-43.237,58.636-70.17,10.081-16.142,20.215-32.2,31.447-46.751a292.421,292.421,0,0,1,51.926-51.821c34.629-27.109,75.146-47.814,118-58.014,42.826-10.192,88.041-9.449,127.79,3.745" transform="translate(110.136 68.769)" fill="none" stroke="rgba(255,125,125,0.39)" stroke-miterlimit="10" stroke-width="0.595"/>
    <path id="Path_4819" data-name="Path 4819" d="M1494.688,1522.218c36.656,1.292,73.987-4.939,106.818-19.411,26.439-11.65,49.392-27.97,71.809-45.7,31.951-25.271,63.327-54,93.374-83.183,2.63-2.553,5.24-5.121,7.874-7.66,26.285-25.333,50.858-46.427,80.533-61.082,28.838-14.22,61.914-21.487,96.391-26.1,9.546-1.279,19.072-2.27,28.484-3,38.419-3.024,76.591-2.622,107.9-24.435,24.039-16.75,39.809-42.625,56.247-68.538,9.9-15.558,20-30.892,31.181-44.732a285.227,285.227,0,0,1,51.278-49.043c34.009-25.57,73.525-45.06,115.165-54.12,41.619-9.053,85.422-7.183,123.115,7.008" transform="translate(125.871 78.317)" fill="none" stroke="rgba(255,125,125,0.39)" stroke-miterlimit="10" stroke-width="0.595"/>
    <path id="Path_4820" data-name="Path 4820" d="M1512.934,1514.667c35.479,1.38,71.723-4.831,103.121-19.532,25.284-11.837,46.789-28.419,67.944-46.131,30.153-25.247,60.173-53.454,89.534-81.386,2.57-2.443,5.125-4.9,7.71-7.315,25.962-24.3,50.351-43.469,79.364-56.577,28.2-12.719,60.255-18.91,93.715-23.37,9.252-1.233,18.465-2.24,27.556-3.054,37.134-3.356,73.645-4.3,103.348-26.283,22.726-16.816,37.749-42.011,53.86-66.9,9.727-14.975,19.789-29.579,30.916-42.716,14.731-17.521,32-32.847,50.626-46.267,33.391-24.031,71.907-42.306,112.334-50.226,40.41-7.915,82.8-4.916,118.442,10.271" transform="translate(141.604 87.789)" fill="none" stroke="rgba(255,125,125,0.39)" stroke-miterlimit="10" stroke-width="0.595"/>
    <path id="Path_4821" data-name="Path 4821" d="M1531.18,1507.191c34.3,1.469,69.458-4.721,99.424-19.651,24.13-12.021,44.187-28.865,64.08-46.563,28.354-25.221,57.018-52.906,85.694-79.587,2.51-2.335,5.011-4.674,7.544-6.972,25.644-23.266,49.844-40.51,78.194-52.07,27.558-11.217,58.6-16.332,91.04-20.634,8.956-1.19,17.859-2.212,26.627-3.106,35.849-3.689,70.7-5.984,98.8-28.134,21.411-16.88,35.687-41.4,51.47-65.272,9.55-14.39,19.576-28.264,30.65-40.7,14.636-16.556,31.7-30.931,49.978-43.488,32.771-22.491,70.285-39.552,109.5-46.332,39.2-6.775,80.183-2.65,113.768,13.533" transform="translate(157.338 97.186)" fill="none" stroke="rgba(255,125,125,0.39)" stroke-miterlimit="10" stroke-width="0.595"/>
    <path id="Path_4822" data-name="Path 4822" d="M1549.427,1499.792c33.123,1.561,67.192-4.609,95.726-19.77,22.975-12.208,41.583-29.315,60.216-46.993,26.555-25.2,53.864-52.36,81.854-77.79,2.451-2.226,4.9-4.449,7.378-6.628,25.329-22.23,49.34-37.553,77.027-47.565,26.917-9.714,56.936-13.755,88.362-17.9,8.663-1.143,17.256-2.183,25.7-3.158,34.564-4.021,67.762-7.656,94.246-29.981,20.1-16.939,33.629-40.782,49.083-63.64a313.169,313.169,0,0,1,30.385-38.68c14.539-15.593,31.395-29.016,49.327-40.712,32.153-20.951,68.667-36.8,106.673-42.438,37.991-5.635,77.564-.384,109.093,16.8" transform="translate(173.072 106.505)" fill="none" stroke="rgba(255,125,125,0.39)" stroke-miterlimit="10" stroke-width="0.595"/>
    <path id="Path_4823" data-name="Path 4823" d="M1567.673,1492.473c31.946,1.648,64.927-4.5,92.027-19.893,21.823-12.39,38.983-29.761,56.353-47.422,24.755-25.173,50.708-51.815,78.013-75.993,2.391-2.116,4.784-4.226,7.215-6.285,25.015-21.187,48.833-34.594,75.855-43.058,26.281-8.213,55.277-11.177,85.688-15.167,8.369-1.1,16.649-2.153,24.774-3.208,33.279-4.356,64.823-9.328,89.694-31.831,18.789-17,31.568-40.17,46.694-62.007a271.887,271.887,0,0,1,30.121-36.663c14.442-14.63,31.095-27.1,48.677-37.937,31.532-19.411,67.045-34.041,103.84-38.542s74.946,1.881,104.421,20.059" transform="translate(188.806 115.745)" fill="none" stroke="rgba(255,125,125,0.39)" stroke-miterlimit="10" stroke-width="0.595"/>
    <path id="Path_4824" data-name="Path 4824" d="M1585.919,1485.233c30.769,1.738,62.663-4.391,88.331-20.012,20.668-12.576,36.382-30.21,52.489-47.854,22.958-25.146,47.553-51.267,74.173-74.194,2.332-2.008,4.671-4,7.049-5.941,24.707-20.142,48.327-31.636,74.688-38.553,25.64-6.71,53.618-8.6,83.012-12.431,8.073-1.054,16.044-2.127,23.847-3.261,31.994-4.689,61.888-11,85.142-33.68,17.483-17.053,29.506-39.557,44.3-60.376a236.774,236.774,0,0,1,29.854-34.645c14.347-13.667,30.795-25.187,48.027-35.16,30.914-17.87,65.426-31.286,101.011-34.648s72.326,4.147,99.747,23.32" transform="translate(204.539 124.906)" fill="none" stroke="rgba(255,125,125,0.39)" stroke-miterlimit="10" stroke-width="0.595"/>
    <path id="Path_4825" data-name="Path 4825" d="M1604.165,1478.076c29.592,1.825,60.4-4.281,84.634-20.133,19.515-12.76,33.779-30.657,48.625-48.284,21.16-25.123,44.4-50.722,70.334-72.4,2.272-1.9,4.557-3.775,6.885-5.6,24.4-19.094,47.82-28.678,73.516-34.049,25-5.209,51.958-6.023,80.338-9.7,7.779-1.007,15.438-2.1,22.917-3.313,30.709-5.021,58.961-12.658,80.591-35.527,16.182-17.105,27.447-38.945,41.918-58.744a206.774,206.774,0,0,1,29.588-32.627c14.25-12.7,30.493-23.271,47.377-32.382,30.3-16.332,63.806-28.532,98.179-30.754s69.708,6.414,95.074,26.582" transform="translate(220.273 133.985)" fill="none" stroke="rgba(255,125,125,0.39)" stroke-miterlimit="10" stroke-width="0.595"/>
    <path id="Path_4826" data-name="Path 4826" d="M1622.412,1471c28.413,1.917,58.13-4.171,80.935-20.252,18.361-12.947,31.177-31.106,44.76-48.714,19.361-25.1,41.244-50.176,66.494-70.6,2.212-1.788,4.443-3.55,6.719-5.253,24.1-18.038,47.315-25.718,72.348-29.542,24.361-3.706,50.3-3.445,77.662-6.963,7.485-.963,14.831-2.067,21.99-3.363,29.424-5.354,56.036-14.317,76.04-37.376,14.881-17.154,25.387-38.332,39.529-57.111a180.968,180.968,0,0,1,29.322-30.611c14.155-11.74,30.2-21.357,46.727-29.6,29.677-14.792,62.186-25.778,95.348-26.86s67.089,8.68,90.4,29.845" transform="translate(236.007 142.982)" fill="none" stroke="rgba(255,125,125,0.39)" stroke-miterlimit="10" stroke-width="0.595"/>
    <path id="Path_4827" data-name="Path 4827" d="M1640.658,1464c27.236,2.006,55.865-4.062,77.239-20.372,17.206-13.131,28.573-31.555,40.9-49.144,17.561-25.074,38.09-49.63,62.653-68.8,2.153-1.68,4.332-3.324,6.555-4.909,23.8-16.977,46.807-22.761,71.177-25.037,23.722-2.2,48.64-.868,74.987-4.229,7.189-.916,14.226-2.037,21.063-3.415,28.139-5.687,53.12-15.971,71.488-39.224,13.587-17.2,23.325-37.717,37.14-55.48a158.824,158.824,0,0,1,29.057-28.592c14.059-10.777,29.894-19.442,46.077-26.828,29.058-13.252,60.566-23.024,92.517-22.966s64.469,10.947,85.726,33.108" transform="translate(251.741 151.897)" fill="none" stroke="rgba(255,125,125,0.39)" stroke-miterlimit="10" stroke-width="0.595"/>
    <path id="Path_4828" data-name="Path 4828" d="M1658.9,1457.1c26.059,2.093,53.6-3.952,73.54-20.495,16.053-13.315,25.974-32,37.034-49.574,15.762-25.048,34.935-49.083,58.813-67q3.14-2.355,6.389-4.566c23.53-15.869,46.3-19.8,70.01-20.528,23.081-.7,46.978,1.708,72.311-1.5,6.894-.874,13.621-2.01,20.133-3.468,26.856-6.021,50.252-17.6,66.937-41.073,12.33-17.226,21.265-37.1,34.752-53.848a139.691,139.691,0,0,1,28.791-26.573c13.963-9.814,29.594-17.528,45.427-24.052,28.439-11.714,58.946-20.269,89.687-19.072s61.851,13.213,81.053,36.371" transform="translate(267.474 160.723)" fill="none" stroke="rgba(255,125,125,0.39)" stroke-miterlimit="10" stroke-width="0.595"/>
    <path id="Path_4829" data-name="Path 4829" d="M1677.151,1450.293c24.88,2.183,51.334-3.842,69.842-20.614,14.9-13.5,23.37-32.448,33.169-50,15.189-27.218,34.933-52.647,61.2-69.428,45.82-29.273,89.195-8.61,138.477-14.785,33.855-4.242,62.871-17.07,81.591-46.44,11.021-17.29,19.2-36.492,32.363-52.215,18.712-22.361,45.918-35.82,73.3-45.833,27.819-10.172,57.325-17.513,86.854-15.176s59.232,15.478,76.378,39.633" transform="translate(283.209 169.45)" fill="none" stroke="rgba(255,125,125,0.39)" stroke-miterlimit="10" stroke-width="0.595"/>
  </g>
</svg>
